<?xml version="1.0" standalone="no"?>
<!DOCTYPE svg PUBLIC "-//W3C//DTD SVG 1.1//EN" "http://www.w3.org/Graphics/SVG/1.1/DTD/svg11.dtd" >
<svg xmlns="http://www.w3.org/2000/svg">
<metadata>
This is a custom SVG font generated by IcoMoon.
0
</metadata>
<defs>
<font id="icomoon" horiz-adv-x="512" >
<font-face units-per-em="512" ascent="480" descent="-32" />
<missing-glyph horiz-adv-x="512" />
<glyph unicode="&#xe000;" d="M 298.688,266.667c0.00-11.797-9.536-21.333-21.333-21.333l-128.00,0.00 c-11.797,0.00-21.333,9.536-21.333,21.333l0.00,0.00c0.00,11.797, 9.536,21.333, 21.333,21.333l 128.00,0.00 C 289.152,288.00, 298.688,278.464, 298.688,266.667
			L 298.688,266.667zM 478.208,62.165l-102.443,102.421c 18.645,29.611, 29.589,64.512, 29.589,102.08c0.00,106.048-85.952,192.00-192.00,192.00s-192.00-85.952-192.00-192.00s 85.952-192.00, 192.00-192.00
			c 37.568,0.00, 72.491,10.965, 102.08,29.589l 102.443-102.421C 426.219-6.507, 437.12-10.667, 448.043-10.667s 21.824,4.16, 30.165,12.501
			C 494.869,18.496, 494.869,45.504, 478.208,62.165z M 85.355,266.667c0.00,70.592, 57.408,128.00, 128.00,128.00s 128.00-57.408, 128.00-128.00s-57.408-128.00-128.00-128.00S 85.355,196.075, 85.355,266.667z" horiz-adv-x="512.0853271484375" />
<glyph unicode="&#xe001;" d="M 298.688,266.667c0.00-11.797-9.557-21.333-21.333-21.333l-128.00,0.00 c-11.797,0.00-21.333,9.536-21.333,21.333l0.00,0.00c0.00,11.797, 9.536,21.333, 21.333,21.333l 128.00,0.00 C 289.131,288.00, 298.688,278.464, 298.688,266.667
			L 298.688,266.667zM 213.355,352.00c 11.797,0.00, 21.333-9.557, 21.333-21.333l0.00-128.00 c0.00-11.776-9.536-21.333-21.333-21.333l0.00,0.00c-11.797,0.00-21.333,9.557-21.333,21.333L 192.021,330.667 C 192.021,342.443, 201.557,352.00, 213.355,352.00L 213.355,352.00z
			M 478.187,62.165l-102.421,102.421c 18.624,29.611, 29.589,64.512, 29.589,102.08c0.00,106.048-85.952,192.00-192.00,192.00s-192.00-85.952-192.00-192.00s 85.952-192.00, 192.00-192.00
			c 37.547,0.00, 72.469,10.965, 102.08,29.589l 102.421-102.421C 426.197-6.507, 437.099-10.667, 448.021-10.667s 21.824,4.16, 30.165,12.501
			C 494.848,18.496, 494.848,45.504, 478.187,62.165z M 85.355,266.667c0.00,70.592, 57.408,128.00, 128.00,128.00s 128.00-57.408, 128.00-128.00s-57.408-128.00-128.00-128.00S 85.355,196.075, 85.355,266.667z" horiz-adv-x="512.0853271484375" />
<glyph unicode="&#xe002;" d="M 383.979,266.667L 383.979,202.667L 511.979,96.00L 511.979,373.333 		zM 362.645,138.667c0.00-47.125-38.208-85.333-85.333-85.333l-192.00,0.00 c-47.125,0.00-85.333,38.208-85.333,85.333L-0.021,330.667 c0.00,47.125, 38.208,85.333, 85.333,85.333l 192.00,0.00 c 47.125,0.00, 85.333-38.208, 85.333-85.333L 362.645,138.667 z" horiz-adv-x="512.0213216145833" />
<glyph unicode="&#xe003;" d="M 318.059,171.691l0.00-38.528 c 7.019-3.072, 15.04-6.592, 24.021-10.539c 9.003-3.947, 18.261-8.00, 27.819-12.181s 19.221-8.32, 28.971-12.523
		c 9.771-4.16, 19.072-8.043, 27.84-11.712c 8.768-3.584, 16.661-6.805, 23.68-9.685c 7.04-2.88, 12.736-5.035, 17.131-6.571
		c 9.216-3.307, 16.683-8.299, 22.40-15.019c 5.696-6.677, 10.197-13.504, 13.504-20.565c 3.925-8.128, 6.805-16.683, 8.555-25.685l0.00-41.813 L0.00-33.131 l0.00,41.813 
		c 1.963,9.003, 4.928,17.557, 8.875,25.685c 3.285,7.061, 7.787,13.867, 13.504,20.565c 5.717,6.72, 13.056,11.712, 22.059,15.019
		c 4.608,1.515, 10.667,3.755, 18.112,6.741c 7.488,2.965, 15.808,6.379, 25.024,10.197c 9.216,3.84, 18.944,7.957, 29.141,12.352
		c 10.197,4.395, 20.373,8.768, 30.443,13.163c 10.112,4.416, 19.648,8.533, 28.651,12.501c 9.024,3.989, 16.917,7.488, 23.723,10.539l0.00,37.547 
		c-0.427,1.749-1.152,4.437-2.133,8.085c-1.003,3.627-2.027,7.296-3.136,11.051c-1.301,4.352-2.859,9.088-4.608,14.144
		c-6.357,11.861-11.413,25.28-15.147,40.32S 168.896,277.611, 168.896,294.507c0.00,22.187, 2.368,40.96, 7.083,56.299c 4.715,15.403, 11.136,27.904, 19.264,37.547
		c 8.107,9.664, 17.60,16.683, 28.48,21.077C 234.581,413.824, 246.251,416.00, 258.773,416.00c 12.309,0.00, 23.872-2.133, 34.731-6.421
		c 10.88-4.288, 20.416-11.179, 28.651-20.736c 8.235-9.557, 14.699-22.08, 19.435-37.568c 4.736-15.445, 7.083-34.411, 7.083-56.789
		c0.00-16.469-1.813-32.085-5.419-46.912c-3.627-14.827-8.619-28.139-14.976-40.043c-1.771-5.44-3.413-10.603-4.928-15.424
		c-1.323-4.203-2.539-8.213-3.627-12.011C 318.613,176.235, 318.059,173.419, 318.059,171.691z" horiz-adv-x="512.0213216145833" />
<glyph unicode="&#xe004;" d="M 452.885,480.00L 59.093,480.00 C 37.333,480.00, 19.712,462.379, 19.712,440.619l0.00-354.411 c0.00-21.717, 17.643-39.381, 39.381-39.381l 118.123,0.00 l 78.763-78.741l 78.741,78.741
			l 118.165,0.00 c 21.739,0.00, 39.381,17.664, 39.381,39.381L 492.267,440.619 C 492.245,462.379, 474.624,480.00, 452.885,480.00z M 251.883,420.928c 39.531,0.00, 71.573-32.043, 71.573-71.595
			c0.00-39.552-32.043-71.595-71.573-71.595c-39.552,0.00-71.595,32.064-71.595,71.595C 180.288,388.885, 212.331,420.928, 251.883,420.928z M 351.595,105.92l-199.467,0.00 
			c0.00,0.00-29.141,143.211, 99.755,143.211S 351.595,105.92, 351.595,105.92z" horiz-adv-x="512.0213216145833" />
<glyph unicode="&#xe005;" d="M 490.667,394.667C 469.333,394.667, 21.333,394.667, 21.333,394.667S0.00,394.667,0.00,373.333s0.00-320.00,0.00-320.00s0.00-21.333, 21.333-21.333s 469.333,0.00, 469.333,0.00s 21.333,0.00, 21.333,21.333s0.00,320.00,0.00,320.00S 512.00,394.667, 490.667,394.667z M 138.667,330.667C 168.107,330.667, 192.00,306.795, 192.00,277.333
		S 168.107,224.00, 138.667,224.00S 85.333,247.872, 85.333,277.333S 109.205,330.667, 138.667,330.667z M 212.928,96.00L 64.363,96.00 c0.00,0.00-21.717,106.667, 74.283,106.667S 212.928,96.00, 212.928,96.00z M 437.333,96.00l-149.333,0.00 
		c-5.867,0.00-10.667,4.80-10.667,10.667s 4.80,10.667, 10.667,10.667l 149.333,0.00 c 5.867,0.00, 10.667-4.80, 10.667-10.667S 443.20,96.00, 437.333,96.00z M 437.333,138.667l-149.333,0.00 
		c-5.867,0.00-10.667,4.80-10.667,10.667s 4.80,10.667, 10.667,10.667l 149.333,0.00 c 5.867,0.00, 10.667-4.80, 10.667-10.667S 443.20,138.667, 437.333,138.667z M 437.333,181.333l-149.333,0.00 
		c-5.867,0.00-10.667,4.80-10.667,10.667s 4.80,10.667, 10.667,10.667l 149.333,0.00 c 5.867,0.00, 10.667-4.80, 10.667-10.667S 443.20,181.333, 437.333,181.333z M 437.333,224.00l-149.333,0.00 
		c-5.867,0.00-10.667,4.80-10.667,10.667s 4.80,10.667, 10.667,10.667l 149.333,0.00 c 5.867,0.00, 10.667-4.80, 10.667-10.667S 443.20,224.00, 437.333,224.00z M 437.333,266.667l-149.333,0.00 
		C 282.133,266.667, 277.333,271.467, 277.333,277.333S 282.133,288.00, 288.00,288.00l 149.333,0.00 C 443.20,288.00, 448.00,283.20, 448.00,277.333S 443.20,266.667, 437.333,266.667z M 437.333,309.333l-149.333,0.00 C 282.133,309.333, 277.333,314.133, 277.333,320.00
		S 282.133,330.667, 288.00,330.667l 149.333,0.00 C 443.20,330.667, 448.00,325.867, 448.00,320.00S 443.20,309.333, 437.333,309.333z" horiz-adv-x="512.0213216145833" />
<glyph unicode="&#xe006;" d="M 426.688,458.667l-341.333,0.00 c-35.349,0.00-64.00-28.651-64.00-64.00l0.00-341.333 c0.00-35.349, 28.651-64.00, 64.00-64.00l 341.333,0.00 c 35.349,0.00, 64.00,28.651, 64.00,64.00L 490.688,394.667 C 490.688,430.016, 462.037,458.667, 426.688,458.667z
		 M 377.152,86.40C 369.301,78.571, 359.829,74.667, 348.80,74.667l-79.403,0.00 c-33.088,0.00-61.333,11.712-84.80,35.093c-23.488,23.403-35.243,51.563-35.243,84.523
		L 149.355,354.624 c0.00,11.285, 3.947,20.821, 11.776,28.501C 168.939,390.763, 178.453,394.667, 189.739,394.667c 10.965,0.00, 20.352-3.925, 28.16-11.776
		c 7.829-7.829, 11.755-17.259, 11.755-28.245l0.00-58.048 l 113.067,0.00 c 10.24,0.00, 19.051-3.669, 26.347-10.923c 7.36-7.296, 10.987-16.00, 10.987-26.176
		c0.00-10.197-3.627-18.923-10.965-26.219c-7.275-7.253-16.043-10.923-26.283-10.923l-113.152,0.00 l0.00-28.075 c0.00-11.051, 3.84-20.395, 11.563-28.096
		c 7.765-7.659, 17.152-11.541, 28.117-11.541l 79.445,0.00 c 11.029,0.00, 20.523-3.925, 28.373-11.776s 11.84-17.28, 11.84-28.245S 385.003,94.229, 377.152,86.40z" horiz-adv-x="512.0853271484375" />
<glyph unicode="&#xe007;" d="M 426.688,458.667l-341.333,0.00 c-35.349,0.00-64.00-28.651-64.00-64.00l0.00-341.333 c0.00-35.349, 28.651-64.00, 64.00-64.00l 341.333,0.00 c 35.349,0.00, 64.00,28.651, 64.00,64.00L 490.688,394.667 C 490.688,430.016, 462.037,458.667, 426.688,458.667z
		 M 418.453,220.565c-34.816-141.163-268.331-201.003-375.765-54.528c 41.173-39.253, 112.832-42.709, 158.272,4.309C 174.315,166.40, 154.88,192.576, 187.648,206.72
		c-29.461-3.243-45.803,12.437-52.501,25.771c 6.827,7.189, 14.528,10.539, 29.227,11.584c-32.213,7.573-44.139,23.381-47.808,42.517
		c 8.981,2.133, 20.16,3.947, 26.219,3.115c-28.16,14.805-37.995,37.013-36.437,53.717c 50.432-18.752, 82.581-33.792, 109.419-48.235
		c 9.557-5.099, 20.288-14.315, 32.363-26.005c 15.36,40.576, 34.261,82.453, 66.752,103.253c-0.491-4.779-3.029-9.109-6.357-12.736
		c 9.216,8.363, 21.184,14.144, 33.323,15.808c-1.365-9.152-14.549-14.272-22.485-17.237c 6.059,1.835, 37.952,16.064, 41.493,7.979
		c 4.032-9.216-22.059-13.547-26.517-15.083c-3.349-1.152-6.656-2.368-9.941-3.691c 40.448,3.989, 79.147-29.44, 90.411-70.869
		c 0.811-3.072, 1.621-6.293, 2.389-9.835c 14.741-5.504, 41.643,0.299, 50.304,5.653c-6.272-14.827-22.507-25.728-46.528-27.733
		c 11.563-4.757, 33.323-7.488, 48.341-4.907C 459.84,229.632, 444.501,220.395, 418.453,220.565z" horiz-adv-x="512.0853271484375" />
<glyph unicode="&#xe008;" d="M 351.253,233.003c 10.453,2.923, 23.787,6.912, 40.64,12.331c 136.448,43.755, 119.424,213.333, 119.424,213.333l-71.659,0.00 l-34.325,0.00 L 405.333,480.00 L 106.667,480.00 l0.00-21.333 L 72.363,458.667 L 0.704,458.667 
			c0.00,0.00-17.216-170.219, 119.424-213.333c 16.725-5.291, 29.995-9.259, 40.491-12.117c 20.693-25.173, 46.165-43.051, 74.069-49.216l0.00-152.704 
			C 162.325,26.837, 106.667,0.213, 106.667-32.00l 298.667,0.00 c0.00,32.213-55.637,58.837-128.00,63.296l0.00,152.704 C 305.173,190.165, 330.581,207.915, 351.253,233.003z M 405.312,388.117L 405.312,437.333 
			l 34.325,0.00 l 51.115,0.00 c-0.32-42.368-11.349-141.589-105.387-171.712c-5.355-1.707-10.133-3.20-14.677-4.629C 392.32,297.92, 405.333,343.381, 405.312,388.117
			L 405.312,388.117z M 126.549,265.664C 32.384,295.424, 21.461,394.965, 21.227,437.333l 51.115,0.00 L 106.667,437.333 l0.00-49.216 c0.00-44.757, 12.992-90.176, 34.581-127.04
			C 136.683,262.507, 131.904,264.00, 126.549,265.664z M 256.00,291.20L 190.08,245.333L 213.333,322.176L 149.333,370.752l 80.299,1.621L 256.00,448.213l 26.389-75.84L 362.667,370.752l-64.00-48.576
			L 321.941,245.333L 256.00,291.20z" horiz-adv-x="512.0213216145833" />
<glyph unicode="&#xe009;" d="M 455.936,202.219C 425.771,232.405, 199.488,458.667, 199.488,458.667L 18.475,458.667 l0.00-181.013 l 256.448-256.448c0.00,0.00, 30.165-30.165, 60.331,0.00
			s 120.661,120.661, 120.661,120.661S 486.101,172.032, 455.936,202.219z M 139.136,337.984c-16.661-16.661-43.669-16.683-60.331,0.00
			c-16.661,16.661-16.661,43.669,0.00,60.352s 43.669,16.64, 60.331,0.00C 155.819,381.653, 155.819,354.667, 139.136,337.984z" horiz-adv-x="512.0213216145833" />
<glyph unicode="&#xe00a;" d="M 275.648,218.517L 275.648,302.293 l-39.168,0.00 l0.00-83.776 c-11.669-6.763-19.584-19.264-19.584-33.728c0.00-14.507, 7.915-26.923, 19.584-33.728l0.00-25.024 l 39.168,0.00 
			l0.00,25.024 c 11.669,6.805, 19.584,19.221, 19.584,33.728C 295.232,199.253, 287.317,211.755, 275.648,218.517zM 427.541,314.731l 42.923,42.987l-41.536,41.536l-42.901-43.008c-31.296,23.765-69.077,39.253-110.379,42.965L 275.648,439.381 l 19.584,0.00 L 295.232,478.549 l-78.336,0.00 
			l0.00-39.168 l 19.584,0.00 l0.00-40.171 c-109.824-9.899-195.84-102.037-195.84-214.421c0.00-118.955, 96.405-215.424, 215.424-215.424c 118.933,0.00, 215.424,96.448, 215.424,215.424
			C 471.488,233.664, 454.997,278.592, 427.541,314.731z M 256.064,8.533c-97.195,0.00-176.256,79.061-176.256,176.256s 79.061,176.256, 176.256,176.256
			s 176.256-79.061, 176.256-176.256S 353.259,8.533, 256.064,8.533z" horiz-adv-x="512.0853271484375" />
<glyph unicode="&#xe00b;" d="M 256.064,495.531L 324.629,298.283L 533.333,294.037L 366.955,167.872L 427.456-32.00L 256.064,87.275L 84.629-32.00L 145.088,167.872L-21.333,294.037L 187.456,298.283 	z" horiz-adv-x="512.0853271484375" />
<glyph unicode="&#xe00c;" d="M 335.445,461.547L 414.848,461.547L 414.848,223.403L 335.445,223.403zM 97.301,461.547L 176.704,461.547L 176.704,223.403L 97.301,223.403zM 256.064,346.816L 305.131,205.653L 454.528,202.624L 335.445,112.32L 378.731-30.699L 256.064,54.656L 133.355-30.699L 176.619,112.32L 57.60,202.624L 207.019,205.653 		zM 256.064,397.205L 295.744,283.093L 295.744,461.547L 216.384,461.547L 216.384,282.944 		z" horiz-adv-x="512.0853271484375" />
<glyph unicode="&#xe00d;" d="M 260.309,480.00l-8.64,0.00 C 202.667,436.885, 124.672,422.763, 40.085,415.232l0.00-151.125 c0.00-47.595, 13.269-86.08, 34.475-119.147L 361.749,432.171
			C 321.877,442.048, 286.784,456.704, 260.309,480.00zM 154.368,61.013C 185.536,36.181, 219.733,13.333, 252.587-10.667l 6.741,0.00 c 99.84,72.896, 212.544,134.997, 212.544,274.773L 471.872,378.496 L 154.368,61.013zM 471.872,415.232c-38.891,3.477-76.203,8.491-110.144,16.939L 74.56,144.96
			c 20.523-32.085, 48.555-59.072, 79.829-83.947L 471.872,378.496L 471.872,415.232 z" horiz-adv-x="512.0213216145833" />
<glyph unicode="&#xe00e;" d="M 156.587,257.536c 6.443,10.432, 14.549,20.779, 24.32,30.997c 9.749,10.219, 21.504,19.435, 35.264,27.669
			c 13.76,8.213, 27.008,15.04, 45.312,20.501s 35.84,8.725, 59.499,9.792L 320.981,437.333 l 183.488-140.16l-183.488-138.112l0.00,100.309 c-5.995,0.00-10.453-0.192-20.309-0.576
			c-9.835-0.384-20.80-1.451-32.853-3.221s-21.973-4.416-35.264-7.936c-13.312-3.563-26.347-8.469-39.189-14.741
			c-12.843-6.315-24.896-13.291-36.203-22.741C 145.856,200.683, 136.149,189.12, 128.00,175.467C 131.84,206.187, 141.376,232.917, 156.587,257.536zM 384.00,140.843l0.00-45.76 L 64.00,95.083 l0.00,213.333 l 75.968,0.00 C 142.165,316.245, 145.216,323.627, 150.677,329.344c 7.253,7.595, 15.253,14.805, 23.744,21.739L 21.333,351.083 l0.00-298.667 l 405.333,0.00 l0.00,118.421 
			L 384.00,140.843z" horiz-adv-x="512.0213216145833" />
<glyph unicode="&#xe00f;" d="M 492.331,263.403l-23.616,0.00 c-10.837,0.00-22.336,8.448-25.536,18.816l-13.589,32.981c-5.077,9.515-3.008,23.616, 4.629,31.275l 16.789,16.747
			c 7.659,7.68, 7.659,20.203,0.00,27.883l-27.925,27.84c-7.616,7.659-20.16,7.659-27.819,0.00L 378.453,402.176c-7.616-7.659-21.76-9.749-31.296-4.608
			L 314.24,411.115c-10.325,3.20-18.816,14.699-18.816,25.536L 295.424,460.288 C 295.445,471.104, 286.571,480.00, 275.712,480.00l-39.381,0.00 c-10.837,0.00-19.712-8.896-19.712-19.712
			l0.00-23.637 c0.00-10.837-8.448-22.336-18.795-25.536L 164.885,397.568C 155.285,392.427, 141.248,394.496, 133.589,402.176L 116.80,418.944
			c-7.659,7.659-20.16,7.659-27.84,0.00L 61.12,391.104c-7.701-7.659-7.701-20.203,0.00-27.861l 16.704-16.768c 7.659-7.659, 9.792-21.76, 4.629-31.275
			L 68.907,282.197c-3.243-10.347-14.699-18.816-25.536-18.816l-23.659,0.021C 8.875,263.403,0.00,254.528,0.00,243.691l0.00-39.381 
			c0.00-10.816, 8.875-19.691, 19.712-19.691l 23.659,0.00 c 10.837-0.021, 22.293-8.491, 25.493-18.837l 13.589-32.981c 5.141-9.536, 3.051-23.659-4.629-31.296
			l-16.747-16.747c-7.659-7.659-7.659-20.181,0.00-27.883l 27.883-27.861c 7.659-7.659, 20.16-7.659, 27.84,0.00l 16.789,16.747
			c 7.637,7.637, 21.717,9.728, 31.211,4.587l 33.045-13.589c 10.325-3.20, 18.795-14.677, 18.795-25.515l0.00-23.573 c0.00-10.816, 8.875-19.691, 19.712-19.691
			l 39.381,0.00 c 10.859,0.00, 19.733,8.875, 19.733,19.691l0.00,23.573 c0.00,10.837, 8.469,22.315, 18.816,25.515l 33.024,13.589c 9.515,5.141, 23.595,3.072, 31.296-4.587
			l 16.704-16.747c 7.637-7.659, 20.181-7.659, 27.819,0.00l 27.925,27.861c 7.659,7.68, 7.659,20.203,0.00,27.883l-16.789,16.747
			c-7.616,7.616-9.707,21.76-4.629,31.296l 13.589,32.981c 3.20,10.325, 14.763,18.816, 25.536,18.816l 23.616,0.00 c 10.837,0.00, 19.669,8.853, 19.669,19.691
			l0.00,39.424 C 512.00,254.528, 503.168,263.403, 492.331,263.403z M 354.56,224.021c0.00-54.40-44.096-98.453-98.475-98.453c-54.421,0.00-98.496,44.053-98.496,98.453
			c0.00,54.379, 44.075,98.453, 98.496,98.453C 310.464,322.496, 354.56,278.40, 354.56,224.021z" />
<glyph unicode="&#xe010;" d="M 499.52,40.832l-122.496,122.539c-1.408,1.387-3.008,2.496-4.501,3.669c 20.693,31.765, 32.789,69.589, 32.789,110.315
		c0.00,111.936-90.688,202.667-202.667,202.667c-111.915,0.00-202.667-90.731-202.667-202.667c0.00-111.957, 90.752-202.667, 202.667-202.667c 40.704,0.00, 78.592,12.117, 110.379,32.811
		c 1.173-1.515, 2.24-3.072, 3.627-4.459l 122.496-122.539C 447.509-27.84, 458.432-32.00, 469.312-32.00c 10.923,0.00, 21.824,4.16, 30.208,12.48
		C 516.139-2.837, 516.139,24.171, 499.52,40.832z M 202.645,138.709c-76.459,0.00-138.667,62.208-138.667,138.667c0.00,76.459, 62.208,138.667, 138.667,138.667
		c 76.416,0.00, 138.667-62.208, 138.667-138.667C 341.312,200.917, 279.061,138.709, 202.645,138.709z" horiz-adv-x="512.0426839192708" />
<glyph unicode="&#xe011;" d="M 469.333,234.667c-17.685,0.00-32.00-14.315-32.00-32.00c0.00-99.989-81.344-181.333-181.333-181.333c-99.989,0.00-181.333,81.344-181.333,181.333c0.00,99.989, 81.344,181.333, 181.333,181.333l0.00,0.00 L 256.00,330.667 
		l 128.00,85.333l-128.00,85.333l0.00-53.333 l0.00,0.00 C 120.725,448.00, 10.667,337.963, 10.667,202.667c0.00-135.275, 110.059-245.333, 245.333-245.333c 135.275,0.00, 245.333,110.059, 245.333,245.333
		C 501.333,220.352, 486.997,234.667, 469.333,234.667z" horiz-adv-x="512.0213216145833" />
<glyph unicode="&#xe012;" d="M 78.741,127.979l 213.333,0.00 c0.00,0.00-0.789,26.261-1.856,29.184
			c-1.152,2.901-0.64,7.147-5.568,10.411c-4.928,3.221-5.269,2.923-16.96,8.619c-6.613,3.115-13.504,5.611-20.331,8.149
			c-6.251,2.411-12.523,4.651-18.752,7.125c-4.181,1.685-7.104,4.821-10.133,8.064c-1.109,1.173-2.304,2.453-3.072,3.84
			c-0.981,1.92-0.555,3.627-3.349,3.179c-2.88-0.384-2.048,5.291-2.048,5.291s 3.477,2.133, 4.565,5.589
			c 0.939,3.264, 2.688,16.149, 2.688,16.149s 1.899-0.405, 3.477,0.768c 1.771,1.131, 4.139,4.416, 6.037,24.96
			c 0.32,4.245-2.219,2.283-2.219,2.368c-1.131,5.568, 2.859,9.344, 1.408,29.376c-0.277,3.84-0.96,7.552-3.115,10.816
			c-1.941,3.008-3.584,6.144-5.675,9.003c-1.387,1.941-3.307,3.883-5.397,5.184C 202.048,322.048, 190.677,325.163, 179.221,324.907
			C 176.768,324.885, 174.613,324.288, 172.245,323.52c-5.248-1.835-4.757-1.835-7.253-3.264C 163.392,319.317, 162.155,318.443, 161.067,317.013
			C 160.107,315.712, 159.339,314.517, 157.589,314.475C 149.632,314.176, 148.373,306.453, 145.941,300.331C 144.043,296.085, 143.744,292.864, 144.043,290.453
			C 144.363,287.787, 144.811,286.315, 145.408,280.917c 0.448-3.904, 0.448-7.915, 0.853-11.925c 0.171-1.344, 0.853-2.603, 1.067-3.925
			c 0.448-2.624-1.088-1.131-1.92-2.88c-0.597-1.728,0.00-10.901, 1.131-14.784c 1.131-4.075, 1.259-9.771, 3.008-11.563
			c 1.792-2.048, 2.091-0.768, 4.011-1.493c 1.749-0.768,0.00,0.341, 1.429-3.627c 1.259-3.861, 0.768-7.317, 2.048-11.819
			c 1.728-6.656, 4.736-4.139, 5.547-7.659c 0.597-3.648-0.661-3.648-0.661-3.648s-2.987,0.384-4.587-0.597
			c-2.027-1.301-3.285-5.184-4.331-7.253c-1.152-2.197-2.133-5.248-4.523-6.549c-5.845-2.965-12.587-4.715-18.752-7.125
			c-5.675-2.112-11.349-4.117-16.96-6.421c-1.813-0.725-3.648-1.429-5.376-2.283c-4.907-2.667-13.461-5.12-17.749-8.043
			c-4.139-2.901-9.045-8.512-9.045-12.16C 80.597,153.387, 78.741,127.979, 78.741,127.979M 295.381,315.093c0.00-5.44, 4.416-9.856, 9.856-9.856l 118.165,0.00 
			c 5.44,0.00, 9.835,4.416, 9.835,9.856l0.00,0.00c0.00,5.44-4.416,9.856-9.835,9.856l-118.165,0.00 C 299.776,324.928, 295.381,320.512, 295.381,315.093L 295.381,315.093
			zM 295.381,275.691c0.00-5.44, 4.416-9.835, 9.856-9.835l 118.165,0.00 
			c 5.44,0.00, 9.835,4.395, 9.835,9.835l0.00,0.00c0.00,5.461-4.416,9.856-9.835,9.856l-118.165,0.00 C 299.776,285.547, 295.381,281.152, 295.381,275.691
			L 295.381,275.691zM 295.381,236.309c0.00-5.461, 4.416-9.856, 9.856-9.856l 118.165,0.00 
			c 5.44,0.00, 9.835,4.395, 9.835,9.856l0.00,0.00c0.00,5.44-4.416,9.835-9.835,9.835l-118.165,0.00 C 299.776,246.144, 295.381,241.749, 295.381,236.309
			L 295.381,236.309zM 334.763,196.907c0.00-5.44, 4.416-9.856, 9.835-9.856l 78.784,0.00 
			c 5.44,0.00, 9.835,4.416, 9.835,9.856l0.00,0.00c0.00,5.44-4.416,9.856-9.835,9.856l-78.784,0.00 C 339.179,206.763, 334.763,202.347, 334.763,196.907
			L 334.763,196.907zM 472.64,403.712l-157.568,0.00 l0.00-39.403 l 157.568,0.00 l0.00-275.733 L 39.339,88.576 L 39.339,364.309 L 196.907,364.309 L 196.907,403.712 L 39.339,403.712 c-21.76,0.00-39.381-17.621-39.381-39.403l0.00-275.733 
			c0.00-21.76, 17.643-39.381, 39.381-39.381l 433.301,0.00 c 21.76,0.00, 39.381,17.621, 39.381,39.381L 512.021,364.309 C 512.021,386.091, 494.379,403.712, 472.64,403.712zM 275.691,462.784l-39.403,0.00 c-10.88,0.00-19.691-8.811-19.691-19.691l0.00-78.784 c0.00-10.88, 8.811-19.691, 19.691-19.691l 39.403,0.00 
			c 10.88,0.00, 19.691,8.811, 19.691,19.691L 295.381,443.115 C 295.381,453.973, 286.571,462.784, 275.691,462.784z M 256.00,364.309c-10.88,0.00-19.691,8.811-19.691,19.712
			c0.00,10.88, 8.832,19.691, 19.691,19.691s 19.691-8.811, 19.691-19.691C 275.691,373.12, 266.859,364.309, 256.00,364.309z" horiz-adv-x="512.0213216145833" />
<glyph unicode="&#xe013;" d="M 319.979,437.333L 426.645,330.667L 319.979,330.667 		zM 469.312,181.333l-42.667,0.00 L 426.645,309.333 l-128.00,0.00 L 298.645,437.333 l-213.333,0.00 l0.00-256.00 l-42.667,0.00 c-23.467,0.00-42.667-19.20-42.667-42.667l0.00-106.667 c0.00-23.467, 19.20-42.667, 42.667-42.667l 426.667,0.00 c 23.467,0.00, 42.667,19.20, 42.667,42.667l0.00,106.667 
			C 511.979,162.133, 492.779,181.333, 469.312,181.333z M 138.645,394.667l 106.667,0.00 c 5.888,0.00, 10.667-4.779, 10.667-10.667S 251.20,373.333, 245.312,373.333l-106.667,0.00 c-5.888,0.00-10.667,4.779-10.667,10.667
			S 132.757,394.667, 138.645,394.667z M 138.645,330.667l 106.667,0.00 c 5.888,0.00, 10.667-4.779, 10.667-10.667S 251.20,309.333, 245.312,309.333l-106.667,0.00 c-5.888,0.00-10.667,4.779-10.667,10.667S 132.757,330.667, 138.645,330.667z
			 M 138.645,266.667l 234.667,0.00 c 5.888,0.00, 10.667-4.779, 10.667-10.667s-4.779-10.667-10.667-10.667l-234.667,0.00 c-5.888,0.00-10.667,4.779-10.667,10.667S 132.757,266.667, 138.645,266.667z M 437.312,74.667
			c-17.664,0.00-32.00,14.336-32.00,32.00s 14.336,32.00, 32.00,32.00s 32.00-14.336, 32.00-32.00S 454.976,74.667, 437.312,74.667z" horiz-adv-x="512.0213216145833" />
<glyph unicode="&#xe014;" d="M 490.667,117.333l0.00,42.667 l-192.00,128.00L 298.667,437.333 c0.00,0.00,0.00,42.667-42.667,42.667s-42.667-42.667-42.667-42.667l0.00-149.333 l-192.00-128.00l0.00-42.667 l 192.00,64.00l0.00-119.467 L 149.333,10.667l0.00-42.667 l 106.667,42.667l 106.667-42.667l0.00,42.667 l-64.00,51.20L 298.667,181.333 L 490.667,117.333z" horiz-adv-x="512.0853271484375" />
<glyph unicode="&#xe015;" d="M 106.667,394.667l0.00-426.667 l 384.00,0.00 L 490.667,394.667 L 106.667,394.667 z M 448.00,74.688L 149.333,74.688 L 149.333,352.00 l 298.667,0.00 L 448.00,74.688 zM 85.333,160.021L 64.00,160.021L 64.00,437.333L 362.667,437.333L 362.667,416.00L 405.333,416.00L 405.333,480.00L 21.333,480.00L 21.333,53.333L 85.333,53.333 		z" horiz-adv-x="512.0213216145833" />
<glyph unicode="&#xe016;" d="M 42.667,352.021L 469.333,352.021L 469.333,10.688L 42.667,10.688zM0.00,394.688l0.00-426.667 l 512.00,0.00 l0.00,426.667 L0.00,394.688 z M 448.00,32.00L 64.00,32.00 L 64.00,330.667 l 384.00,0.00 L 448.00,32.00 zM 234.667,458.667A21.333,21.333 180.00 1,0 277.333,458.66700000000003A21.333,21.333 180.00 1,0 234.667,458.66700000000003zM 146.219,355.136L 131.115,370.219L 248.448,487.552L 263.552,472.469L 146.219,355.136 	zM 365.781,355.136L 248.448,472.469L 263.552,487.552L 380.885,370.219L 365.781,355.136 	z" horiz-adv-x="512.0213216145833" />
<glyph unicode="&#xe017;" d="M 42.688,96.00L 128.021,10.667L 0.021-32.00 		zM 405.355,458.667L 490.688,373.333L 416.021,298.645L 330.688,383.979zM 128.043,10.667L 42.709,96.00L 309.376,362.667L 394.709,277.312zM 309.376,362.645L 330.688,383.979L 416.021,298.645L 394.709,277.312z" horiz-adv-x="512.0853271484375" />
<glyph unicode="&#xe018;" d="M 85.333,480.00l0.00-512.00 l0.00,0.00 l 56.661,64.00l 56.64-64.00l 16.363,0.00 l 53.333,64.00l 53.333-64.00L 341.333-32.00 l 53.333,64.00l 53.333-64.00l0.00,0.00 L 448.00,480.00 L 85.333,480.00 z M 117.333,96.00
		C 111.445,96.00, 106.667,100.779, 106.667,106.667S 111.445,117.333, 117.333,117.333S 128.00,112.555, 128.00,106.667S 123.221,96.00, 117.333,96.00z M 160.00,96.00C 154.112,96.00, 149.333,100.779, 149.333,106.667S 154.112,117.333, 160.00,117.333
		S 170.667,112.555, 170.667,106.667S 165.888,96.00, 160.00,96.00z M 202.667,96.00C 196.779,96.00, 192.00,100.779, 192.00,106.667S 196.779,117.333, 202.667,117.333s 10.667-4.779, 10.667-10.667S 208.555,96.00, 202.667,96.00z M 245.333,96.00
		c-5.888,0.00-10.667,4.779-10.667,10.667s 4.779,10.667, 10.667,10.667s 10.667-4.779, 10.667-10.667S 251.221,96.00, 245.333,96.00z M 288.00,96.00c-5.888,0.00-10.667,4.779-10.667,10.667
		s 4.779,10.667, 10.667,10.667s 10.667-4.779, 10.667-10.667S 293.888,96.00, 288.00,96.00z M 330.667,96.00c-5.888,0.00-10.667,4.779-10.667,10.667s 4.779,10.667, 10.667,10.667
		s 10.667-4.779, 10.667-10.667S 336.555,96.00, 330.667,96.00z M 341.333,181.333L 160.00,181.333 C 154.112,181.333, 149.333,186.112, 149.333,192.00S 154.112,202.667, 160.00,202.667L 341.333,202.667 c 5.888,0.00, 10.667-4.779, 10.667-10.667
		S 347.221,181.333, 341.333,181.333z M 373.333,96.00c-5.888,0.00-10.667,4.779-10.667,10.667s 4.779,10.667, 10.667,10.667s 10.667-4.779, 10.667-10.667S 379.221,96.00, 373.333,96.00z M 373.333,224.00l-213.333,0.00 
		C 154.112,224.00, 149.333,228.779, 149.333,234.667S 154.112,245.333, 160.00,245.333l 213.333,0.00 c 5.888,0.00, 10.667-4.779, 10.667-10.667S 379.221,224.00, 373.333,224.00z M 149.333,277.333C 149.333,283.221, 154.112,288.00, 160.00,288.00L 341.333,288.00 
		c 5.888,0.00, 10.667-4.779, 10.667-10.667S 347.221,266.667, 341.333,266.667L 160.00,266.667 C 154.112,266.667, 149.333,271.445, 149.333,277.333z M 373.333,309.333l-213.333,0.00 C 154.112,309.333, 149.333,314.112, 149.333,320.00S 154.112,330.667, 160.00,330.667l 213.333,0.00 
		C 379.221,330.667, 384.00,325.888, 384.00,320.00S 379.221,309.333, 373.333,309.333z M 149.333,362.667C 149.333,368.555, 154.112,373.333, 160.00,373.333L 341.333,373.333 c 5.888,0.00, 10.667-4.779, 10.667-10.667S 347.221,352.00, 341.333,352.00L 160.00,352.00 
		C 154.112,352.00, 149.333,356.779, 149.333,362.667z M 373.333,394.667l-213.333,0.00 C 154.112,394.667, 149.333,399.445, 149.333,405.333S 154.112,416.00, 160.00,416.00l 213.333,0.00 C 379.221,416.00, 384.00,411.221, 384.00,405.333S 379.221,394.667, 373.333,394.667z M 416.00,96.00
		c-5.888,0.00-10.667,4.779-10.667,10.667s 4.779,10.667, 10.667,10.667s 10.667-4.779, 10.667-10.667S 421.888,96.00, 416.00,96.00z" horiz-adv-x="512.0213216145833" />
<glyph unicode="&#xe019;" d="M 157.547,86.955L-0.021,27.883L-0.021,382.336L 157.547,441.451 		zM 512.043,86.955L 354.475,27.883L 354.475,382.336L 512.043,441.451 		zM 177.237,86.955L 334.784,27.883L 334.784,382.336L 177.237,441.451 		z" horiz-adv-x="512.0213216145833" />
<glyph unicode="&#xe01a;" d="M 412.459,321.771c0.00,86.40-70.016,156.459-156.459,156.459c-86.40,0.00-156.459-70.059-156.459-156.459c0.00-28.523, 7.787-55.189, 21.12-78.229L 120.469,243.541 
		L 256.00-30.251l 135.573,273.792l-0.213,0.00 C 404.779,266.603, 412.459,293.248, 412.459,321.771z M 256.064,243.563c-43.221,0.00-78.229,35.029-78.229,78.229
		c0.00,43.20, 35.008,78.229, 78.229,78.229c 43.179,0.00, 78.229-35.029, 78.229-78.229C 334.293,278.613, 299.243,243.563, 256.064,243.563z" horiz-adv-x="512.0853271484375" />
<glyph unicode="&#xe01b;" d="M 384.032,330.654c0.00,58.928-47.769,106.676-106.676,106.676S 170.681,389.582, 170.681,330.654c0.00-51.631, 36.654-94.643, 85.34-104.499l0.00-215.485 L 298.692,10.628l0.00,215.527C 347.378,236.012, 384.032,279.023, 384.032,330.654z
			 M 213.351,362.657C 213.351,380.322, 227.667,394.66, 245.354,394.66S 277.356,380.322, 277.356,362.657S 263.019,330.654, 245.354,330.654S 213.351,344.991, 213.351,362.657zM 213.351,32.005A64.005,21.378 180.00 1,0 341.362,32.004999999999995A64.005,21.378 180.00 1,0 213.351,32.004999999999995z" horiz-adv-x="512.0640108702503" />
<glyph unicode="&#xe01c;" d="M 256.00,216.555l 238.464,198.656C 493.227,415.467, 492.053,416.00, 490.667,416.00L 21.333,416.00 C 20.053,416.00, 18.88,415.467, 17.579,415.211L 256.00,216.555zM 512.00,394.667c0.00,2.24-0.619,4.309-1.259,6.357l-169.088-140.885l 169.344-169.344C 511.445,92.501, 512.00,94.165, 512.00,96.00L 512.00,394.667 zM 1.323,401.024C 0.683,398.997,0.00,396.928,0.00,394.667l0.00-298.667 c0.00-1.856, 0.619-3.499, 1.088-5.205l 169.344,169.344L 1.323,401.024zM 325.227,246.40l-62.40-51.947C 260.885,192.811, 258.453,192.00, 256.00,192.00c-2.411,0.00-4.843,0.811-6.763,2.475L 186.88,246.379l-170.709-170.667
			C 17.877,75.264, 19.541,74.667, 21.333,74.667l 469.333,0.00 c 1.877,0.00, 3.541,0.597, 5.248,1.067L 325.227,246.40z" horiz-adv-x="512.0853271484375" />
<glyph unicode="&#xe01d;" d="M 405.35,266.658L 405.35,330.682 c0.00,0.00-0.021,149.34-149.34,149.34s-149.34-149.34-149.34-149.34L 106.671,266.658 L 42.668,266.658 l0.00-298.679 l 426.684,0.00 L 469.353,266.658 L 405.35,266.658 z M 277.345,101.894L 277.345,31.981 l-42.668,0.00 l0.00,69.912 c-12.694,7.403-21.334,20.993-21.334,36.759
			c0.00,23.553, 19.115,42.668, 42.668,42.668s 42.668-19.115, 42.668-42.668C 298.679,122.908, 290.06,109.297, 277.345,101.894z M 341.348,266.658L 170.674,266.658 L 170.674,330.66 c 0.235,17.857-0.021,85.337, 85.337,85.337s 85.102-67.757, 85.337-85.337L 341.348,266.658 z" horiz-adv-x="512.0426450050658" />
<glyph unicode="&#xe01e;" d="M 256.021,437.33C 138.209,437.33, 42.67,341.77, 42.67,223.979c0.00-117.834, 95.517-213.351, 213.351-213.351c 117.812,0.00, 213.351,95.517, 213.351,213.351C 469.372,341.77, 373.855,437.33, 256.021,437.33z M 277.356,54.791L 277.356,117.303 l-42.67,0.00 l0.00-62.512 
			C 157.645,64.413, 96.499,125.602, 86.834,202.644L 149.346,202.644 l0.00,42.67 L 86.834,245.314 C 96.499,322.355, 157.645,383.501, 234.686,393.209L 234.686,330.654 l 42.67,0.00 L 277.356,393.209 c 77.041-9.707, 138.188-70.833, 147.874-147.895L 362.697,245.314 
			l0.00-42.67 l 62.533,0.00 C 415.565,125.602, 354.419,64.413, 277.356,54.791z" horiz-adv-x="512.0640108702503" />
<glyph unicode="&#xe01f;" d="M 512.00,480.00L0.00,224.00L 256.00,224.00L 256.00-32.00 	z" horiz-adv-x="512.0213216145833" />
<glyph unicode="&#xe020;" d="M 291.374,263.342L 486.035,68.702L 486.035,104.097L 256.00,334.111L 167.545,245.655L 291.374,121.783L 344.477,121.783L 344.477,68.702L 397.58,68.702L 397.58,15.599L 486.035,15.599L 486.035,33.285L 273.687,245.655 			zM 256.00,298.716L 238.313,281.029L 486.035,33.285L 486.035,68.702 			zM 67.419,434.215c-55.258-55.279-53.85-153.186-6.081-206.268c 52.292-58.074, 151.01-49.199, 206.289,6.081c 55.258,55.258, 61.317,150.989, 6.038,206.268
			C 218.408,495.553, 122.72,489.473, 67.419,434.215z M 140.982,316.424c-24.45,0.00-44.228,19.799-44.228,44.228c0.00,24.429, 19.799,44.228, 44.228,44.228
			c 24.429,0.00, 44.228-19.82, 44.228-44.228C 185.231,336.223, 165.411,316.424, 140.982,316.424z" horiz-adv-x="512.1280217405006" />
<glyph unicode="&#xe021;" d="M 405.333,117.333l0.00,42.667 c0.00,0.00-42.667,0.00-64.00,0.00s-21.333-21.333-21.333-21.333l-42.667,0.00 L 277.333,315.179 c 37.248,13.227, 64.00,48.384, 64.00,90.133C 341.333,458.347, 298.368,501.333, 245.419,501.333C 192.341,501.333, 149.333,458.347, 149.333,405.333
			c0.00-41.749, 26.837-76.885, 64.064-90.112L 213.397-21.333 c0.00-17.60, 14.40-32.00, 31.936-32.00c 17.664,0.00, 32.00,14.40, 32.00,32.00L 277.333,32.00 l 42.667,0.00 c0.00,0.00,0.00-21.333, 21.333-21.333s 64.00,0.00, 64.00,0.00l0.00,42.667 l-42.667,0.00 l0.00,64.00 
			L 405.333,117.333 z M 245.333,437.333C 262.997,437.333, 277.333,423.019, 277.333,405.333S 262.997,373.333, 245.333,373.333C 227.712,373.333, 213.333,387.648, 213.333,405.333S 227.712,437.333, 245.333,437.333z" horiz-adv-x="512.0853271484375" />
<glyph unicode="&#xe022;" d="M 349.845,480.00L 162.155,480.00 c-23.467,0.00-42.667-19.20-42.667-42.667l0.00-426.667 c0.00-23.467, 19.20-42.667, 42.667-42.667l 187.712,0.00 c 23.467,0.00, 42.667,19.20, 42.667,42.667L 392.533,437.333 C 392.512,460.80, 373.333,480.00, 349.845,480.00z M 230.421,445.867
			L 281.60,445.867 c 4.715,0.00, 8.533-3.819, 8.533-8.533s-3.819-8.533-8.533-8.533l-51.179,0.00 c-4.715,0.00-8.533,3.819-8.533,8.533S 225.707,445.867, 230.421,445.867z M 256.00-14.933
			c-14.144,0.00-25.60,11.456-25.60,25.60s 11.456,25.60, 25.60,25.60c 14.165,0.00, 25.60-11.456, 25.60-25.60S 270.165-14.933, 256.00-14.933z M 375.488,53.333L 136.555,53.333 L 136.555,394.667 l 238.912,0.00 L 375.467,53.333 z" horiz-adv-x="512.0213216145833" />
<glyph unicode="&#xe023;" d="M 91.413,443.435L 420.565,443.435L 420.565,22.848L 91.413,22.848zM 402.283,480.00L 109.717,480.00 C 79.552,480.00, 54.848,455.317, 54.848,425.152l0.00-402.283 C 54.848-7.317, 79.552-32.00, 109.717-32.00l 292.565,0.00 
			c 30.165,0.00, 54.848,24.683, 54.848,54.848L 457.131,425.152 C 457.152,455.317, 432.448,480.00, 402.283,480.00z M 256.00-13.717c-10.112,0.00-18.283,8.171-18.283,18.261
			c0.00,10.133, 8.171,18.283, 18.283,18.283s 18.283-8.171, 18.283-18.283C 274.283-5.547, 266.112-13.717, 256.00-13.717z M 402.283,41.152L 109.696,41.152 l0.00,384.00 
			l 292.587,0.00 L 402.283,41.152 z" horiz-adv-x="512.0640055338541" />
<glyph unicode="&#xe024;" d="M 426.684,288.013L 426.684,437.353L 341.348,437.353L 341.348,373.35L 256.011,458.687L 21.334,224.032L 64.003,224.032L 64.003-10.666L 192.008-10.666L 192.008,181.342L 320.013,181.342L 320.013-10.666L 448.019-10.666L 448.019,224.032L 490.687,224.032 		zM 213.342,159.987L 298.679,159.987L 298.679-10.687L 213.342-10.687z" horiz-adv-x="512.0426450050658" />
<glyph unicode="&#xe025;" d="M 256.00,371.499c-85.333,128.00-256.00,53.077-256.00-86.357c0.00-94.336, 85.248-161.60, 149.333-212.309
		c 66.667-52.715, 85.333-64.00, 106.667-85.333c 21.333,21.333, 39.168,33.749, 106.667,85.333c 65.045,49.664, 149.333,119.019, 149.333,213.333C 512.00,424.555, 341.333,499.477, 256.00,371.499z" horiz-adv-x="512.0853271484375" />
<glyph unicode="&#xe026;" d="M 213.333,330.624L 256.00,330.624L 256.00,159.957L 213.333,159.957zM 213.333,138.624L 256.00,138.624L 256.00-53.355L 213.333-53.355zM 490.667,405.312L 426.667,351.979L 42.667,351.979L 42.667,458.645L 426.667,458.645 		zM 21.333,213.312L 85.333,266.645L 469.333,266.645L 469.333,159.979L 85.333,159.979 		zM 213.333,543.979L 256.00,543.979L 256.00,351.957L 213.333,351.957z" horiz-adv-x="512.0853271484375" />
<glyph unicode="&#xe027;" d="M 448.00,373.312c0.00,0.00-127.915,21.333-213.333,21.333c-85.333,0.00-128.00,42.667-128.00,42.667l0.00,42.667 L 64.00,479.979 l0.00-512.00 l 42.667,0.00 l0.00,256.00 c0.00,0.00, 42.667-42.667, 128.00-42.667s 213.333-21.333, 213.333-21.333l-64.00,106.667L 448.00,373.312z" horiz-adv-x="512.0853271484375" />
<glyph unicode="&#xe028;" d="M 426.688,458.667l-341.333,0.00 c-35.349,0.00-64.00-28.651-64.00-64.00l0.00-341.333 c0.00-35.349, 28.651-64.00, 64.00-64.00l 341.333,0.00 c 35.349,0.00, 64.00,28.651, 64.00,64.00L 490.688,394.667 C 490.688,430.016, 462.037,458.667, 426.688,458.667z
		 M 423.744,204.544l-64.469,0.00 L 359.275,32.00 l-65.685,0.00 l0.00,172.544 l-45.632,0.00 L 247.957,266.667 l 45.632,0.00 c0.00,0.00,0.00,25.451,0.00,53.056c0.00,41.707, 26.965,80.00, 89.045,80.00
		c 25.152,0.00, 43.755-2.411, 43.755-2.411l-1.472-58.027c0.00,0.00-18.965,0.192-39.637,0.192c-22.40,0.00-25.984-10.325-25.984-27.456
		c0.00-2.539,0.00-3.115,0.00-2.859c0.00-4.693,0.00-16.213,0.00-42.496l 67.413,0.00 L 423.744,204.544z" horiz-adv-x="512.0853271484375" />
<glyph unicode="&#xe029;" d="M 213.333,224.00A42.667,42.667 180.00 1,0 298.667,224A42.667,42.667 180.00 1,0 213.333,224zM 256.00,394.667C 114.624,394.667,0.00,224.00,0.00,224.00s 114.624-170.667, 256.00-170.667c 141.376,0.00, 256.00,170.667, 256.00,170.667S 397.376,394.667, 256.00,394.667z M 256.00,117.333c-58.901,0.00-106.667,47.765-106.667,106.667c0.00,58.901, 47.765,106.667, 106.667,106.667
			c 58.901,0.00, 106.667-47.765, 106.667-106.667C 362.667,165.099, 314.901,117.333, 256.00,117.333z" horiz-adv-x="512.0213216145833" />
<glyph unicode="&#xe02a;" d="M 298.667,288.00L 298.667,480.00L 213.333,480.00L 213.333,288.00L 149.397,288.00L 256.064,160.00L 362.667,288.00 		zM 397.76,437.333L 341.333,437.333L 341.333,394.667L 370.283,394.667L 467.264,181.333L 351.296,181.333L 308.629,117.333L 203.456,117.333L 160.789,181.333L 44.80,181.333L 141.76,394.667L 170.667,394.667L 170.667,437.333L 114.283,437.333L0.00,185.941L0.00-32.00L 512.00-32.00L 512.00,185.941 		z" horiz-adv-x="512.0853271484375" />
<glyph unicode="&#xe02b;" d="M 70.677,8.491c-2.709,0.00-5.419,0.789-7.808,2.475c-8.064,5.675-15.659,12.565-22.528,20.501
				c-4.907,5.675-4.309,14.251, 1.365,19.157c 5.696,4.928, 14.272,4.309, 19.179-1.365c 5.419-6.251, 11.328-11.648, 17.60-16.043
				c 6.144-4.309, 7.616-12.80, 3.307-18.965C 79.168,10.517, 74.965,8.491, 70.677,8.491z M 286.037,13.653c-7.701,0.00-15.125,1.003-22.059,2.944
				c-7.232,2.048-11.435,9.557-9.387,16.789c 2.027,7.232, 9.557,11.371, 16.768,9.387c 6.528-1.835, 13.781-2.347, 21.888-1.536
				c 7.595,0.683, 14.144-4.736, 14.891-12.203c 0.725-7.467-4.736-14.123-12.203-14.869C 292.523,13.824, 289.237,13.653, 286.037,13.653z
				 M 343.765,35.371c-3.947,0.00-7.851,1.707-10.539,4.992c-4.757,5.803-3.904,14.379, 1.92,19.136c 6.272,5.099, 11.925,10.923, 16.832,17.259
				c 4.608,5.888, 13.12,6.997, 19.093,2.389c 5.909-4.608, 7.019-13.141, 2.389-19.093c-6.144-7.936-13.248-15.232-21.099-21.653
				C 349.824,36.395, 346.773,35.371, 343.765,35.371z M 226.453,49.515c-4.437,0.00-8.789,2.155-11.392,6.144
				c-4.693,7.189-9.152,15.275-13.995,25.429c-3.221,6.763-0.341,14.869, 6.421,18.133c 6.784,3.179, 14.891,0.363, 18.133-6.443
				c 4.245-8.917, 8.235-16.192, 12.181-22.229c 4.117-6.293, 2.347-14.699-3.947-18.837C 231.595,50.219, 229.013,49.515, 226.453,49.515z
				 M 24.32,73.984c-5.76,0.00-11.115,3.712-12.949,9.493c-3.179,10.027-5.184,20.011-5.909,29.717c-0.555,7.488, 5.035,14.016, 12.523,14.592
				c 7.573,0.533, 14.016-5.035, 14.592-12.523c 0.576-7.595, 2.176-15.531, 4.715-23.552c 2.261-7.168-1.685-14.805-8.853-17.088
				C 27.093,74.197, 25.707,73.984, 24.32,73.984z M 380.715,104.917c-7.317,0.00-13.376,5.824-13.589,13.184c-0.128,4.139-0.64,7.701-1.237,11.989
				c-0.533,3.968-1.173,8.427-1.728,14.144c-0.683,7.488, 4.821,14.123, 12.267,14.805c 7.552,0.725, 14.123-4.821, 14.827-12.267
				c 0.469-5.227, 1.067-9.323, 1.557-12.928c 0.747-5.333, 1.323-9.771, 1.493-14.912c 0.213-7.531-5.717-13.781-13.205-13.995
				C 380.992,104.917, 380.843,104.917, 380.715,104.917z M 191.104,123.029c-5.013,0.00-9.835,2.795-12.203,7.573
				c-4.373,8.853-8.448,15.765-12.523,21.141c-4.544,5.973-3.371,14.507, 2.624,19.051c 5.973,4.544, 14.528,3.349, 19.051-2.603
				c 5.227-6.869, 10.069-14.997, 15.275-25.557c 3.328-6.72, 0.533-14.891-6.187-18.219C 195.157,123.477, 193.109,123.029, 191.104,123.029z
				 M 33.323,151.744c-2.88,0.00-5.781,0.917-8.256,2.795c-5.973,4.565-7.104,13.099-2.539,19.072c 6.443,8.448, 14.357,15.659, 23.531,21.44
				c 6.336,4.032, 14.741,2.155, 18.752-4.203c 4.011-6.336, 2.133-14.741-4.224-18.773c-6.443-4.053-11.989-9.109-16.469-14.976
				C 41.451,153.579, 37.397,151.744, 33.323,151.744z M 131.712,174.933c-1.536,0.00-3.093,0.256-4.587,0.789c-7.531,2.688-14.933,4.715-20.821,5.653
				l-2.496,0.341c-7.467,0.896-12.80,7.637-11.925,15.104c 0.896,7.467, 7.701,12.757, 15.104,11.925c 1.195-0.149, 2.368-0.32, 3.563-0.491
				c 7.659-1.216, 16.555-3.605, 25.771-6.891c 7.083-2.539, 10.752-10.304, 8.213-17.387C 142.528,178.368, 137.301,174.933, 131.712,174.933zM 511.253,360.235c-10.517-77.995-58.709-123.584-147.797-134.016c-89.045-10.347-155.776-6.869-174.677,96.384
			c-18.901,103.232, 58.752,123.627, 147.819,133.995C 425.643,466.965, 521.771,438.272, 511.253,360.235zM 403.669,325.675l-27.20,16.277l 20.523,25.856c 4.011,5.013, 3.115,12.288-1.877,16.299c-4.992,4.011-12.288,3.157-16.299-1.856
			l-22.443-28.288l-39.765,23.808c-5.547,3.264-12.608,1.472-15.915-3.989c-3.285-5.504-1.493-12.629, 4.011-15.915l 37.141-22.251l-22.827-28.779
			c-4.011-5.013-3.136-12.288, 1.856-16.277c 1.685-1.365, 3.648-2.155, 5.632-2.432c 3.904-0.512, 8.00,0.96, 10.667,4.288l 24.725,31.211
			l 29.845-17.877c 1.387-0.811, 2.88-1.323, 4.373-1.515c 4.48-0.597, 9.088,1.408, 11.541,5.525C 410.965,315.243, 409.173,322.368, 403.669,325.675zM 343.317,188.843c-7.467-0.533-10.795,4.48-7.424,11.136l 28.309,55.957c 3.371,6.677, 9.643,7.125, 13.952,1.003l 36.032-51.285
			c 4.309-6.123, 1.728-11.584-5.739-12.117L 343.317,188.843z" horiz-adv-x="512.0426839192708" />
<glyph unicode="&#xe02c;" d="M 449.493,346.389c 7.723-7.381, 16.789-12.437, 27.20-15.232l-178.347-181.995l-57.792-16.384l 14.827,58.56l 177.835,181.76
				C 436.352,362.667, 441.771,353.792, 449.493,346.389zM 476.309,354.325c-4.928,2.197-9.301,4.672-12.992,8.427c-3.755,3.733-6.699,7.893-8.875,12.907s-3.243,10.283-3.243,16.00
				l 20.843,21.845c 1.557,1.365, 3.52,2.155, 5.845,2.411c 2.347,0.277, 4.949-0.085, 7.808-1.045c 2.88-0.939, 5.909-2.389, 9.131-4.309
				s 6.293-4.352, 9.259-7.275l 0.747-1.045c 2.987-2.816, 5.419-5.696, 7.467-8.747c 1.963-3.051, 3.456-5.973, 4.416-8.832
				c 0.939-2.88, 1.323-5.525, 1.173-7.936c-0.171-2.453-1.045-3.435-2.603-4.821L 495.189,352.00l-3.115,0.00 C 486.528,352.00, 481.28,352.171, 476.309,354.325z
				M 384.00,160.00l0.00-64.00 c0.00-11.776-9.557-21.333-21.333-21.333L 106.667,74.667 c-11.776,0.00-21.333,9.557-21.333,21.333L 85.333,352.00 c0.00,11.776, 9.557,21.333, 21.333,21.333l 256.00,0.00 c 6.912,0.00, 12.779-3.52, 16.683-8.619
			l 30.379,30.379C 398.016,407.851, 381.355,416.00, 362.667,416.00L 106.667,416.00 C 71.317,416.00, 42.667,387.349, 42.667,352.00l0.00-256.00 c0.00-35.349, 28.651-64.00, 64.00-64.00l 256.00,0.00 c 35.349,0.00, 64.00,28.651, 64.00,64.00l0.00,106.667 L 384.00,160.00z" horiz-adv-x="512.0640055338541" />
<glyph unicode="&#xe02d;" d="M 218.347,309.333c-24.597,0.00-53.333,8.384-53.333,32.00c0.00,19.413, 27.328,24.875, 61.909,31.787c 12.331,2.475, 31.296,6.251, 40.533,10.155
			c-12.501,4.523-41.173,8.619-61.291,11.499C 149.547,402.859, 122.347,407.595, 122.347,426.667c0.00,37.739, 149.525,53.333, 160.00,53.333c 5.888,0.00, 10.667-4.779, 10.667-10.667
			S 288.235,458.667, 282.347,458.667C 250.901,458.667, 165.973,441.173, 146.603,427.883C 158.293,423.147, 188.331,418.88, 209.195,415.893c 56.619-8.085, 83.819-12.821, 83.819-31.893
			c0.00-19.413-27.328-24.875-61.909-31.787c-14.549-2.901-38.272-7.659-44.459-12.245C 189.12,334.315, 206.528,330.667, 218.347,330.667c 5.888,0.00, 10.667-4.779, 10.667-10.667
			S 224.235,309.333, 218.347,309.333L 218.347,309.333zM 384.00,309.333l-384.00,0.00 l0.00-42.56 c0.00-0.043,0.00-0.064,0.00-0.107l0.00-213.333 c0.00-46.933, 38.40-85.333, 85.333-85.333l 213.333,0.00 c 46.933,0.00, 85.333,38.40, 85.333,85.333c 70.699,0.00, 128.00,57.323, 128.00,128.00
		C 512.00,252.011, 454.72,309.333, 384.00,309.333z M 384.00,117.333l0.00,128.00 c 35.285,0.00, 64.00-28.715, 64.00-64.00S 419.307,117.333, 384.00,117.333z" horiz-adv-x="512.0213216145833" />
<glyph unicode="&#xe02e;" d="M 256.021,458.667c-129.60,0.00-234.667-105.088-234.667-234.667s 105.067-234.667, 234.667-234.667s 234.667,105.088, 234.667,234.667S 385.621,458.667, 256.021,458.667z M 256.021,42.667
			c-99.989,0.00-181.333,81.344-181.333,181.333s 81.344,181.333, 181.333,181.333s 181.333-81.344, 181.333-181.333S 356.011,42.667, 256.021,42.667zM 338.88,306.859c-10.411,10.411-27.285,10.411-37.717,0.00l-45.141-45.141L 210.88,306.859c-10.411,10.411-27.285,10.411-37.717,0.00
			s-10.411-27.285,0.00-37.717L 218.304,224.00l-45.141-45.141c-10.411-10.411-10.411-27.285,0.00-37.717c 5.205-5.205, 12.011-7.808, 18.859-7.808
			s 13.653,2.603, 18.859,7.808l 45.141,45.141l 45.141-45.141c 5.205-5.205, 12.011-7.808, 18.859-7.808s 13.653,2.603, 18.859,7.808
			c 10.411,10.411, 10.411,27.285,0.00,37.717L 293.739,224.00l 45.141,45.141C 349.291,279.552, 349.291,296.448, 338.88,306.859z" horiz-adv-x="512.0853271484375" />
<glyph unicode="&#xe02f;" d="M 461.504,408.021c-10.411,10.709-27.243,10.624-37.589-0.149L 195.712,169.60l-78.357,66.859c-10.859,9.259-26.731,10.496-38.976,1.92
		c-14.912-10.411-18.859-31.424-8.768-46.869l 89.323-136.981c 3.115-4.736, 7.125-9.173, 11.84-12.715c 22.016-16.64, 52.885-11.605, 68.907,11.179
		l 2.048,2.901L 464.256,372.267C 471.872,383.083, 470.955,398.293, 461.504,408.021z" horiz-adv-x="512.0853271484375" />
<glyph unicode="&#xe030;" d="M 418.909,480.00L 139.636,480.00 C 62.86,480.00,0.00,417.164,0.00,340.364l0.00-93.091 c0.00-76.80, 62.86-139.636, 139.636-139.636l 23.273,0.00 l0.00-139.636 l 159.581,139.636L 418.909,107.636 c 76.823,0.00, 139.636,62.836, 139.636,139.636L 558.545,340.364 C 558.545,417.164, 495.732,480.00, 418.909,480.00z" horiz-adv-x="558.5454545454545" />
<glyph unicode="&#xe031;" d="M 418.839,480.00L 139.636,480.00 C 62.79,480.00,0.00,417.164,0.00,340.364l0.00-93.091 c0.00-76.80, 62.79-139.636, 139.636-139.636l 23.203,0.00 l0.00-139.636 l 159.581,139.636l 96.419,0.00 c 76.823,0.00, 139.636,62.836, 139.636,139.636L 558.476,340.364 
		C 558.476,417.164, 495.663,480.00, 418.839,480.00z M 139.567,247.273c-25.67,0.00-46.545,20.852-46.545,46.545s 20.876,46.545, 46.545,46.545c 25.74,0.00, 46.545-20.852, 46.545-46.545S 165.329,247.273, 139.567,247.273z M 279.203,247.273
		c-25.67,0.00-46.545,20.852-46.545,46.545s 20.876,46.545, 46.545,46.545c 25.74,0.00, 46.545-20.852, 46.545-46.545S 304.966,247.273, 279.203,247.273z M 418.839,247.273c-25.716,0.00-46.545,20.852-46.545,46.545s 20.829,46.545, 46.545,46.545
		c 25.74,0.00, 46.545-20.852, 46.545-46.545S 444.602,247.273, 418.839,247.273z" horiz-adv-x="558.475615530303" />
<glyph unicode="&#xe032;" d="M 499.157,90.56l-208.981,330.88c-18.795,29.781-49.557,29.781-68.352,0.00l-208.981-330.88C-5.952,60.80, 7.467,36.459, 42.667,36.459l 426.667,0.00 
		C 504.533,36.459, 517.952,60.80, 499.157,90.56z M 298.667,74.667l-85.333,0.00 l0.00,64.00 l 85.333,0.00 L 298.667,74.667 z M 298.667,266.667l-20.992-97.493l-43.968,0.00 L 213.333,266.667L 213.333,352.00 l 85.333,0.00 L 298.667,266.667 z" horiz-adv-x="512.0213216145833" />
<glyph unicode="&#xe033;" d="M 213.312,202.667A64.021,64.021 180.00 1,0 341.355,202.66699999999997A64.021,64.021 180.00 1,0 213.312,202.66699999999997zM 469.355,373.333L 213.312,373.333 c0.00,23.552-19.093,42.667-42.667,42.667l-42.667,0.00 c-23.552,0.00-42.624-19.115-42.667-42.667L 42.688,373.333 C 19.115,373.333,0.00,354.24,0.00,330.667l0.00,0.00l 42.645,0.00 
			c 23.573,0.00, 42.667-19.115, 42.667-42.667l0.00-170.667 c0.00-23.573-19.093-42.667-42.667-42.667L0.00,74.667 c0.00-23.573, 19.115-42.667, 42.667-42.667l 426.667,0.00 c 23.552,0.00, 42.667,19.093, 42.667,42.667L 512.00,330.667 C 512.021,354.24, 492.907,373.333, 469.355,373.333z
			 M 277.355,96.00c-58.923,0.00-106.667,47.744-106.667,106.709c0.00,58.923, 47.744,106.667, 106.667,106.667s 106.667-47.744, 106.667-106.667C 384.021,143.744, 336.277,96.00, 277.355,96.00z M 437.355,245.333
			c-17.728,0.00-32.00,14.336-32.00,32.00c0.00,17.621, 14.272,32.00, 32.00,32.00c 17.643,0.00, 32.00-14.379, 32.00-32.00C 469.355,259.669, 455.019,245.333, 437.355,245.333zM 405.355,277.333A32.00,32.00 180.00 1,0 469.355,277.33299999999997A32.00,32.00 180.00 1,0 405.355,277.33299999999997zM0.00,330.667L0.00,330.667L0.00,74.667L0.00,74.667zM 85.312,117.333L 85.312,288.00 c0.00,23.552-19.093,42.667-42.667,42.667L0.00,330.667 l0.00-256.00 l 42.645,0.00 C 66.219,74.667, 85.312,93.76, 85.312,117.333z" horiz-adv-x="512.0426839192708" />
<glyph unicode="&#xe034;" d="M 469.355,373.333l-128.00,0.00 c0.00,21.333-21.333,21.333-21.333,21.333s-106.667,0.00-128.00,0.00s-21.333-21.333-21.333-21.333l-128.00,0.00 c-23.552,0.00-42.667-19.115-42.667-42.667l0.00-256.00 c0.00-23.552, 19.115-42.667, 42.667-42.667l 426.667,0.00 c 23.552,0.00, 42.667,19.115, 42.667,42.667L 512.021,330.667 
		C 512.021,354.219, 492.907,373.333, 469.355,373.333z M 298.688,202.667l0.00-106.667 l-85.333,0.00 l0.00,106.667 l-64.00,0.00 l 106.667,128.00l 106.667-128.00L 298.688,202.667 z M 426.688,245.333c-23.552,0.00-42.667,19.115-42.667,42.667s 19.115,42.667, 42.667,42.667s 42.667-19.115, 42.667-42.667
		S 450.24,245.333, 426.688,245.333z" horiz-adv-x="512.0853271484375" />
<glyph unicode="&#xe035;" d="M 213.355,117.333A42.667,42.667 180.00 1,0 298.688,117.33300000000003A42.667,42.667 180.00 1,0 213.355,117.33300000000003zM 469.355,266.667l-128.00,0.00 c0.00,21.333-21.333,21.333-21.333,21.333s-106.667,0.00-128.00,0.00s-21.333-21.333-21.333-21.333l-128.00,0.00 c-23.552,0.00-42.667-19.115-42.667-42.667l0.00-213.333 c0.00-23.552, 19.115-42.667, 42.667-42.667l 426.667,0.00 c 23.552,0.00, 42.667,19.115, 42.667,42.667L 512.021,224.00 
				C 512.021,247.552, 492.907,266.667, 469.355,266.667z M 256.021,32.00c-47.125,0.00-85.333,38.208-85.333,85.333s 38.208,85.333, 85.333,85.333s 85.333-38.208, 85.333-85.333S 303.147,32.00, 256.021,32.00z M 437.355,160.00
				c-17.664,0.00-32.00,14.336-32.00,32.00s 14.336,32.00, 32.00,32.00s 32.00-14.336, 32.00-32.00S 455.019,160.00, 437.355,160.00zM 256.021,480.00L 149.355,373.333L 362.688,373.333 		zM 213.355,416.00L 298.688,416.00L 298.688,309.333L 213.355,309.333z" horiz-adv-x="512.0853271484375" />
<glyph unicode="&#xe036;" d="M 469.333,437.333l-85.333,0.00 l0.00-42.667 l-42.667,0.00 L 341.333,437.333 L 149.333,437.333 l0.00-42.667 L 106.667,394.667 L 106.667,437.333 L 21.333,437.333 C 9.557,437.333,0.00,427.755,0.00,416.00l0.00-42.667 l 490.667,0.00 L 490.667,416.00 
				C 490.667,427.755, 481.131,437.333, 469.333,437.333zM0.00-10.667c0.00-11.797, 9.557-21.333, 21.333-21.333l 448.00,0.00 c 11.797,0.00, 21.333,9.536, 21.333,21.333L 490.667,352.00 L0.00,352.00 L0.00-10.667 z M 362.667,309.333l 85.333,0.00 l0.00-85.333 l-85.333,0.00 L 362.667,309.333 
				z M 362.667,202.667l 85.333,0.00 l0.00-85.333 l-85.333,0.00 L 362.667,202.667 z M 362.667,96.00l 85.333,0.00 l0.00-85.333 l-85.333,0.00 L 362.667,96.00 z M 256.00,309.333l 85.333,0.00 l0.00-85.333 l-85.333,0.00 L 256.00,309.333 z M 256.00,202.667l 85.333,0.00 l0.00-85.333 l-85.333,0.00 L 256.00,202.667 z M 256.00,96.00l 85.333,0.00 l0.00-85.333 l-85.333,0.00 L 256.00,96.00 z M 149.333,309.333l 85.333,0.00 l0.00-85.333 L 149.333,224.00 L 149.333,309.333 z M 149.333,202.667l 85.333,0.00 l0.00-85.333 L 149.333,117.333 L 149.333,202.667 z
				 M 149.333,96.00l 85.333,0.00 l0.00-85.333 L 149.333,10.667 L 149.333,96.00 z M 42.667,309.333l 85.333,0.00 l0.00-85.333 L 42.667,224.00 L 42.667,309.333 z M 42.667,202.667l 85.333,0.00 l0.00-85.333 L 42.667,117.333 L 42.667,202.667 z M 42.667,96.00l 85.333,0.00 l0.00-85.333 L 42.667,10.667 L 42.667,96.00 zM 106.667,480.00L 149.333,480.00L 149.333,394.667L 106.667,394.667zM 341.333,480.00L 384.00,480.00L 384.00,394.667L 341.333,394.667z" horiz-adv-x="512.0213216145833" />
<glyph unicode="&#xe037;" d="M 362.667-74.688L 256.00,31.979L 149.333-74.688L 149.333,522.645L 362.667,522.645 		z" horiz-adv-x="512.0853271484375" />
<glyph unicode="&#xe038;" d="M 425.557,403.733L 167.829,478.528C 164.949,479.339, 161.92,478.784, 159.467,476.949L 83.285,418.987C 79.979,416.448, 78.848,412.181, 79.979,408.405l0.00-362.027 
		l 266.688-77.291L 346.667,336.448 L 100.416,407.829l 66.752,50.816l 246.229-71.509l0.00-360.085 c0.00-5.355, 4.267-9.685, 9.472-9.685c 5.333,0.00, 9.579,4.331, 9.579,9.685
		L 432.448,394.411 C 432.448,398.741, 429.632,402.539, 425.557,403.733zM 366.101-34.133L 414.613-0.789L 414.613,392.085L 162.219,466.667L 109.397,427.285L 366.251,357.163 	z" horiz-adv-x="512.0426839192708" />
<glyph unicode="&#xe039;" d="M 490.667,74.688c-10.624,17.813-23.275,32.896-38.016,45.205c-14.72,12.331-30.443,21.397-47.168,29.632
		c-16.725,8.213-33.749,14.613-51.072,19.221c-17.323,4.608-30.251,8.064-45.973,10.347c-15.723,2.304-29.995,3.712-42.816,4.203
		S 242.475,184.064, 234.667,184.064L 234.667,53.333 L0.00,233.344l 234.667,182.677l0.00-118.379 c 30.848-1.387, 58.197-5.675, 82.027-12.779c 23.829-7.104, 41.109-16.021, 59.051-26.752
		c 17.92-10.709, 33.259-22.72, 45.973-36.032c 12.715-13.333, 23.296-26.795, 31.701-40.427C 473.237,149.611, 485.653,114.752, 490.667,74.688z" horiz-adv-x="512.0213216145833" />
<glyph unicode="&#xe03a;" d="M 512.021,261.12c0.00-45.333-12.864-85.483-38.571-120.235c-25.643-34.837-55.019-52.267-88.00-52.267c-14.571,0.00-27.136,4.011-37.803,12.224
			c-10.688,8.171-17.451,18.603-20.416,31.253c-21.781-31.787-53.781-47.701-95.915-47.701c-30.613,0.00-56.299,11.243-77.12,33.685
			c-20.864,22.421-31.275,50.219-31.275,83.456c0.00,39.659, 13.312,74.368, 40.00,103.808c 26.645,29.44, 57.941,44.181, 93.803,44.181
			c 36.843,0.00, 62.784-13.355, 77.824-39.979l 6.528,32.277l 59.648,0.00 l-28.352-148.757c-2.923-15.445-4.352-25.664-4.352-30.763
			c0.00-15.936, 6.784-23.893, 20.352-23.893c 16.981,0.00, 32.704,12.907, 47.275,38.571c 14.549,25.707, 21.803,53.717, 21.803,84.139
			c0.00,48.661-17.323,88.96-52.011,120.96c-34.645,32.064-79.147,48.085-133.461,48.085c-60.608,0.00-111.125-20.459-151.637-61.355
			c-40.448-40.896-60.736-90.859-60.736-149.76c0.00-59.413, 20.395-107.648, 61.077-144.875c 40.747-37.141, 92.16-55.68, 154.219-55.68
			c 46.016,0.00, 93.568,8.875, 142.528,26.645l 14.549-51.947C 384.021-23.595, 329.685-32.00, 269.077-32.00c-78.059,0.00-142.059,22.869-192.00,68.651
			c-51.392,46.784-77.056,107.819-77.056,183.147c0.00,72.875, 25.92,134.528, 77.803,184.768C 129.685,454.848, 193.451,480.00, 269.077,480.00
			c 69.355,0.00, 127.147-20.843, 173.483-62.464C 488.875,375.936, 512.021,323.84, 512.021,261.12z M 317.824,230.976c0.00,16.427-4.843,29.696-14.613,40.00
			c-9.664,10.197-22.528,15.467-38.528,15.467c-18.88,0.00-35.52-8.363-49.792-24.896c-14.293-16.597-21.461-36.139-21.461-58.603
			c0.00-17.323, 4.971-31.445, 14.912-42.389c 9.963-11.029, 23.147-16.512, 39.616-16.512c 19.392,0.00, 35.904,8.491, 49.472,25.60
			C 311.019,186.603, 317.824,207.104, 317.824,230.976z" horiz-adv-x="512.0853271484375" />
<glyph unicode="&#xe03b;" d="M 418.909,480.00L 93.091,480.00 C 41.681,480.00,0.00,438.319,0.00,386.909l0.00-325.818 c0.00-51.409, 41.681-93.091, 93.091-93.091l 325.818,0.00 c 51.456,0.00, 93.091,41.681, 93.091,93.091L 512.00,386.909 C 512.00,438.319, 470.365,480.00, 418.909,480.00z M 419.002,177.455L 302.545,177.455 
		l0.00-116.387 L 209.455,61.068 L 209.455,177.455 L 93.161,177.455 L 93.161,270.545 L 209.455,270.545 L 209.455,386.909 l 93.091,0.00 l0.00-116.364 l 116.457,0.00 L 419.002,177.455 z" />
</font>
</defs>
</svg>
