<?xml version="1.0" standalone="no"?>
<!DOCTYPE svg PUBLIC "-//W3C//DTD SVG 1.1//EN" "http://www.w3.org/Graphics/SVG/1.1/DTD/svg11.dtd" >
<svg xmlns="http://www.w3.org/2000/svg">
<metadata>
This is a custom SVG font generated by IcoMoon.
0
</metadata>
<defs>
<font id="icomoon" horiz-adv-x="512" >
<font-face units-per-em="512" ascent="480" descent="-32" />
<missing-glyph horiz-adv-x="512" />
<glyph unicode="&#xe000;" d="M 511.957,386.899c-0.499,11.933-7.811,14.797-16.251,6.357l-38.295-38.316c-8.44-8.44-22.239-8.44-30.679,0.00L 386.94,394.732
		c-8.44,8.44-8.44,22.239,0.00,30.679l 38.295,38.273c 8.44,8.44, 5.598,15.774-6.335,16.273c0.00,0.00-59.449,2.495-89.586-27.62
		c-30.05-30.05-38.512-73.053-26.383-110.936l-82.166-82.144l-82.144-82.166c-37.861,12.15-80.907,3.667-110.957-26.383
		c-30.115-30.137-27.598-89.586-27.598-89.586c 0.499-11.912, 7.811-14.754, 16.251-6.314l 38.295,38.273c 8.44,8.44, 22.239,8.44, 30.679,0.00
		l 39.792-39.77c 8.44-8.44, 8.44-22.239,0.00-30.679l-38.295-38.295c-8.44-8.44-5.598-15.774, 6.335-16.273c0.00,0.00, 59.449-2.473, 89.564,27.62
		c 30.05,30.05, 38.512,73.053, 26.405,110.936l 82.144,82.144l 0.022,0.022l 82.166,82.166c 37.839-12.15, 80.886-3.667, 110.936,26.405
		C 514.43,327.45, 511.957,386.899, 511.957,386.899z" />
<glyph unicode="&#xe001;" d="M 511.884,370.902C 511.325,384.353, 503.064,387.542, 493.592,378.07l-47.265-47.311c-9.472-9.495-25.064-9.495-34.558,0.00
		l-48.987,49.033c-9.495,9.495-9.495,25.064,0.00,34.535l 47.218,47.265c 9.495,9.472, 6.307,17.733-7.144,18.315c0.00,0.00-71.793,3.049-107.585-32.72
		c-35.629-35.629-45.659-86.71-31.254-131.578L 201.067,252.706c-18.966-18.99-50.104-50.081-69.094-69.14l-117.708-117.731
		c-18.99-18.99-19.013-50.081,0.00-69.094l 14.452-14.498c 19.013-18.99, 50.104-19.036, 69.094-0.047l 117.778,117.778
		c 18.943,18.99, 34.535,34.535, 34.535,34.535c0.00,0.047, 15.545,15.592, 34.535,34.582l 62.95,62.903c 44.868-14.359, 95.903-4.329, 131.555,31.324
		C 514.862,299.063, 511.884,370.902, 511.884,370.902 M 92.272,5.956c-15.08-15.08-39.515-15.08-54.595,0.00c-15.08,15.08-15.08,39.539,0.00,54.595
		c 15.033,15.08, 39.492,15.08, 54.595,0.00S 107.306,21.036, 92.272,5.956" horiz-adv-x="511.95348222691905" />
<glyph unicode="&#xe002;" d="M 0.811,415.995l 298.692,0.00 c0.00,0.00-22.85-213.351-150.135-213.351C 22.146,202.686, 0.811,415.995, 0.811,415.995zM 170.702,10.179l0.00,194.683 c 72.347,13.868, 128.011,95.667, 128.011,175.055L 298.692,379.917 L 298.692,480.00 L0.00,480.00 l0.00-100.083 c0.00-79.345, 55.642-161.187, 128.032-175.055l0.00-194.683 
			c-72.39-2.966-128.011-20.716-128.011-42.18l 298.692,0.00 C 298.713-10.537, 243.05,7.214, 170.702,10.179z M 21.335,379.917L 21.335,458.665 l 256.021,0.00 l 0.021-78.748
			c0.00-72.049-55.749-155.682-127.712-155.938L 149.068,223.979 C 77.105,224.235, 21.335,307.868, 21.335,379.917z" horiz-adv-x="299.50229859977276" />
<glyph unicode="&#xe003;" d="M 362.605,201.492l0.00-43.921 c 8.001-3.502, 17.145-7.515, 27.384-12.014c 10.263-4.499, 20.818-9.12, 31.713-13.886s 21.912-9.485, 33.026-14.276
		c 11.138-4.742, 21.742-9.168, 31.737-13.351c 9.995-4.086, 18.994-7.758, 26.995-11.041c 8.025-3.283, 14.519-5.739, 19.529-7.49
		c 10.506-3.77, 19.018-9.46, 25.536-17.121c 6.493-7.612, 11.625-15.394, 15.394-23.444c 4.475-9.266, 7.758-19.018, 9.752-29.281l0.00-47.666 L0.00-32.00 l0.00,47.666 
		c 2.237,10.263, 5.618,20.015, 10.117,29.281c 3.745,8.05, 8.877,15.808, 15.394,23.444c 6.518,7.661, 14.884,13.351, 25.146,17.121
		c 5.253,1.727, 12.16,4.28, 20.647,7.685c 8.536,3.38, 18.021,7.272, 28.527,11.625c 10.506,4.378, 21.596,9.071, 33.221,14.081
		c 11.625,5.01, 23.225,9.995, 34.704,15.005c 11.527,5.034, 22.398,9.728, 32.661,14.251c 10.287,4.548, 19.285,8.536, 27.043,12.014l0.00,42.802 
		c-0.486,1.994-1.313,5.058-2.432,9.217c-1.143,4.134-2.31,8.317-3.575,12.598C 219.946,229.752, 218.195,235.151, 216.201,240.914
		c-7.247,13.522-13.011,28.819-17.267,45.964S 192.538,322.239, 192.538,341.50c0.00,25.292, 2.699,46.694, 8.074,64.179c 5.375,17.559, 12.695,31.81, 21.961,42.802
		c 9.241,11.017, 20.064,19.018, 32.467,24.028C 267.442,477.519, 280.745,480.00, 295.021,480.00c 14.032,0.00, 27.214-2.432, 39.592-7.32
		c 12.403-4.888, 23.274-12.743, 32.661-23.639c 9.387-10.895, 16.756-25.171, 22.155-42.827c 5.399-17.607, 8.074-39.227, 8.074-64.739
		c0.00-18.775-2.067-36.577-6.177-53.479c-4.134-16.902-9.825-32.078-17.072-45.648c-2.019-6.201-3.891-12.087-5.618-17.583
		c-1.508-4.791-2.894-9.363-4.134-13.692C 363.213,206.672, 362.605,203.462, 362.605,201.492z" horiz-adv-x="583.6697997388076" />
<glyph unicode="&#xe004;" d="M 433.231,480.00L 39.385,480.00 C 17.644,480.00,0.00,462.356,0.00,440.615l0.00-354.462 c0.00-21.74, 17.644-39.385, 39.385-39.385l 118.134,0.00 L 236.308-32.00l 78.75,78.769L 433.231,46.769 c 21.74,0.00, 39.385,17.644, 39.385,39.385L 472.615,440.615 
			C 472.615,462.356, 454.971,480.00, 433.231,480.00z M 232.212,420.923c 39.542,0.00, 71.601-32.039, 71.601-71.621c0.00-39.542-32.059-71.621-71.601-71.621
			c-39.562,0.00-71.621,32.079-71.621,71.621C 160.591,388.884, 192.65,420.923, 232.212,420.923z M 331.934,105.846L 132.45,105.846 c0.00,0.00-29.125,143.222, 99.761,143.222
			S 331.934,105.846, 331.934,105.846z" horiz-adv-x="472.61538461538464" />
<glyph unicode="&#xe005;" d="M 447.957,279.019c-0.981,75.797-62.592,136.96-138.645,136.96c-59.499,0.00-110.165-37.611-129.792-90.304c-11.669,15.893-30.293,26.304-51.541,26.304
			c-35.328,0.00-64.00-28.651-64.00-64.00c0.00-2.923, 0.491-5.717, 0.875-8.533C 26.731,263.189,0.00,225.387,0.00,181.312c0.00-58.901, 47.765-106.667, 106.645-106.667l 128.00,0.00 l0.00,64.00 l-42.667,0.00 l 64.00,85.333l 64.00-85.333l-42.667,0.00 
			l0.00-64.00 l 128.00,0.00 c 58.923,0.00, 106.667,47.765, 106.667,106.667C 511.979,225.067, 485.589,262.571, 447.957,279.019z" horiz-adv-x="512.0426839192708" />
<glyph unicode="&#xe006;" d="M 256.00,439.611L 256.00,460.308 c0.00,10.85-8.862,19.692-19.692,19.692c-10.91,0.00-19.692-8.842-19.692-19.692l0.00-20.697 C 95.35,429.607,0.00,328.153,0.00,204.308l 2.796,0.00 C 11.579,238.238, 42.102,263.385, 78.769,263.385
		c 36.628,0.00, 67.19-25.147, 75.934-59.077L 160.295,204.308 c 7.168,27.569, 28.83,49.113, 56.32,56.30L 216.615,46.769 c0.00-6.617-1.95-39.385-39.385-39.385c-35.938,0.00-39.247,30.228-39.385,39.503
		C 137.767,57.738, 128.985,66.462, 118.154,66.462c-10.91,0.00-19.692-8.842-19.692-19.692c0.00-31.646, 20.933-78.769, 78.769-78.769c 57.777,0.00, 78.769,47.124, 78.769,78.769L 256.00,260.569 
		c 27.49-7.148, 49.093-28.692, 56.241-56.261l 5.612,0.00 c 8.783,33.93, 39.306,59.077, 75.973,59.077c 36.588,0.00, 67.131-25.147, 75.934-59.077L 472.615,204.308 
		C 472.615,328.153, 377.265,429.568, 256.00,439.611z" horiz-adv-x="472.61538461538464" />
<glyph unicode="&#xe007;" d="M 442.182,480.00L 69.818,480.00 C 31.255,480.00,0.00,448.745,0.00,410.182l0.00-372.364 c0.00-38.563, 31.255-69.818, 69.818-69.818l 372.364,0.00 c 38.563,0.00, 69.818,31.255, 69.818,69.818L 512.00,410.182 C 512.00,448.745, 480.745,480.00, 442.182,480.00z M 388.143,73.891
		C 379.578,65.35, 369.245,61.091, 357.213,61.091l-86.621,0.00 c-36.096,0.00-66.909,12.777-92.509,38.284C 152.483,124.881, 139.636,155.625, 139.636,191.558L 139.636,366.499 
		c0.00,12.311, 4.305,22.714, 12.847,31.092C 161.001,405.923, 171.38,410.182, 183.692,410.182c 11.962,0.00, 22.202-4.282, 30.72-12.847C 222.953,388.794, 227.235,378.531, 227.235,366.522
		l0.00-63.325 l 123.345,0.00 c 11.171,0.00, 20.783-4.003, 28.742-11.916c 8.029-7.959, 11.985-17.455, 11.985-28.556c0.00-11.124-3.956-20.643-11.962-28.602
		c-7.936-7.913-17.501-11.916-28.672-11.916L 227.235,222.208 l0.00-30.627 c0.00-12.055, 4.189-22.249, 12.614-30.65c 8.471-8.355, 18.711-12.591, 30.673-12.591l 86.668,0.00 
		c 12.032,0.00, 22.388-4.282, 30.953-12.847s 12.916-18.851, 12.916-30.813S 396.707,82.432, 388.143,73.891z" />
<glyph unicode="&#xe008;" d="M 442.182,480.00L 69.818,480.00 C 31.255,480.00,0.00,448.745,0.00,410.182l0.00-372.364 c0.00-38.563, 31.255-69.818, 69.818-69.818l 372.364,0.00 c 38.563,0.00, 69.818,31.255, 69.818,69.818L 512.00,410.182 C 512.00,448.745, 480.745,480.00, 442.182,480.00z M 433.199,220.253
		C 395.217,66.257, 140.474,0.977, 23.273,160.768c 44.916-42.822, 123.089-46.592, 172.66,4.701C 166.865,161.164, 145.664,189.719, 181.411,205.149
		c-32.14-3.537-49.967,13.568-57.274,28.113c 7.447,7.843, 15.849,11.497, 31.884,12.637c-35.142,8.262-48.151,25.507-52.154,46.383
		c 9.798,2.327, 21.993,4.305, 28.602,3.398c-30.72,16.151-41.449,40.378-39.75,58.601c 55.017-20.457, 90.089-36.864, 119.366-52.62
		c 10.426-5.562, 22.132-15.616, 35.305-28.369c 16.756,44.265, 37.376,89.949, 72.82,112.64c-0.535-5.213-3.305-9.937-6.935-13.894
		c 10.054,9.123, 23.11,15.43, 36.352,17.245c-1.489-9.984-15.872-15.569-24.529-18.804c 6.609,2.001, 41.402,17.524, 45.265,8.704
		c 4.399-10.054-24.064-14.778-28.928-16.454c-3.654-1.257-7.261-2.583-10.845-4.026c 44.125,4.352, 86.342-32.116, 98.63-77.312
		c 0.884-3.351, 1.769-6.865, 2.607-10.729c 16.081-6.004, 45.428,0.326, 54.877,6.167c-6.842-16.175-24.553-28.067-50.758-30.255
		c 12.614-5.19, 36.352-8.169, 52.736-5.353C 478.348,230.144, 461.615,220.067, 433.199,220.253z" />
<glyph unicode="&#xe009;" d="M 76.80,403.20L 537.60,403.20L 537.60,172.774L 76.80,172.774zM 563.20,480.00L 51.20,480.00 C 23.04,480.00,0.00,456.986,0.00,428.80l0.00-281.574 c0.00-28.16, 23.04-51.20, 51.20-51.20l 204.80,0.00 L 256.00-6.40 c-11.29,0.00-20.506,0.00-25.60,0.00c-25.60,0.00-25.60-25.60-25.60-25.60l 204.80,0.00 c0.00,25.60-25.60,25.60-25.60,25.60s-10.342,0.00-25.60,0.00
			l0.00,102.426 l 204.80,0.00 c 28.16,0.00, 51.20,23.04, 51.20,51.20L 614.40,428.80 C 614.40,456.986, 591.36,480.00, 563.20,480.00z M 563.20,147.226L 51.20,147.226 L 51.20,428.80 l 512.00,0.00 L 563.20,147.226 z" horiz-adv-x="614.4000000000001" />
<glyph unicode="&#xe00a;" d="M 346.404,174.217L 426.684,174.217L 329.123,287.992L 384.016,287.992L 288.012,394.663L 320.035,394.663L 256.011,480.00L 192.008,394.663L 224.073,394.663L 128.069,287.992L 182.941,287.992L 85.422,174.217L 165.703,174.217L 64.109,46.275L 213.342,46.275L 213.342-32.00L 298.679-32.00L 298.679,46.275L 448.019,46.275 		z" horiz-adv-x="512.0426450050658" />
<glyph unicode="&#xe00b;" d="M 374.193,401.231l-19.692,39.385l-137.846,0.00 l0.00,0.00l-137.846,0.00 l-19.692-39.385l-39.385-19.692l0.00-39.385 l 196.864,0.00 l0.00,0.00l 196.982,0.00 L 413.578,381.538 L 374.193,401.231z M 246.193,381.538l-59.077,0.00 c-5.474,0.00-9.846,4.431-9.846,9.846
			c0.00,5.455, 4.372,9.846, 9.846,9.846l 59.077,0.00 c 5.415,0.00, 9.846-4.391, 9.846-9.846C 256.039,385.969, 251.609,381.538, 246.193,381.538zM 98.442-32.00L 334.809-32.00L 347.904,86.154L 85.327,86.154 	zM 374.193,322.462L 59.057,322.462L 67.82,243.692L 365.43,243.692 	zM 67.82,243.692L 85.327,86.154L 347.904,86.154L 365.43,243.692 	z" horiz-adv-x="413.53846153846155" />
<glyph unicode="&#xe00c;" d="M 227.556,138.667L 199.111,138.667 L 199.111,252.444 L 199.111,480.00 l0.00,0.00 C 167.822,480.00, 142.222,454.40, 142.222,423.111l0.00-398.222 c0.00-31.289, 25.60-56.889, 56.889-56.889l 170.667,0.00 l0.00,170.667 L 227.556,138.667 zM 768.00,480.00L 768.00,480.00l0.00-227.556l0.00-113.778 l-28.444,0.00 l-142.222,0.00 l0.00-170.667 l 170.667,0.00 c 31.289,0.00, 56.889,25.60, 56.889,56.889L 824.889,423.111 C 824.889,454.40, 799.317,480.00, 768.00,480.00zM 227.556,480.00L 369.778,480.00L 369.778,167.111L 227.556,167.111zM 597.333,480.00L 739.556,480.00L 739.556,167.111L 597.333,167.111zM 369.778,480.00L 597.333,480.00L 597.333,167.111L 369.778,167.111zM 369.778,138.667L 597.333,138.667L 597.333-32.00L 369.778-32.00zM 369.778-32.00L 597.333-32.00L 597.333-32.00L 369.778-32.00zM 56.889,195.556c0.00,85.817, 87.666,163.10, 142.222,202.951L 199.111,467.513 C 151.211,437.106,0.00,330.553,0.00,195.556s 111.644-199.111, 170.667-199.111l 0.114,56.889C 159.147,53.447, 56.889,85.959, 56.889,195.556zM 768.00,467.513l0.00-69.006 c 54.556-39.822, 142.222-117.134, 142.222-202.951c0.00-109.596-102.258-142.108-113.778-142.222l0.00-56.889 c 59.022,0.00, 170.667,64.114, 170.667,199.111S 815.90,437.106, 768.00,467.513z" horiz-adv-x="967.1111111111111" />
<glyph unicode="&#xe00d;" d="M 170.667,65.524c0.00-13.483, 10.898-24.381, 24.381-24.381l0.00,0.00c 13.483,0.00, 24.381,10.898, 24.381,24.381L 219.429,260.571 c0.00,13.483-10.898,24.381-24.381,24.381l0.00,0.00C 181.565,284.952, 170.667,274.054, 170.667,260.571L 170.667,65.524 zM 243.81,65.524c0.00-13.483, 10.898-24.381, 24.381-24.381l0.00,0.00c 13.483,0.00, 24.381,10.898, 24.381,24.381L 292.571,260.571 c0.00,13.483-10.898,24.381-24.381,24.381l0.00,0.00c-13.483,0.00-24.381-10.898-24.381-24.381L 243.81,65.524 zM 97.524,65.524c0.00-13.483, 10.898-24.381, 24.381-24.381l0.00,0.00c 13.483,0.00, 24.381,10.898, 24.381,24.381L 146.286,260.571 c0.00,13.483-10.898,24.381-24.381,24.381l0.00,0.00C 108.422,284.952, 97.524,274.054, 97.524,260.571L 97.524,65.524 zM 316.952,382.476L 316.952,406.857 c0.00,53.662-43.739,73.143-73.143,73.143L 146.286,480.00 C 92.623,480.00, 73.143,436.261, 73.143,406.857l0.00-24.381 C0.00,382.476,0.00,309.333,0.00,309.333l 24.381,0.00 l0.00-316.952 c0.00-13.483, 10.898-24.381, 24.381-24.381l 292.571,0.00 c 13.483,0.00, 24.381,10.898, 24.381,24.381L 365.714,309.333 l 24.381,0.00 
			C 390.095,382.476, 316.952,382.476, 316.952,382.476z M 121.905,406.565C 122.197,417.829, 126.635,431.238, 146.286,431.238l 97.231,0.00 C 254.781,430.946, 268.19,426.508, 268.19,406.857l0.00-24.381 L 121.905,382.476 L 121.905,406.565 z M 316.952,16.762L 73.143,16.762 L 73.143,309.333 l 243.81,0.00 L 316.952,16.762 z" horiz-adv-x="390.0952380952381" />
<glyph unicode="&#xe00e;" d="M 362.667,437.333L 64.00,437.333 C 28.651,437.333,0.00,408.683,0.00,373.333l 426.667,0.00 C 426.667,408.683, 398.016,437.333, 362.667,437.333zM 294.763,437.333c-8.832,24.811-32.277,42.667-60.075,42.667l-42.667,0.00 C 164.181,480.00, 140.757,462.144, 131.947,437.333L 294.763,437.333 zM 341.355,352.00l-256.00,0.00 L 21.333,352.00 l0.00-64.00 l0.00-128.00 l0.00-128.00 c0.00-35.349, 28.672-64.00, 64.021-64.00l 256.00,0.00 C 376.683-32.00, 405.333-3.349, 405.333,32.00l0.00,128.00 L 405.333,288.00 L 405.333,352.00 L 341.355,352.00 z M 106.667,10.667L 64.00,10.667 L 64.00,309.333 l 42.667,0.00 L 106.667,10.667 z M 192.00,10.667L 149.333,10.667 L 149.333,309.333 l 42.667,0.00 
			L 192.00,10.667 z M 277.333,10.667l-42.667,0.00 L 234.667,309.333 l 42.667,0.00 L 277.333,10.667 z M 362.667,10.667l-42.667,0.00 L 320.00,309.333 l 42.667,0.00 L 362.667,10.667 z" horiz-adv-x="426.66666666666663" />
<glyph unicode="&#xe00f;" d="M 298.667,288.00L 298.667,480.00L 213.333,480.00L 213.333,288.00L 149.397,288.00L 256.064,160.00L 362.667,288.00 		zM 397.76,437.333L 341.333,437.333L 341.333,394.667L 370.283,394.667L 467.264,181.333L 351.296,181.333L 308.629,117.333L 203.456,117.333L 160.789,181.333L 44.80,181.333L 141.76,394.667L 170.667,394.667L 170.667,437.333L 114.283,437.333L0.00,185.941L0.00-32.00L 512.00-32.00L 512.00,185.941 		z" horiz-adv-x="512.0853271484375" />
<glyph unicode="&#xe010;" d="M 100.303,392.395l 38.741,38.741c 7.416,7.416, 7.416,19.542,0.00,26.958L 87.853,480.00
		C 77.939,480.00, 77.787,480.00, 68.502,480.00L 13.479,458.113c-7.416-7.416-7.416-19.542,0.00-26.958l 38.741-38.741L0.00,44.261l 76.261-76.261l 76.261,76.261L 100.303,392.395z" horiz-adv-x="152.5228102706908" />
<glyph unicode="&#xe011;" d="M 122.552-32.00c-1.613,0.00-3.227,0.172-4.862,0.538c-11.573,2.689-18.801,14.219-16.134,25.793l 64.535,279.781
				C 168.781,285.706, 180.354,292.848, 191.884,290.267c 11.573-2.689, 18.801-14.219, 16.134-25.793l-64.535-279.781C 141.181-25.267, 132.34-32.00, 122.552-32.00
				L 122.552-32.00zM 208.556-32.00c-11.874,0.00-21.512,9.616-21.512,21.512L 187.044,269.293 c0.00,11.896, 9.637,21.512, 21.512,21.512s 21.512-9.616, 21.512-21.512l0.00-279.781 
				C 230.068-22.384, 220.452-32.00, 208.556-32.00L 208.556-32.00zM 294.603-32.00c-9.788,0.00-18.651,6.712-20.952,16.672l-64.535,279.781c-2.667,11.573, 4.539,23.104, 16.134,25.793
				c 11.444,2.646, 23.104-4.539, 25.793-16.134l 64.535-279.781c 2.667-11.573-4.539-23.104-16.134-25.793C 297.83-31.828, 296.216-32.00, 294.603-32.00
				L 294.603-32.00zM 438.279,326.966L 487.369,339.077L 434.386,480.00L 385.102,455.369 			zM 365.828,445.71L0.00,262.796L 15.144,222.526L 417.198,321.76 			z" horiz-adv-x="487.36911960272397" />
<glyph unicode="&#xe012;" d="M 222.361,225.457A35.114,35.114 180.00 1,0 292.589,225.457A35.114,35.114 180.00 1,0 222.361,225.457zM 257.475,313.243c 48.405,0.00, 87.785-39.381, 87.785-87.785s-39.381-87.785-87.785-87.785s-87.785,39.381-87.785,87.785S 209.07,313.243, 257.475,313.243 M 257.475,365.914
			c-77.567,0.00-140.457-62.89-140.457-140.457c0.00-77.567, 62.89-140.457, 140.457-140.457c 77.567,0.00, 140.457,62.89, 140.457,140.457C 397.932,303.042, 335.042,365.914, 257.475,365.914L 257.475,365.914zM 257.475,418.585c 106.484,0.00, 193.128-86.644, 193.128-193.128s-86.644-193.128-193.128-193.128s-193.128,86.644-193.128,193.128S 150.991,418.585, 257.475,418.585 M 257.475,471.257
			c-135.769,0.00-245.799-110.03-245.799-245.799c0.00-135.716, 110.03-245.799, 245.799-245.799c 135.716,0.00, 245.799,110.083, 245.799,245.799C 503.274,361.226, 393.209,471.257, 257.475,471.257L 257.475,471.257z" horiz-adv-x="512.0350949001088" />
<glyph unicode="&#xe013;" d="M 423.499,184.19C 395.653,212.056, 186.769,420.921, 186.769,420.921L 19.693,420.921 l0.00-167.096 l 236.73-236.73c0.00,0.00, 27.846-27.846, 55.692,0.00s 111.384,111.384, 111.384,111.384
			S 451.345,156.325, 423.499,184.19z M 131.077,309.517c-15.38-15.38-40.312-15.40-55.692,0.00c-15.38,15.38-15.38,40.312,0.00,55.712
			s 40.312,15.361, 55.692,0.00C 146.457,349.829, 146.457,324.917, 131.077,309.517zM 462.885,243.27C 435.039,271.135, 226.155,480.00, 226.155,480.00L 59.079,480.00 l0.00-39.386 l 135.843,0.00 l 5.77-5.75
			c0.00,0.00, 208.845-208.884, 236.73-236.75c 6.735-6.597, 11.383-14.10, 14.356-21.702c 6.814,6.814, 11.127,11.127, 11.127,11.127
			S 490.731,215.404, 462.885,243.27z" horiz-adv-x="472.65323509034283" />
<glyph unicode="&#xe014;" d="M 455.936,202.219C 425.771,232.405, 199.488,458.667, 199.488,458.667L 18.475,458.667 l0.00-181.013 l 256.448-256.448c0.00,0.00, 30.165-30.165, 60.331,0.00
			s 120.661,120.661, 120.661,120.661S 486.101,172.032, 455.936,202.219z M 139.136,337.984c-16.661-16.661-43.669-16.683-60.331,0.00
			c-16.661,16.661-16.661,43.669,0.00,60.352s 43.669,16.64, 60.331,0.00C 155.819,381.653, 155.819,354.667, 139.136,337.984z" horiz-adv-x="512.0213216145833" />
<glyph unicode="&#xe015;" d="M 568.857,480.00l-89.339,0.00 C 466.804,430.965, 422.689,394.671, 369.757,394.671S 272.71,430.965, 259.996,480.00L 170.743,480.00 L 170.657,480.00 l0.00,0.00l0.00-0.028 L0.00,394.671l 56.886-142.214l 113.771,56.886l0.00-341.343 l 398.20,0.00 L 568.857,309.343 l 113.771-56.886l 56.886,142.214L 568.857,480.00z" horiz-adv-x="739.5144939851922" />
<glyph unicode="&#xe016;" d="M 426.709,352.00L 426.709,352.00L 426.709,354.667 L 426.709,373.333 c0.00,41.579-33.024,64.00-64.00,64.00l-128.064,0.00 c-41.536,0.00-64.00-32.981-64.00-64.00l0.00-21.333 l0.00,0.00 l-42.667,0.00 l0.00-341.333 l 320.00,0.00 L 447.979,352.00 L 426.709,352.00 z M 384.043,352.00L 384.043,352.00
				L 213.312,352.00l0.00,0.00 L 213.312,373.333 c0.00,0.00,0.00,21.333, 21.333,21.333s 128.064,0.00, 128.064,0.00s 21.333,0.00, 21.333-21.333S 384.043,352.00, 384.043,352.00zM 106.645,352.00l-64.00,0.00 c-11.712,0.00-21.333-9.60-21.333-21.333l0.00-298.667 c0.00-11.733, 9.621-21.333, 21.333-21.333l 64.00,0.00 L 106.645,352.00 zM 554.645,352.00l-85.333,0.00 l0.00-341.333 l 85.333,0.00 c 11.755,0.00, 21.333,9.60, 21.333,21.333L 575.979,330.667 C 575.979,342.40, 566.40,352.00, 554.645,352.00z" horiz-adv-x="576" />
<glyph unicode="&#xe017;" d="M 236.308,218.545L 236.308,302.769 l-39.385,0.00 l0.00-84.224 C 185.186,211.732, 177.231,199.148, 177.231,184.615c0.00-14.572, 7.956-27.077, 19.692-33.93L 196.923,125.538 l 39.385,0.00 l0.00,25.147 c 11.737,6.853, 19.692,19.338, 19.692,33.93
			C 256.00,199.148, 248.044,211.732, 236.308,218.545zM 389.061,315.274l 43.146,43.225l-41.767,41.767l-43.146-43.225C 315.825,380.928, 277.819,396.505, 236.308,400.226L 236.308,440.615 l 19.692,0.00 L 256.00,480.00 L 177.231,480.00 l0.00-39.385 l 19.692,0.00 l0.00-40.389 
			C 86.489,390.262,0.00,297.61,0.00,184.615c0.00-119.611, 96.945-216.615, 216.615-216.615c 119.591,0.00, 216.615,97.004, 216.615,216.615C 433.231,233.767, 416.65,278.922, 389.061,315.274z M 216.615,7.385
			c-97.733,0.00-177.231,79.498-177.231,177.231s 79.498,177.231, 177.231,177.231s 177.231-79.498, 177.231-177.231S 314.348,7.385, 216.615,7.385z" horiz-adv-x="433.2307692307693" />
<glyph unicode="&#xe018;" d="M 256.064,495.531L 324.629,298.283L 533.333,294.037L 366.955,167.872L 427.456-32.00L 256.064,87.275L 84.629-32.00L 145.088,167.872L-21.333,294.037L 187.456,298.283 	z" horiz-adv-x="512.0853271484375" />
<glyph unicode="&#xe019;" d="M 256.00,480.00C 114.615,480.00,0.00,365.349,0.00,224.00c0.00-32.75, 6.382-63.963, 17.591-92.782c 2.706-6.93, 5.723-13.714, 9.015-20.315
			c 20.462-41.472, 51.657-76.507, 90.149-101.577c 6.126-3.968, 12.361-7.79, 18.834-11.209C 171.483-21.029, 212.462-32.00, 256.00-32.00
			c 43.557,0.00, 84.517,10.971, 120.411,30.098c 6.473,3.438, 12.709,7.241, 18.834,11.209c 38.473,25.07, 69.687,60.105, 90.149,101.577
			c 3.291,6.601, 6.309,13.385, 9.015,20.315C 505.618,160.037, 512.00,191.25, 512.00,224.00C 512.00,365.349, 397.385,480.00, 256.00,480.00z M 148.718,32.786
			C 106.149,56.777, 72.338,94.427, 53.394,139.886C 64.512,146.67, 77.458,150.857, 91.429,150.857c 40.338,0.00, 73.143-32.823, 73.143-73.143C 164.571,60.709, 158.482,45.257, 148.718,32.786z
			 M 363.282,32.786C 353.499,45.221, 347.429,60.709, 347.429,77.714c0.00,40.32, 32.805,73.143, 73.143,73.143c 13.989,0.00, 26.917-4.187, 38.034-10.971
			C 439.662,94.427, 405.851,56.722, 363.282,32.786z M 464.951,157.184C 451.749,164.571, 436.773,169.143, 420.571,169.143c-50.487,0.00-91.429-40.96-91.429-91.429
			c0.00-19.968, 6.583-38.29, 17.445-53.321C 318.921,11.758, 288.329,4.571, 256.00,4.571s-62.921,7.186-90.587,19.822C 176.274,39.424, 182.857,57.746, 182.857,77.714
			c0.00,50.469-40.942,91.429-91.429,91.429c-16.201,0.00-31.177-4.571-44.379-11.922C 40.302,178.286, 36.571,200.722, 36.571,224.00C 36.571,344.997, 135.003,443.429, 256.00,443.429c 120.997,0.00, 219.429-98.432, 219.429-219.429
			C 475.429,200.722, 471.717,178.286, 464.951,157.184zM 237.714,388.571A18.286,18.286 180.00 1,0 274.286,388.571A18.286,18.286 180.00 1,0 237.714,388.571zM 347.429,382.354c-8.759,5.029-19.931,2.03-24.978-6.711C 317.403,366.921, 320.384,355.749, 329.143,350.647c 8.759-4.992, 19.931-1.993, 24.978,6.711
			C 359.168,366.098, 356.187,377.326, 347.429,382.354zM 380.233,306.304A18.286,18.286 180.00 1,0 416.805,306.304A18.286,18.286 180.00 1,0 380.233,306.304zM 402.267,224.00A18.286,18.286 180.00 1,0 438.839,224A18.286,18.286 180.00 1,0 402.267,224zM 189.568,375.643C 184.521,384.384, 173.33,387.401, 164.59,382.354S 152.85,366.098, 157.897,357.358c 5.047-8.722, 16.238-11.721, 24.978-6.711
			C 191.616,355.749, 194.615,366.921, 189.568,375.643zM 95.214,306.304A18.286,18.286 180.00 1,0 131.785,306.304A18.286,18.286 180.00 1,0 95.214,306.304zM 73.161,224.037A18.286,18.286 180.00 1,0 109.733,224.037A18.286,18.286 180.00 1,0 73.161,224.037zM 259.493,241.92c-29.824,35.493-74.551,70.254-74.551,70.254s 14.939-54.638, 36.242-95.781c-1.042-3.401-1.774-6.93-1.774-10.679
			c0.00-20.206, 16.384-36.571, 36.571-36.571c 7.095,0.00, 13.659,2.066, 19.273,5.614c 0.347,0.219, 0.695,0.293, 1.042,0.567c 0.018,0.00, 0.018,0.00, 0.037,0.00
			c 9.783,6.565, 16.238,17.755, 16.238,30.391C 292.553,224.713, 278.016,240.146, 259.493,241.92z" />
<glyph unicode="&#xe01a;" d="M 256.00,480.00C 126.40,480.00, 21.333,384.512, 21.333,266.667c0.00-56.597, 24.427-107.925, 64.00-146.112L 85.333,53.333 c0.00-35.349, 28.651-64.00, 64.00-64.00c 18.56,0.00, 35.115,8.021, 46.805,20.629
			C 205.141-14.464, 228.437-32.00, 256.00-32.00s 50.859,17.515, 59.861,41.963C 327.552-2.645, 344.107-10.667, 362.667-10.667c 35.349,0.00, 64.00,28.651, 64.00,64.00l0.00,67.243 
			c 39.552,38.187, 64.00,89.493, 64.00,146.091C 490.667,384.512, 385.557,480.00, 256.00,480.00z M 160.00,202.667C 118.741,202.667, 85.333,236.117, 85.333,277.333S 118.741,352.00, 160.00,352.00S 234.667,318.571, 234.667,277.333
			S 201.259,202.667, 160.00,202.667z M 280.00,114.667l-48.00,0.00 c-11.733,0.00-17.045,8.576-11.797,19.093l 26.24,52.501c 5.248,10.496, 13.824,10.496, 19.093,0.00l 26.24-52.501
			C 297.045,123.264, 291.733,114.667, 280.00,114.667z M 352.00,202.667c-41.259,0.00-74.667,33.429-74.667,74.667S 310.741,352.00, 352.00,352.00S 426.667,318.571, 426.667,277.333
			S 393.259,202.667, 352.00,202.667z" horiz-adv-x="512.0213216145833" />
<glyph unicode="&#xe01b;" d="M 213.333,330.624L 256.00,330.624L 256.00,159.957L 213.333,159.957zM 213.333,138.624L 256.00,138.624L 256.00-53.355L 213.333-53.355zM 490.667,405.312L 426.667,351.979L 42.667,351.979L 42.667,458.645L 426.667,458.645 		zM 21.333,213.312L 85.333,266.645L 469.333,266.645L 469.333,159.979L 85.333,159.979 		zM 213.333,543.979L 256.00,543.979L 256.00,351.957L 213.333,351.957z" horiz-adv-x="512.0853271484375" />
<glyph unicode="&#xe01c;" d="M 693.333,192.021l-128.00,85.312l 0.021-53.376c-0.256,0.00-0.448,0.064-0.704,0.064l-42.005,0.00 c-4.779,0.00-10.197,0.00-10.667,10.645l0.00,85.333 
		c0.00,30.016-19.883,74.667-74.667,74.667s-74.667-44.651-74.667-74.667l0.00-191.381 c-0.469-11.264-5.888-11.264-10.667-11.264s-10.176,0.00-10.667,10.667L 341.312,320.00 
		c0.00,30.016-19.883,74.667-74.667,74.667S 192.00,350.016, 192.00,320.00l0.00-191.381c-0.491-11.264-5.909-11.264-10.667-11.264s-10.197,0.00-10.667,10.667L 170.667,234.667 
		C 170.667,289.451, 125.995,309.333, 95.979,309.333l-42.667,0.00C 35.648,309.333, 21.333,294.997, 21.333,277.312C 21.333,259.648, 35.669,245.333, 53.333,245.333l0.00,0.00 L 95.381,245.333C 106.667,244.864, 106.667,239.445, 106.667,234.667l0.00-106.645 
		c0.00-30.016, 19.883-74.667, 74.667-74.667s 74.667,44.651, 74.667,74.667l0.00,191.36C 256.469,330.667, 261.888,330.667, 266.667,330.667s 10.197,0.00, 10.667-10.667l0.00-191.979 c0.00-30.016, 19.883-74.667, 74.667-74.667
		c 54.784,0.00, 74.667,44.651, 74.667,74.667l0.00,191.36 C 427.115,330.667, 432.533,330.667, 437.312,330.667s 10.197,0.00, 10.667-10.667l0.00-85.333 c0.00-29.995, 19.883-74.645, 74.667-74.645l 42.581,0.00 
		c 0.043,0.00, 0.085,0.021, 0.128,0.021L 565.333,106.667L 693.333,192.021z" horiz-adv-x="704" />
<glyph unicode="&#xe01d;" d="M 597.333,96.00l-128.00,85.333l0.00-53.333 l-0.021,0.00 L 377.813,128.00 l-56.043,68.501l-41.344-50.539l 57.451-70.229c 6.059-7.424, 15.147-11.712, 24.768-11.712l 106.645,0.00 L 469.333,64.021 L 469.333,10.667 
				L 597.333,96.00zM 170.667,362.667L 63.979,362.667 c-17.643,0.00-32.00-14.315-32.00-32.00c0.00-17.664, 14.357-32.00, 32.00-32.00l 91.499,0.043l 56.043-68.501l 41.344,50.539L 195.435,350.955
				C 189.333,358.357, 180.245,362.667, 170.667,362.667zM 597.333,330.667l-128.00,85.333l0.00-53.333 l-0.021,0.00 L 362.667,362.667 c-9.621,0.00-18.709-4.309-24.768-11.712L 155.477,128.00L 63.979,128.00 c-17.643,0.00-32.00-14.315-32.00-32.00
			c0.00-17.643, 14.357-31.957, 32.00-31.957L 170.667,64.043 c 9.557,0.00, 18.667,4.309, 24.768,11.712L 377.813,298.688l 91.499,0.00 L 469.333,298.688 L 469.333,245.333 L 597.333,330.667z" horiz-adv-x="597.3333333333333" />
<glyph unicode="&#xe01e;" d="M 215.579,21.895A53.895,53.895 180.00 1,0 323.368,21.894999999999982A53.895,53.895 180.00 1,0 215.579,21.894999999999982zM 512.00,21.895A53.895,53.895 180.00 1,0 619.789,21.894999999999982A53.895,53.895 180.00 1,0 512.00,21.894999999999982zM 148.615,399.158L 94.316,480.00l-53.895,0.00 C 18.082,480.00,0.00,461.891,0.00,439.579S 18.082,399.158, 40.421,399.158l 23.821,0.00 L 202.105,129.684l 461.662,0.00 L 754.526,399.158L 148.615,399.158 z M 188.632,331.789
			C 181.14,331.789, 175.158,337.853, 175.158,345.263c0.00,7.464, 5.982,13.474, 13.474,13.474c 7.437,0.00, 13.474-6.009, 13.474-13.474C 202.105,337.853, 196.069,331.789, 188.632,331.789z M 485.053,304.842
			c 7.437,0.00, 13.474-6.009, 13.474-13.474c0.00-7.411-6.036-13.474-13.474-13.474S 471.579,283.958, 471.579,291.368C 471.579,298.833, 477.615,304.842, 485.053,304.842z M 458.105,358.737
			c 7.437,0.00, 13.474-6.009, 13.474-13.474c0.00-7.411-6.036-13.474-13.474-13.474S 444.659,337.853, 444.659,345.263C 444.659,352.728, 450.668,358.737, 458.105,358.737z M 431.185,304.842
			c 7.491,0.00, 13.474-6.009, 13.474-13.474c0.00-7.411-5.982-13.474-13.474-13.474c-7.411,0.00-13.474,6.063-13.474,13.474C 417.711,298.833, 423.774,304.842, 431.185,304.842z M 350.316,358.737
			c 7.437,0.00, 13.474-6.009, 13.474-13.474c0.00-7.411-6.036-13.474-13.474-13.474S 336.842,337.853, 336.842,345.263C 336.842,352.728, 342.878,358.737, 350.316,358.737z M 296.421,358.737
			c 7.437,0.00, 13.474-6.009, 13.474-13.474c0.00-7.411-6.036-13.474-13.474-13.474S 282.947,337.853, 282.947,345.263C 282.947,352.728, 288.984,358.737, 296.421,358.737z M 242.526,358.737
			c 7.437,0.00, 13.474-6.009, 13.474-13.474c0.00-7.411-6.036-13.474-13.474-13.474S 229.053,337.853, 229.053,345.263C 229.053,352.728, 235.089,358.737, 242.526,358.737z M 215.579,277.895
			C 208.141,277.895, 202.105,283.958, 202.105,291.368c0.00,7.464, 6.036,13.474, 13.474,13.474S 229.053,298.833, 229.053,291.368C 229.053,283.958, 223.016,277.895, 215.579,277.895z M 242.526,224.00
			C 235.089,224.00, 229.053,230.063, 229.053,237.474c0.00,7.464, 6.036,13.474, 13.474,13.474S 256.00,244.938, 256.00,237.474C 256.00,230.063, 249.964,224.00, 242.526,224.00z M 269.474,304.842
			c 7.437,0.00, 13.474-6.009, 13.474-13.474c0.00-7.411-6.036-13.474-13.474-13.474S 256.00,283.958, 256.00,291.368C 256.00,298.833, 262.036,304.842, 269.474,304.842z M 269.474,170.105
			c-7.437,0.00-13.447,6.063-13.447,13.474c0.00,7.464, 6.009,13.474, 13.447,13.474s 13.474-6.009, 13.474-13.474C 282.947,176.168, 276.911,170.105, 269.474,170.105z M 296.421,224.00
			c-7.437,0.00-13.474,6.063-13.474,13.474c0.00,7.464, 6.036,13.474, 13.474,13.474s 13.474-6.009, 13.474-13.474C 309.895,230.063, 303.859,224.00, 296.421,224.00z M 323.368,304.842
			c 7.437,0.00, 13.474-6.009, 13.474-13.474c0.00-7.411-6.036-13.474-13.474-13.474S 309.895,283.958, 309.895,291.368C 309.895,298.833, 315.931,304.842, 323.368,304.842z M 323.368,170.105
			c-7.437,0.00-13.447,6.063-13.447,13.474c0.00,7.464, 6.009,13.474, 13.447,13.474s 13.474-6.009, 13.474-13.474C 336.842,176.168, 330.806,170.105, 323.368,170.105z M 350.316,224.00
			c-7.437,0.00-13.474,6.063-13.474,13.474c0.00,7.464, 6.036,13.474, 13.474,13.474s 13.474-6.009, 13.474-13.474C 363.789,230.063, 357.753,224.00, 350.316,224.00z M 377.263,304.842
			c 7.437,0.00, 13.474-6.009, 13.474-13.474c0.00-7.411-6.036-13.474-13.474-13.474S 363.789,283.958, 363.789,291.368C 363.789,298.833, 369.826,304.842, 377.263,304.842z M 377.263,170.105
			c-7.437,0.00-13.447,6.063-13.447,13.474c0.00,7.464, 6.009,13.474, 13.447,13.474s 13.474-6.009, 13.474-13.474C 390.737,176.168, 384.701,170.105, 377.263,170.105z M 404.211,224.00
			c-7.437,0.00-13.447,6.063-13.447,13.474c0.00,7.464, 6.009,13.474, 13.447,13.474s 13.474-6.009, 13.474-13.474C 417.684,230.063, 411.648,224.00, 404.211,224.00z M 404.211,331.789
			c-7.437,0.00-13.474,6.063-13.474,13.474c0.00,7.464, 6.036,13.474, 13.474,13.474s 13.474-6.009, 13.474-13.474C 417.684,337.853, 411.648,331.789, 404.211,331.789z M 431.077,170.105
			c-7.411,0.00-13.393,6.063-13.393,13.474c0.00,7.464, 5.982,13.474, 13.393,13.474c 7.491,0.00, 13.474-6.009, 13.474-13.474C 444.551,176.168, 438.568,170.105, 431.077,170.105z
			 M 458.105,224.00c-7.437,0.00-13.447,6.063-13.447,13.474c0.00,7.464, 6.009,13.474, 13.447,13.474s 13.474-6.009, 13.474-13.474C 471.579,230.063, 465.543,224.00, 458.105,224.00z
			 M 484.972,170.105c-7.411,0.00-13.393,6.063-13.393,13.474c0.00,7.464, 5.982,13.474, 13.393,13.474c 7.491,0.00, 13.474-6.009, 13.474-13.474
			C 498.445,176.168, 492.463,170.105, 484.972,170.105z M 511.919,224.00C 504.509,224.00, 498.526,230.063, 498.526,237.474c0.00,7.464, 5.982,13.474, 13.393,13.474
			c 7.491,0.00, 13.474-6.009, 13.474-13.474C 525.393,230.063, 519.411,224.00, 511.919,224.00z M 512.00,331.789c-7.437,0.00-13.474,6.063-13.474,13.474c0.00,7.464, 6.036,13.474, 13.474,13.474
			s 13.474-6.009, 13.474-13.474C 525.474,337.853, 519.437,331.789, 512.00,331.789z M 538.947,304.842c 7.437,0.00, 13.474-6.009, 13.474-13.474c0.00-7.411-6.036-13.474-13.474-13.474
			S 525.474,283.958, 525.474,291.368C 525.474,298.833, 531.51,304.842, 538.947,304.842z M 538.947,170.105c-7.437,0.00-13.447,6.063-13.447,13.474c0.00,7.464, 6.009,13.474, 13.447,13.474
			s 13.474-6.009, 13.474-13.474C 552.421,176.168, 546.385,170.105, 538.947,170.105z M 565.814,224.00C 558.403,224.00, 552.421,230.063, 552.421,237.474c0.00,7.464, 5.982,13.474, 13.393,13.474
			c 7.491,0.00, 13.474-6.009, 13.474-13.474C 579.288,230.063, 573.305,224.00, 565.814,224.00z M 565.895,331.789c-7.437,0.00-13.474,6.063-13.474,13.474c0.00,7.464, 6.036,13.474, 13.474,13.474
			s 13.474-6.009, 13.474-13.474C 579.368,337.853, 573.332,331.789, 565.895,331.789z M 592.842,170.105c-7.437,0.00-13.447,6.063-13.447,13.474c0.00,7.464, 6.009,13.474, 13.447,13.474
			s 13.474-6.009, 13.474-13.474C 606.316,176.168, 600.28,170.105, 592.842,170.105z M 592.842,277.895c-7.437,0.00-13.447,6.063-13.447,13.474c0.00,7.464, 6.009,13.474, 13.447,13.474
			s 13.474-6.009, 13.474-13.474C 606.316,283.958, 600.28,277.895, 592.842,277.895z M 619.789,224.00c-7.437,0.00-13.447,6.063-13.447,13.474c0.00,7.464, 6.009,13.474, 13.447,13.474
			s 13.474-6.009, 13.474-13.474C 633.263,230.063, 627.227,224.00, 619.789,224.00z M 619.789,331.789c-7.437,0.00-13.447,6.063-13.447,13.474c0.00,7.464, 6.009,13.474, 13.447,13.474
			s 13.474-6.009, 13.474-13.474C 633.263,337.853, 627.227,331.789, 619.789,331.789z M 646.737,277.895c-7.437,0.00-13.447,6.063-13.447,13.474c0.00,7.464, 6.009,13.474, 13.447,13.474
			s 13.474-6.009, 13.474-13.474C 660.211,283.958, 654.174,277.895, 646.737,277.895z M 673.684,331.789c-7.437,0.00-13.474,6.063-13.474,13.474c0.00,7.464, 6.036,13.474, 13.474,13.474
			s 13.474-6.009, 13.474-13.474C 687.158,337.853, 681.122,331.789, 673.684,331.789z" horiz-adv-x="754.5263157894736" />
<glyph unicode="&#xe01f;" d="M 492.331,263.381l-23.616,0.00 c-10.837,0.00-22.336,8.448-25.536,18.816l-13.589,32.981c-5.077,9.515-3.008,23.616, 4.629,31.275l 16.789,16.747
			c 7.659,7.68, 7.659,20.203,0.00,27.883l-27.925,27.84c-7.616,7.659-20.16,7.659-27.819,0.00L 378.453,402.176c-7.616-7.659-21.76-9.749-31.296-4.608
			L 314.24,411.115c-10.325,3.20-18.816,14.699-18.816,25.536L 295.424,460.288 C 295.445,471.104, 286.571,480.00, 275.712,480.00l-39.381,0.00 c-10.837,0.00-19.712-8.896-19.712-19.712
			l0.00-23.637 c0.00-10.837-8.448-22.336-18.795-25.536L 164.885,397.547C 155.285,392.427, 141.248,394.496, 133.589,402.176L 116.80,418.923
			c-7.659,7.659-20.16,7.659-27.84,0.00L 61.12,391.083c-7.701-7.659-7.701-20.203,0.00-27.861L 77.824,346.453c 7.659-7.659, 9.792-21.76, 4.629-31.275
			L 68.907,282.176c-3.243-10.347-14.699-18.816-25.536-18.816l-23.659,0.021C 8.875,263.381,0.00,254.528,0.00,243.691l0.00-39.381 
			c0.00-10.816, 8.875-19.691, 19.712-19.691l 23.659,0.00 c 10.837-0.021, 22.293-8.491, 25.493-18.837l 13.589-32.981c 5.141-9.536, 3.051-23.659-4.629-31.296
			l-16.747-16.747c-7.659-7.659-7.659-20.181,0.00-27.883L 88.96,29.013c 7.659-7.659, 20.16-7.659, 27.84,0.00l 16.789,16.747
			c 7.637,7.637, 21.717,9.728, 31.211,4.587l 33.045-13.589c 10.325-3.20, 18.795-14.677, 18.795-25.515l0.00-23.573 c0.00-10.816, 8.875-19.691, 19.712-19.691
			l 39.381,0.00 c 10.859,0.00, 19.733,8.875, 19.733,19.691l0.00,23.573 c0.00,10.837, 8.469,22.315, 18.816,25.515l 33.024,13.589c 9.515,5.141, 23.595,3.072, 31.296-4.587
			l 16.704-16.747c 7.637-7.659, 20.181-7.659, 27.819,0.00l 27.925,27.861c 7.659,7.68, 7.659,20.203,0.00,27.883l-16.789,16.747
			c-7.616,7.616-9.707,21.76-4.629,31.296l 13.589,32.981c 3.20,10.325, 14.763,18.816, 25.536,18.816l 23.616,0.00 c 10.837,0.00, 19.669,8.853, 19.669,19.691
			l0.00,39.424 C 512.00,254.528, 503.168,263.381, 492.331,263.381z M 354.56,224.021c0.00-54.40-44.096-98.453-98.475-98.453c-54.421,0.00-98.496,44.053-98.496,98.453
			c0.00,54.379, 44.075,98.453, 98.496,98.453C 310.464,322.475, 354.56,278.40, 354.56,224.021z" horiz-adv-x="512.0853271484375" />
<glyph unicode="&#xe020;" d="M 370.193,264.032c 10.179,0.00, 18.508,8.329, 18.508,18.508L 388.701,307.193 c0.00,10.179-8.329,18.508-18.508,18.508l-12.733,0.00c-10.179,0.00-20.673,6.737-23.338,14.973
				c-2.647,8.236-7.163,33.906, 0.037,41.106l 9.069,9.05c 7.20,7.20, 7.20,18.971,0.00,26.189l-17.416,17.434
				c-7.20,7.20-18.971,7.20-26.17,0.00l-9.069-9.087c-7.20-7.20-19.267-9.865-26.836-5.922c-7.57,3.942-29.187,19.026-29.187,29.205L 234.549,461.455 
				c0.00,10.179-8.329,18.508-18.508,18.508l-24.689,0.00 c-10.179,0.00-18.508-8.329-18.508-18.508l0.00-12.807 c0.00-10.179-6.718-20.673-14.973-23.32C 149.636,422.681, 123.984,418.202, 116.803,425.402
				L 107.678,434.489c-7.20,7.20-18.971,7.20-26.17,0.00L 64.093,417.036c-7.20-7.20-7.20-18.989,0.00-26.189l 9.069-9.069
				c 7.20-7.20, 9.846-19.267, 5.904-26.818C 75.142,347.392, 60.076,325.737, 49.897,325.737l-12.844,0.00c-10.179,0.00-18.508-8.329-18.508-18.508l0.00-24.671 c0.00-10.179, 8.329-18.508, 18.508-18.508
				l 12.844,0.00 c 10.179,0.00, 20.655-6.737, 23.301-14.973c 2.665-8.236, 7.144-33.888-0.074-41.069L 64.037,198.922c-7.218-7.20-7.218-18.971-0.019-26.17
				l 17.453-17.453c 7.20-7.20, 18.971-7.20, 26.17,0.00l 9.069,9.069c 7.20,7.20, 19.285,9.865, 26.855,5.922
				c 7.551-3.942, 29.205-19.008, 29.187-29.187l0.00-12.77 c-0.019-10.179, 8.31-18.508, 18.489-18.508l 24.689,0.00 c 10.179,0.00, 18.508,8.329, 18.508,18.508l0.00,12.77 
				c0.00,10.179, 6.737,20.673, 15.01,23.32c 8.236,2.647, 33.906,7.126, 41.106-0.056l 9.069-9.069c 7.20-7.20, 18.971-7.20, 26.17,0.00l 17.416,17.416
				c 7.20,7.20, 7.20,18.971,0.00,26.17l-9.069,9.087c-7.20,7.20-9.846,19.267-5.904,26.836s 19.026,29.224, 29.205,29.224L 370.193,264.032 z
				 M 203.623,214.691c-44.289,0.00-80.213,35.924-80.213,80.194c0.00,44.308, 35.924,80.213, 80.213,80.213c 44.326,0.00, 80.25-35.905, 80.25-80.213
				C 283.873,250.596, 247.931,214.691, 203.623,214.691zM 490.494,38.885c 5.09,0.00, 9.254,4.164, 9.254,9.254l0.00,12.345 c0.00,5.09-4.164,9.254-9.254,9.254L 484.164,69.737 c-5.09,0.00-10.364,3.368-11.697,7.477
				s-3.572,16.953, 0.019,20.544l 4.516,4.534c 3.591,3.591, 3.591,9.495,0.00,13.104l-8.68,8.717c-3.591,3.609-9.495,3.609-13.085,0.00
				l-4.553-4.534c-3.591-3.591-9.643-4.942-13.418-2.961s-14.603,9.495-14.603,14.584L 422.663,137.606 c0.00,5.09-4.164,9.254-9.254,9.254l-12.326,0.00 
				c-5.09,0.00-9.254-4.164-9.254-9.254l0.00-6.422 c0.00-5.09-3.368-10.346-7.477-11.66s-16.972-3.553-20.544,0.037l-4.534,4.534
				c-3.572,3.609-9.476,3.609-13.067,0.00L 337.471,115.396c-3.591-3.591-3.591-9.495-0.019-13.104l 4.516-4.516
				c 3.572-3.609, 4.923-9.643, 2.943-13.437s-9.513-14.603-14.603-14.603l-6.404,0.00 c-5.09,0.00-9.254-4.164-9.254-9.254l0.00-12.345 
				c0.00-5.09, 4.164-9.254, 9.254-9.254l 6.404,0.00 c 5.09,0.00, 10.346-3.368, 11.678-7.477s 3.553-16.935-0.037-20.525l-4.553-4.553
				c-3.591-3.591-3.591-9.476, 0.019-13.085l 8.773-8.754c 3.609-3.591, 9.513-3.591, 13.104,0.019l 4.497,4.516
				c 3.591,3.609, 9.643,4.942, 13.418,2.98s 14.566-9.495, 14.566-14.584l0.00-6.404 c0.00-5.09, 4.164-9.254, 9.254-9.254l 12.40,0.00 c 5.09,0.00, 9.254,4.164, 9.254,9.254
				l0.00,6.404 c0.00,5.09, 3.368,10.346, 7.477,11.66s 16.935,3.553, 20.525-0.037l 4.553-4.534c 3.591-3.591, 9.495-3.591, 13.085,0.00l 8.68,8.699
				c 3.591,3.609, 3.591,9.495,0.00,13.104l-4.516,4.534c-3.591,3.609-4.923,9.643-2.943,13.437s 9.457,14.621, 14.547,14.603L 490.494,38.885 z
				 M 438.117,54.302c0.00-17.027-13.807-30.853-30.834-30.853c-17.064,0.00-30.871,13.825-30.871,30.853c0.00,17.046, 13.807,30.853, 30.871,30.853
				C 424.31,85.154, 438.117,71.348, 438.117,54.302z" horiz-adv-x="512.0925588098596" />
<glyph unicode="&#xe021;" d="M 499.52,40.832l-122.496,122.539c-1.408,1.387-3.008,2.496-4.501,3.669c 20.693,31.765, 32.789,69.589, 32.789,110.315
		c0.00,111.936-90.688,202.667-202.667,202.667c-111.915,0.00-202.667-90.731-202.667-202.667c0.00-111.957, 90.752-202.667, 202.667-202.667c 40.704,0.00, 78.592,12.117, 110.379,32.811
		c 1.173-1.515, 2.24-3.072, 3.627-4.459l 122.496-122.539C 447.509-27.84, 458.432-32.00, 469.312-32.00c 10.923,0.00, 21.824,4.16, 30.208,12.48
		C 516.139-2.837, 516.139,24.171, 499.52,40.832z M 202.645,138.709c-76.459,0.00-138.667,62.208-138.667,138.667c0.00,76.459, 62.208,138.667, 138.667,138.667
		c 76.416,0.00, 138.667-62.208, 138.667-138.667C 341.312,200.917, 279.061,138.709, 202.645,138.709z" horiz-adv-x="512.0426839192708" />
<glyph unicode="&#xe022;" d="M 64.00,257.771L 149.333,343.104L 192.00,343.104L 128.00,224.00L 128.00,96.00L0.00,96.00L0.00,53.333L 170.667,53.333L 170.667,181.333L 256.00,108.416L 256.00-32.00L 298.667-32.00L 298.667,138.667L 213.333,215.083L 234.667,266.667L 256.00,245.333L 384.00,245.333L 384.00,288.00L 277.333,288.00L 277.333,394.667L 128.00,394.667L 42.667,279.104 		zM 256.00,437.333A42.667,42.667 180.00 1,0 341.333,437.33299999999997A42.667,42.667 180.00 1,0 256.00,437.33299999999997z" horiz-adv-x="384" />
<glyph unicode="&#xe023;" d="M 411.826,480.00L 356.174,424.348L 400.696,379.826L 378.435,357.565L 333.913,402.087L 300.522,368.696L 333.913,335.304L 311.652,313.043L 278.261,346.435L 233.739,301.913L 278.261,257.391L 256.00,235.13L 211.478,279.652L 178.087,246.261L 211.478,212.87L 189.217,190.609L 155.826,224.00L 122.435,190.609L 166.957,146.087L 144.696,123.826L 100.174,168.348L 66.783,134.957L 100.174,101.565L 77.913,79.304L 44.522,112.696L0.00,68.174L 100.174-32.00L 512.00,379.826 	z" />
<glyph unicode="&#xe024;" d="M 499.73,253.743L 285.743,467.73c-16.366,16.366-43.138,16.366-59.504,0.00L 12.27,253.743
		c-16.366-16.366-16.366-43.156,0.00-59.504l 213.987-213.987c 16.366-16.348, 43.138-16.348, 59.504,0.00l 213.987,213.987
		C 516.096,210.587, 516.096,237.376, 499.73,253.743z M 322.974,231.964c-2.231-6.638-7.187-9.893-11.575-9.893
		c-6.089,0.00-11.082,3.255-12.746,9.893l-10.478,31.507l-33.153-21.505c-14.885-9.417-24.284-25.985-24.284-45.332l0.00-104.433 L 168.875,92.201 l0.00,104.433 
		c0.00,40.303, 21.505,76.218, 54.091,97.21l 30.959,19.896l-25.948,19.31c-6.089,4.462-7.205,9.984-5.559,15.507
		c 1.664,4.425, 6.656,7.187, 14.903,7.187L 369.385,355.744 L 322.974,231.964z" />
<glyph unicode="&#xe025;" d="M 417.185,242.963c-15.72,0.00-28.444-12.724-28.444-28.444c0.00-88.879-72.306-161.185-161.185-161.185c-88.879,0.00-161.185,72.306-161.185,161.185c0.00,88.879, 72.306,161.185, 161.185,161.185l0.00,0.00 L 227.556,328.296 
		l 113.778,75.852l-113.778,75.852l0.00-47.407 l0.00,0.00 C 107.311,432.593, 9.481,334.763, 9.481,214.519c0.00-120.244, 97.83-218.074, 218.074-218.074c 120.244,0.00, 218.074,97.83, 218.074,218.074
		C 445.63,230.239, 432.887,242.963, 417.185,242.963z" horiz-adv-x="455.1300636574074" />
<glyph unicode="&#xe026;" d="M 418.816,64.727c-33.853-23.716-73.441-35.615-113.93-35.062c-5.345,0.061-10.67,0.328-15.913,0.799
			c-2.15,0.205-4.301,0.532-6.451,0.819c-4.137,0.532-8.253,1.106-12.308,1.884c-2.478,0.471-4.895,1.106-7.352,1.679
			c-3.932,0.922-7.885,1.864-11.735,3.011c-1.864,0.553-3.666,1.229-5.509,1.843c-4.444,1.475-8.868,3.011-13.169,4.813
			c-0.983,0.41-1.925,0.86-2.888,1.29c-5.038,2.191-10.015,4.547-14.828,7.148c-0.205,0.123-0.43,0.246-0.635,0.369
			c-16.302,8.95-31.191,20.091-44.257,33.137c-0.225,0.225-0.43,0.451-0.635,0.676c-4.055,4.076-7.926,8.335-11.612,12.78
			c-0.799,0.942-1.516,1.987-2.294,2.949C 128.676,136.141, 112.64,178.268, 112.64,224.082L 163.84,224.082 l-81.92,122.88l-81.92-122.88l 51.20,0.00 c0.00-53.862, 16.794-103.793, 45.322-145.08
			c 0.369-0.573, 0.594-1.208, 0.983-1.761c 2.949-4.219, 6.226-8.11, 9.40-12.124c 1.188-1.495, 2.294-3.052, 3.523-4.547
			c 4.69-5.652, 9.626-10.998, 14.725-16.20c 0.471-0.492, 0.922-1.024, 1.413-1.495c 17.121-17.142, 36.454-31.58, 57.508-43.11
			c 0.573-0.328, 1.126-0.655, 1.70-0.963c 6.062-3.256, 12.288-6.226, 18.637-8.991c 1.577-0.676, 3.113-1.413, 4.69-2.109
			c 5.427-2.232, 10.957-4.198, 16.568-6.062c 2.642-0.901, 5.263-1.843, 7.946-2.642c 4.895-1.454, 9.892-2.683, 14.93-3.85
			c 3.359-0.778, 6.676-1.618, 10.076-2.273c 1.393-0.287, 2.744-0.696, 4.137-0.942c 4.751-0.84, 9.503-1.29, 14.254-1.884
			c 1.72-0.205, 3.40-0.492, 5.12-0.676c 8.54-0.84, 17.06-1.372, 25.559-1.372c 52.06,0.00, 102.81,15.892, 146.371,46.428
			c 13.906,9.748, 17.285,28.877, 7.537,42.783C 451.85,71.096, 432.681,74.455, 418.816,64.727zM 563.22,224.082c-0.02,53.699-16.712,103.526-45.097,144.732c-0.41,0.696-0.696,1.413-1.167,2.068
			c-3.523,5.038-7.373,9.728-11.203,14.438c-0.451,0.573-0.86,1.167-1.331,1.72C 478.454,418.56, 445.829,442.931, 408.863,458.844
			c-1.024,0.451-2.028,0.922-3.031,1.352c-5.898,2.458-11.94,4.608-18.043,6.615c-2.171,0.737-4.342,1.516-6.554,2.191
			c-5.304,1.597-10.67,2.888-16.097,4.157c-2.99,0.696-5.98,1.454-9.011,2.048c-1.475,0.287-2.908,0.737-4.383,1.004
			c-4.055,0.717-8.11,1.024-12.165,1.536c-2.806,0.348-5.55,0.799-8.376,1.065c-6.799,0.635-13.558,0.922-20.316,1.024
			C 309.637,479.836, 308.449,480.00, 307.22,480.00c-0.225,0.00-0.43-0.061-0.655-0.061c-51.999-0.041-102.646-15.749-146.166-46.203
			c-13.906-9.728-17.285-28.877-7.537-42.783c 9.708-13.906, 28.877-17.285, 42.783-7.537c 33.608,23.532, 72.806,35.451, 113.009,35.082
			c 5.755-0.041, 11.469-0.328, 17.101-0.86c 1.72-0.164, 3.441-0.43, 5.161-0.655c 4.628-0.573, 9.216-1.229, 13.722-2.109
			c 2.007-0.41, 3.953-0.901, 5.919-1.352c 4.444-1.004, 8.868-2.089, 13.189-3.40c 1.372-0.43, 2.724-0.922, 4.096-1.372
			c 4.936-1.618, 9.81-3.359, 14.582-5.345c 0.492-0.205, 0.983-0.43, 1.454-0.655c 28.611-12.329, 53.74-31.273, 73.339-54.989
			c 0.123-0.143, 0.246-0.328, 0.369-0.471c 27.587-33.567, 44.175-76.493, 44.196-123.228L 450.56,224.061 l 81.94-122.88l 81.90,122.88L 563.22,224.061 z" horiz-adv-x="593.92" />
<glyph unicode="&#xe027;" d="M 132.76,366.222A37.926,37.926 180.00 1,0 208.612,366.222A37.926,37.926 180.00 1,0 132.76,366.222zM 437.001,42.999c 99.973,99.935, 99.992,261.992,0.00,362.003L 256.00,224.00L 437.001,42.999zM 511.507,233.481c-4.93,133.784-112.261,241.114-246.007,246.044L 265.50,480.00 l-18.963,0.00 l0.00-0.474 C 112.754,474.633, 5.404,367.265, 0.474,233.481
			L 0.019,233.481 l0.00-9.14 C 0.019,224.228,0.00,224.114,0.00,224.00c0.00-0.152, 0.019-0.265, 0.019-0.379L 0.019,214.519 l 0.455,0.00 c 4.911-133.784, 112.28-241.152, 246.063-246.082L 246.537-32.00 
			l 9.083,0.00 c 0.133,0.00, 0.247,0.00, 0.379,0.00s 0.247,0.00, 0.379,0.00l 9.121,0.00 l0.00,0.436 c 133.765,4.93, 241.095,112.337, 246.007,246.082l 0.512,0.00 l0.00,18.963 L 511.507,233.481 z M 246.537,214.519
			l0.00-44.563 c-22.642,3.963-40.486,21.883-44.449,44.563L 246.537,214.519 z M 202.088,233.481c 3.982,22.661, 21.807,40.562, 44.449,44.563L 246.537,233.481 L 202.088,233.481 z M 265.50,214.519l 44.43,0.00 
			c-3.982-22.623-21.788-40.562-44.43-44.525L 265.50,214.519 z M 265.50,233.481l0.00,44.563 c 22.604-4.001, 40.448-21.921, 44.43-44.563L 265.50,233.481 z M 246.537,296.268
			C 213.845,291.963, 188.113,266.231, 183.808,233.481L 110.213,233.481 c 4.722,73.083, 63.26,131.622, 136.325,136.325L 246.537,296.268 z M 183.808,214.519
			c 4.286-32.749, 30.018-58.52, 62.729-62.786l0.00-73.557 C 173.454,82.897, 114.916,141.435, 110.213,214.519L 183.808,214.519 z M 265.50,151.732
			c 32.692,4.267, 58.425,30.037, 62.711,62.786l 73.595,0.00 c-4.703-73.083-63.241-131.584-136.306-136.325L 265.50,151.732 z M 328.211,233.481
			c-4.305,32.749-30.037,58.482-62.711,62.786L 265.50,369.806 c 73.064-4.741, 131.565-63.26, 136.306-136.325L 328.211,233.481 z M 246.537,461.227l0.00-73.14 
			C 163.252,383.327, 96.692,316.786, 91.932,233.481L 18.754,233.481 C 23.666,356.968, 123.051,456.334, 246.537,461.227z M 18.754,214.519l 73.159,0.00 
			c 4.741-83.304, 71.32-149.845, 154.605-154.586l0.00-73.178 C 123.032-8.372, 23.647,91.032, 18.754,214.519z M 265.50-13.265l0.00,73.178 
			c 83.285,4.779, 149.826,71.339, 154.567,154.586l 73.14,0.00 C 488.334,91.032, 388.987-8.334, 265.50-13.265z M 420.068,233.481
			c-4.76,83.304-71.301,149.807-154.567,154.586L 265.50,461.227 C 388.968,456.334, 488.315,356.968, 493.227,233.481L 420.068,233.481 zM 341.352,119.704A37.926,37.926 180.00 1,0 417.204,119.70400000000001A37.926,37.926 180.00 1,0 341.352,119.70400000000001z" horiz-adv-x="512.0189525462963" />
<glyph unicode="&#xe028;" d="M 348.733,480.00c 20.111-38.318, 53.33-113.992, 82.657-124.396
		c 3.42,2.765, 6.82,5.55, 10.26,8.397c 4.362,69.325, 110.162,94.597, 129.004,2.806c 19.374-93.716-67.154-57.958-106.148-86.036
		c 21.586-42.639, 44.544-89.088, 66.13-131.727c-31.089-16.568-81.838-59.351-118.723-65.72c-6.881,1.208-6.554,8.888-8.97,11.96
		c 12.329,78.316-40.837,137.441-116.285,57.795c-62.321-65.925, 64.328-99.123, 57.324-117.719c-37.192-22.958-75.53-44.442-112.722-67.359
		c-25.682,40.96-51.794,83.763-77.476,124.723c-5.12-2.314-10.281-4.649-15.36-6.922c-15.79-55.767-98.816-114.196-132.69-11.715
		c-27.648,83.722, 50.524,79.872, 96.317,84.603c 2.929,2.519, 5.796,4.915, 8.704,7.475c-22.774,43.438-47.944,87.716-70.738,131.236
		c 39.424,22.753, 79.852,47.759, 119.235,70.595c 31.293-32.87-16.916-110.367, 64.41-108.646c 51.548,1.167, 98.55,67.83, 62.71,114.156
		c-19.886,11.366-48.21,9.994-54.60,24.965c-6.472,14.991, 1.597,9.953, 2.376,14.95C 272.855,435.046, 310.149,458.394, 348.733,480.00z" horiz-adv-x="573.44" />
<glyph unicode="&#xe029;" d="M 692.706,480.00C 662.588,480.00, 30.118,480.00, 30.118,480.00S0.00,480.00,0.00,449.882s0.00-451.765,0.00-451.765s0.00-30.118, 30.118-30.118s 662.588,0.00, 662.588,0.00s 30.118,0.00, 30.118,30.118s0.00,451.765,0.00,451.765S 722.824,480.00, 692.706,480.00z M 195.765,389.647C 237.357,389.647, 271.059,355.945, 271.059,314.353
		S 237.357,239.059, 195.765,239.059S 120.471,272.76, 120.471,314.353S 154.172,389.647, 195.765,389.647z M 300.634,58.353L 90.895,58.353 C 90.895,58.353, 60.235,208.941, 195.765,208.941S 300.634,58.353, 300.634,58.353z M 617.412,58.353l-210.824,0.00 
		c-8.282,0.00-15.059,6.776-15.059,15.059s 6.776,15.059, 15.059,15.059l 210.824,0.00 c 8.282,0.00, 15.059-6.776, 15.059-15.059S 625.694,58.353, 617.412,58.353z M 617.412,118.588l-210.824,0.00 
		c-8.282,0.00-15.059,6.776-15.059,15.059s 6.776,15.059, 15.059,15.059l 210.824,0.00 c 8.282,0.00, 15.059-6.776, 15.059-15.059S 625.694,118.588, 617.412,118.588z M 617.412,178.824l-210.824,0.00 
		C 398.336,178.824, 391.529,185.60, 391.529,193.882S 398.336,208.941, 406.588,208.941l 210.824,0.00 C 625.694,208.941, 632.471,202.165, 632.471,193.882S 625.694,178.824, 617.412,178.824z M 617.412,239.059l-210.824,0.00 C 398.336,239.059, 391.529,245.835, 391.529,254.118
		S 398.336,269.176, 406.588,269.176l 210.824,0.00 C 625.694,269.176, 632.471,262.40, 632.471,254.118S 625.694,239.059, 617.412,239.059z M 617.412,299.294l-210.824,0.00 C 398.336,299.294, 391.529,306.071, 391.529,314.353S 398.336,329.412, 406.588,329.412l 210.824,0.00 
		C 625.694,329.412, 632.471,322.635, 632.471,314.353S 625.694,299.294, 617.412,299.294z M 617.412,359.529l-210.824,0.00 C 398.336,359.529, 391.529,366.306, 391.529,374.588S 398.336,389.647, 406.588,389.647l 210.824,0.00 C 625.694,389.647, 632.471,382.871, 632.471,374.588
		S 625.694,359.529, 617.412,359.529z" horiz-adv-x="722.8235294117646" />
<glyph unicode="&#xe02a;" d="M 365.714,480.00L 487.619,358.095L 365.714,358.095 		zM 536.381,187.429l-48.762,0.00 L 487.619,333.714 l-146.286,0.00 L 341.333,480.00 L 97.524,480.00 l0.00-292.571 L 48.762,187.429 c-26.819,0.00-48.762-21.943-48.762-48.762l0.00-121.905 c0.00-26.819, 21.943-48.762, 48.762-48.762l 487.619,0.00 c 26.819,0.00, 48.762,21.943, 48.762,48.762l0.00,121.905 C 585.143,165.486, 563.20,187.429, 536.381,187.429z M 158.476,431.238l 121.905,0.00 
			C 287.11,431.238, 292.571,425.777, 292.571,419.048S 287.11,406.857, 280.381,406.857l-121.905,0.00 C 151.747,406.857, 146.286,412.318, 146.286,419.048S 151.747,431.238, 158.476,431.238z M 158.476,358.095l 121.905,0.00 C 287.11,358.095, 292.571,352.634, 292.571,345.905
			S 287.11,333.714, 280.381,333.714l-121.905,0.00 C 151.747,333.714, 146.286,339.176, 146.286,345.905S 151.747,358.095, 158.476,358.095z M 158.476,284.952l 268.19,0.00 C 433.396,284.952, 438.857,279.491, 438.857,272.762S 433.396,260.571, 426.667,260.571l-268.19,0.00 
			C 151.747,260.571, 146.286,266.033, 146.286,272.762S 151.747,284.952, 158.476,284.952z M 499.81,65.524c-20.187,0.00-36.571,16.384-36.571,36.571s 16.384,36.571, 36.571,36.571s 36.571-16.384, 36.571-36.571
			S 519.997,65.524, 499.81,65.524z" horiz-adv-x="585.1428571428571" />
<glyph unicode="&#xe02b;" d="M 625.304,478.754c-5.597,2.855-12.396,0.612-15.228-4.963c-28.961-57.015-52.007-53.434-90.168-47.633
		c-23.726,3.626-53.253,8.135-88.672-2.697c-18.899-5.801-35.668-20.146-49.423-36.076l-29.278,29.255l-96.173,0.00 L0.00,160.30l 192.278-192.278
		l 256.363,256.34L 448.64,320.513 l-50.76,50.76c 11.829,14.027, 25.539,26.083, 39.974,30.524c 30.479,9.359, 56.063,5.439, 78.588,1.994
		c 39.838-6.118, 77.432-11.852, 113.803,59.757C 633.10,469.123, 630.879,475.921, 625.304,478.754z M 279.273,201.747c-5.393,6.186-15.545,17.947-35.238,26.423
		c-17.698,7.569-26.808,2.13-30.071-5.507c-3.784-8.747, 3.241-18.831, 23.046-37.345c 27.601-25.403, 33.991-45.911, 23.318-70.747
		c-10.447-24.27-36.257-37.73-69.864-29.482l-12.056-28.099l-26.989,11.602l 11.104,25.947c-17.947,8.656-33.447,21.46-41.356,31.635l 21.89,28.349
		c 8.792-11.126, 22.389-23.794, 40.132-31.431c 15.817-6.753, 29.187-5.076, 33.719,5.575c 4.464,10.379-1.473,20.644-18.99,36.28
		c-25.018,22.321-39.09,44.529-27.714,70.997c 10.401,24.27, 35.396,35.85, 66.918,28.779l 11.126,25.947l 26.74-11.466l-10.288-23.998
		c 17.743-8.294, 28.303-17.653, 35.985-26.105L 279.273,201.747z M 384.578,352.578c 17.698-17.698, 17.698-46.432,0.00-64.108
		c-8.86-8.838-20.44-13.257-32.042-13.257s-23.205,4.419-32.065,13.279c-17.698,17.675-17.698,46.387,0.00,64.085
		c 8.838,8.86, 20.44,13.257, 32.042,13.257c 3.943,0.00, 7.841-0.68, 11.67-1.70c-5.144-7.705-9.472-15.024-12.894-21.211
		c-5.575-0.317-10.809-2.402-14.775-6.368c-4.283-4.283-6.64-9.971-6.64-16.021c0.00-6.073, 2.357-11.738, 6.617-16.021
		c 4.283-4.283, 9.993-6.64, 16.044-6.64s 11.738,2.357, 16.021,6.64c 4.26,4.26, 6.617,9.948, 6.617,15.999
		c0.00,4.328-1.586,8.294-3.83,11.852c 3.535,6.345, 7.841,13.438, 12.713,20.621C 384.215,352.85, 384.419,352.736, 384.578,352.578z" horiz-adv-x="631.4908552534775" />
<glyph unicode="&#xe02c;" d="M 469.333,351.979l-85.333,0.00 L 384.00,352.00 c0.00,70.592-57.408,128.00-128.00,128.00S 128.00,422.571, 128.00,352.00l0.00-0.021 L 42.667,351.979 L0.00,351.979 l0.00-42.56 C0.00,309.355,0.00,309.333,0.00,309.312l0.00-298.667 c0.00-23.552, 19.115-42.667, 42.667-42.667l 426.667,0.00 
			c 23.552,0.00, 42.667,19.115, 42.667,42.667l0.00,42.667 L0.00,53.312 l0.00,21.333 l 512.00,0.00 l0.00,213.333 l0.00,21.333 l0.00,42.667 L 469.333,351.979 z M 341.333,351.979L 170.667,351.979 L 170.667,352.00 c0.00,47.061, 38.272,85.333, 85.333,85.333S 341.333,399.04, 341.333,351.979L 341.333,351.979z" horiz-adv-x="512.0213216145833" />
<glyph unicode="&#xe02d;" d="M 402.577,437.332c-126.405,0.00-168.519,0.00-294.946,0.00c-143.537,0.00-143.515-426.684,0.00-426.684c 126.384,0.00, 168.519,0.00, 294.946,0.00C 545.473,10.647, 545.473,437.332, 402.577,437.332z
			 M 191.048,223.989c0.00-11.798-9.536-21.334-21.334-21.334c-11.776,0.00-21.334,9.536-21.334,21.334L 148.38,309.326 c0.00,11.798, 9.558,21.334, 21.334,21.334c 11.798,0.00, 21.334-9.536, 21.334-21.334L 191.048,223.989 z M 297.719,74.65l-85.337,0.00 l0.00,21.334 
			c0.00,23.574, 19.115,42.668, 42.668,42.668s 42.668-19.094, 42.668-42.668L 297.719,74.65 z M 361.722,223.989c0.00-11.798-9.536-21.334-21.334-21.334c-11.776,0.00-21.334,9.536-21.334,21.334L 319.053,309.326 c0.00,11.798, 9.558,21.334, 21.334,21.334
			c 11.798,0.00, 21.334-9.536, 21.334-21.334L 361.722,223.989 z" horiz-adv-x="512.0426450050658" />
<glyph unicode="&#xe02e;" d="M 193.024,69.611C 224.853,46.08, 264.149,32.00, 306.795,32.00c 96.981,0.00, 177.024,72.064, 189.952,165.547c-40.939-27.755-90.475-54.72-145.771-78.037
			C 295.531,96.107, 241.557,79.531, 193.024,69.611zM 455.275,345.643c-10.176,12.416-21.952,23.36-34.88,32.896C 388.587,401.984, 349.312,416.00, 306.795,416.00c-97.024,0.00-177.024-72.00-189.952-165.44
			C 115.605,241.856, 114.795,233.024, 114.795,224.00c0.00-7.339, 0.469-14.549, 1.28-21.675c 4.245-37.653, 19.285-71.979, 42.112-99.819
			c 53.44,8.192, 115.307,26.283, 177.792,52.629c 62.208,26.219, 118.059,57.685, 161.515,90.411C 493.291,283.307, 478.165,317.76, 455.275,345.643zM 610.475,352.107c-10.581,25.109-45.888,37.333-96.299,37.333c-27.328,0.00-59.20-3.797-93.781-10.901
			c 12.907-9.536, 24.704-20.48, 34.88-32.896c 21.12,3.243, 41.003,5.099, 58.923,5.099c0.00,0.00,0.00,0.00, 0.064,0.00c 45.077,0.00, 59.435-10.944, 60.565-13.675
			c 1.259-2.944-2.048-26.539-47.915-67.605c-8.896-8.00-18.923-15.979-29.419-23.893c-43.456-32.747-99.307-64.192-161.515-90.411
			c-62.485-26.325-124.352-44.437-177.792-52.629c-20.949-3.221-40.789-5.056-58.645-5.056c-45.12,0.00-59.541,10.965-60.672,13.632
			c-4.501,10.645, 19.456,47.509, 77.205,91.243c-0.789,7.104-1.28,14.336-1.28,21.675c0.00,9.024, 0.811,17.856, 2.048,26.56
			c-83.029-56.32-129.941-115.776-113.579-154.496c 10.56-25.088, 45.952-37.291, 96.277-37.291c 27.20,0.00, 59.051,3.776, 93.504,10.837
			c 48.533,9.92, 102.507,26.496, 157.952,49.899c 55.296,23.317, 104.832,50.283, 145.771,78.037C 579.819,253.867, 626.816,313.387, 610.475,352.107z" horiz-adv-x="640" />
<glyph unicode="&#xe02f;" d="M 490.667,117.333l0.00,42.667 l-192.00,128.00L 298.667,437.333 c0.00,0.00,0.00,42.667-42.667,42.667s-42.667-42.667-42.667-42.667l0.00-149.333 l-192.00-128.00l0.00-42.667 l 192.00,64.00l0.00-119.467 L 149.333,10.667l0.00-42.667 l 106.667,42.667l 106.667-42.667l0.00,42.667 l-64.00,51.20L 298.667,181.333 L 490.667,117.333z" horiz-adv-x="512.0853271484375" />
<glyph unicode="&#xe030;" d="M 430.216,19.246c0.00-28.157, 28.823-51.195, 63.994-51.195l0.00,0.00c 35.171,0.00, 63.994,23.038, 63.891,63.738L 558.101,121.636 c 0.102,15.589-28.72,0.00-63.891,0.00l0.00,0.00
			c-35.171,0.00-63.994-23.038-63.994-51.195L 430.216,19.246 zM 148.644,19.195c0.00-28.157, 28.823-51.195, 63.994-51.195l0.00,0.00c 35.171,0.00, 63.994,23.038, 63.994,51.195l0.00,51.195 c0.00,28.157-28.823,51.195-63.994,51.195l0.00,0.00c-35.171,0.00-63.994,2.56-63.994-25.597L 148.644,19.195 z
			M 686.191,198.428c0.00-14.079-11.519-25.597-25.597-25.597l-102.39,0.00 c-14.079,0.00-25.597,11.519-25.597,25.597L 532.606,300.818 c0.00,14.079, 11.519,25.597, 25.597,25.597l 102.39,0.00 c 14.079,0.00, 25.597-11.519, 25.597-25.597L 686.191,198.428 zM 2.304,351.91c-5.119,4.275-8.396-93.533, 68.96-149.105s 78.712,114.037, 28.618,81.067C 49.761,250.929, 7.423,347.661, 2.304,351.91zM 617.999,440.478c 10.495,25.341-142.962,22.705-140.402-104.054c 2.534-126.784, 106.434-80.094, 90.103-11.928
			C 551.266,392.585, 607.453,415.11, 617.999,440.478zM 71.852,249.623c0.00-127.245, 126.067-230.377, 281.572-230.377s 281.572,103.132, 281.572,230.377s-126.067,230.377-281.572,230.377S 71.852,376.868, 71.852,249.623z M 225.437,403.208c0.00,0.00, 63.61,25.597, 114.805,25.597
			s 115.572-25.597, 115.572-25.597l0.00-51.195 c0.00,0.00-64.378,25.597-115.572,25.597S 225.437,352.013, 225.437,352.013L 225.437,403.208 z" horiz-adv-x="686.1905328875542" />
<glyph unicode="&#xe031;" d="M 106.667,394.667l0.00-426.667 l 384.00,0.00 L 490.667,394.667 L 106.667,394.667 z M 448.00,74.688L 149.333,74.688 L 149.333,352.00 l 298.667,0.00 L 448.00,74.688 zM 85.333,160.021L 64.00,160.021L 64.00,437.333L 362.667,437.333L 362.667,416.00L 405.333,416.00L 405.333,480.00L 21.333,480.00L 21.333,53.333L 85.333,53.333 		z" horiz-adv-x="512.0213216145833" />
<glyph unicode="&#xe032;" d="M 40.96,336.64L 450.56,336.64L 450.56,8.96L 40.96,8.96zM0.00,377.60l0.00-409.60 l 491.52,0.00 L 491.52,377.60 L0.00,377.60 z M 430.08,29.44L 61.44,29.44 L 61.44,316.16 l 368.64,0.00 L 430.08,29.44 zM 225.28,459.52A20.48,20.48 180.00 1,0 266.24,459.52A20.48,20.48 180.00 1,0 225.28,459.52zM 140.37,339.651L 125.87,354.13L 238.51,466.77L 253.01,452.291L 140.37,339.651 		zM 351.15,339.651L 238.51,452.291L 253.01,466.77L 365.65,354.13L 351.15,339.651 		z" horiz-adv-x="491.54046875" />
<glyph unicode="&#xe033;" d="M 142.222,295.111A71.111,71.111 180.00 1,0 284.444,295.111A71.111,71.111 180.00 1,0 142.222,295.111zM 654.222,480.00C 625.778,480.00, 28.444,480.00, 28.444,480.00S0.00,480.00,0.00,451.556s0.00-455.111,0.00-455.111s0.00-28.444, 28.444-28.444s 625.778,0.00, 625.778,0.00s 28.444,0.00, 28.444,28.444s0.00,455.111,0.00,455.111S 682.667,480.00, 654.222,480.00z M 625.778,24.889L 56.889,24.889 L 56.889,423.111 l 568.889,0.00 L 625.778,24.889 zM 597.333,53.333c0.00,0.00-28.444,170.667-113.778,170.667s-113.778-113.778-170.667-113.778s-56.889,28.444-113.778,28.444s-113.778-85.333-113.778-85.333L 597.333,53.333 z" horiz-adv-x="682.6666666666666" />
<glyph unicode="&#xe034;" d="M 17.813,429.376c-18.603-23.168-59.797-133.504, 116.779-314.133c 186.048-190.379, 306.048-149.632, 326.677-128.213l-124.352,124.203
				c-17.387-17.323-39.765-1.92-82.752,33.045c-28.373,23.125-61.099,54.208-89.472,89.344c-19.904,24.576-37.504,50.411-19.328,68.587L 17.813,429.376zM 506.261,31.509c 8.064,8.085, 7.253,20.331-0.085,27.712l0.00,0.128 c0.00,0.00-97.045,96.704-97.088,96.747
				c-7.68,7.659-19.989,7.509-27.605-0.043l-35.179-35.20l 124.693-124.501c0.00,0.00, 35.221,35.093, 35.179,35.115L 506.261,31.509zM 190.187,346.965c 8.064,8.085, 7.317,20.331,0.00,27.669L 190.187,374.741 c0.00,0.00-99.84,99.499-99.883,99.541C 82.603,482.005, 70.315,481.792, 62.699,474.24
				L 27.52,439.04l 127.488-127.253c0.00,0.00, 35.20,35.051, 35.20,35.093L 190.208,346.965 z" />
<glyph unicode="&#xe035;" d="M 235.294,107.945l-69.706,101.355L 169.307,242.056l 76.607-53.995l 19.772,28.294l-90.03,63.414L 183.416,356.738L 92.547,402.401L 10.315,312.695
		l-2.955-130.488l 38.647,0.00 l 1.144,111.937l 35.73,31.287l-1.354-126.313l 3.089-2.936L0.00-25.518l 36.778-6.482l 93.252,188.201l 58.781-73.214l 31.745-113.996
		l 43.966,0.00 L 235.294,107.945zM 122.309,437.063A42.899,42.899 180.00 1,0 208.106,437.063A42.899,42.899 180.00 1,0 122.309,437.063z" horiz-adv-x="265.6855660430293" />
<glyph unicode="&#xe036;" d="M 44.522,101.565L 133.565,12.522L0.00-32.00 		zM 422.957,480.00L 512.022,390.957L 434.087,313.043L 345.043,402.087zM 133.587,12.522L 44.544,101.565L 322.783,379.826L 411.826,290.783zM 322.783,379.826L 345.043,402.087L 434.087,313.043L 411.826,290.783z" />
<glyph unicode="&#xe037;" d="M 512.00,394.624c0.00,47.125-38.208,85.333-85.333,85.333c-47.147,0.00-85.355-38.229-85.355-85.333c0.00-39.701, 27.243-72.789, 64.00-82.325l0.00-67.008 l-67.029,0.00 
			c-9.515,36.757-42.603,64.021-82.325,64.021s-72.811-27.264-82.325-64.021L 63.979,245.291 l0.00-109.632 c-36.736-9.536-64.00-42.624-64.00-82.325
			c0.00-47.168, 38.208-85.376, 85.355-85.376c 47.125,0.00, 85.333,38.208, 85.333,85.376c0.00,39.701-27.264,72.832-64.021,82.325l0.00,66.965 l 67.008,0.00 
			c 9.515-36.757, 42.603-64.00, 82.325-64.00c 39.723,0.00, 72.832,27.243, 82.325,64.00l 109.696,0.00 L 448.00,312.299 C 484.715,321.792, 512.00,354.901, 512.00,394.624z M 128.00,53.333
			c0.00-23.573-19.115-42.709-42.667-42.709c-23.573,0.00-42.688,19.115-42.688,42.709c0.00,23.552, 19.115,42.667, 42.688,42.667C 108.885,96.00, 128.00,76.885, 128.00,53.333z M 255.957,181.291
			c-23.573,0.00-42.667,19.115-42.667,42.667c0.00,23.573, 19.115,42.688, 42.667,42.688s 42.667-19.115, 42.667-42.688C 298.645,200.427, 279.531,181.291, 255.957,181.291z M 426.667,351.957
			c-23.573,0.00-42.688,19.115-42.688,42.667c0.00,23.573, 19.115,42.667, 42.688,42.667c 23.552,0.00, 42.667-19.093, 42.667-42.667C 469.333,371.093, 450.219,351.957, 426.667,351.957z" horiz-adv-x="512.0213216145833" />
<glyph unicode="&#xe038;" d="M 74.217-32.00c-3.078,0.00-6.172,0.913-8.879,2.815c-9.188,6.45-17.804,14.308-25.615,23.326C 34.138,0.592, 34.835,10.368, 41.30,15.952
				c 6.481,5.60, 16.226,4.888, 21.826-1.578c 6.156-7.10, 12.885-13.241, 20.00-18.253c 6.992-4.903, 8.678-14.556, 3.774-21.563
				C 83.884-29.695, 79.089-32.00, 74.217-32.00z M 319.188-26.138c-8.771,0.00-17.216,1.129-25.09,3.341c-8.214,2.32-13.009,10.874-10.689,19.088
				s 10.89,12.947, 19.088,10.689c 7.409-2.088, 15.685-2.691, 24.888-1.763c 8.647,0.789, 16.087-5.383, 16.922-13.86
				c 0.835-8.508-5.367-16.072-13.875-16.922C 326.551-25.936, 322.808-26.138, 319.188-26.138z M 384.835-1.419
				c-4.486,0.00-8.925,1.934-11.988,5.677c-5.414,6.62-4.424,16.365, 2.196,21.764c 7.115,5.816, 13.55,12.421, 19.134,19.629
				c 5.244,6.729, 14.942,7.982, 21.702,2.738c 6.744-5.228, 7.982-14.958, 2.738-21.702c-7.007-9.033-15.082-17.309-24.007-24.61
				C 391.75-0.275, 388.285-1.419, 384.835-1.419z M 251.406,14.652c-5.043,0.00-9.993,2.459-12.962,6.992
				c-5.337,8.167-10.395,17.371-15.901,28.941c-3.666,7.703-0.402,16.938, 7.316,20.619c 7.719,3.62, 16.938,0.402, 20.619-7.332
				c 4.826-10.132, 9.358-18.407, 13.86-25.291c 4.671-7.162, 2.676-16.737-4.486-21.424C 257.253,15.472, 254.314,14.652, 251.406,14.652z
				 M 21.501,42.495c-6.559,0.00-12.638,4.192-14.741,10.781c-3.62,11.40-5.878,22.785-6.729,33.798c-0.65,8.523, 5.739,15.948, 14.246,16.597
				c 8.616,0.619, 15.948-5.739, 16.597-14.246c 0.65-8.647, 2.459-17.665, 5.367-26.776c 2.583-8.136-1.918-16.845-10.054-19.428
				C 24.641,42.712, 23.063,42.495, 21.501,42.495z M 426.878,77.67c-8.322,0.00-15.205,6.636-15.453,15.02c-0.139,4.702-0.727,8.74-1.408,13.612
				c-0.619,4.501-1.33,9.575-1.949,16.087c-0.789,8.508, 5.46,16.056, 13.952,16.86c 8.60,0.82, 16.056-5.476, 16.86-13.952
				c 0.557-5.955, 1.207-10.611, 1.779-14.71c 0.851-6.079, 1.516-11.137, 1.686-16.984c 0.247-8.554-6.481-15.669-15.02-15.917
				C 427.187,77.67, 427.033,77.67, 426.878,77.67z M 211.188,98.258c-5.708,0.00-11.199,3.171-13.891,8.647c-4.965,10.054-9.621,17.928-14.246,24.038
				c-5.166,6.806-3.836,16.505, 2.97,21.671s 16.52,3.805, 21.671-2.97c 5.924-7.811, 11.447-17.062, 17.371-29.08
				c 3.774-7.657, 0.619-16.938-7.038-20.712C 215.813,98.769, 213.478,98.258, 211.188,98.258z M 31.725,130.943
				c-3.279,0.00-6.574,1.036-9.374,3.186c-6.791,5.182-8.074,14.896-2.893,21.671c 7.347,9.59, 16.35,17.804, 26.76,24.393
				c 7.208,4.594, 16.768,2.429, 21.331-4.795c 4.563-7.224, 2.429-16.783-4.795-21.346c-7.316-4.64-13.628-10.379-18.732-17.062
				C 40.991,133.016, 36.381,130.943, 31.725,130.943z M 143.654,157.316c-1.732,0.00-3.496,0.294-5.213,0.913c-8.569,3.063-16.984,5.352-23.682,6.419
				l-2.846,0.387c-8.492,0.99-14.556,8.693-13.55,17.17c 1.005,8.492, 8.755,14.509, 17.17,13.55c 1.346-0.17, 2.707-0.34, 4.053-0.557
				c 8.709-1.392, 18.84-4.115, 29.312-7.858c 8.044-2.893, 12.235-11.74, 9.343-19.784C 155.951,161.245, 149.996,157.316, 143.654,157.316zM 575.374,368.072c-11.972-88.711-66.792-140.56-168.109-152.424c-101.286-11.787-177.189-7.811-198.706,109.624
			c-21.501,117.435, 66.838,140.622, 168.125,152.424C 477.97,489.482, 587.331,456.844, 575.374,368.072zM 452.989,328.767l-30.937,18.516l 23.342,29.39c 4.548,5.708, 3.558,13.983-2.135,18.531c-5.692,4.563-13.983,3.604-18.531-2.119l-25.523-32.174
			l-45.229,27.085c-6.296,3.728-14.355,1.686-18.098-4.532c-3.743-6.249-1.702-14.355, 4.548-18.098l 42.244-25.306l-25.987-32.731
			c-4.563-5.692-3.573-13.983, 2.119-18.50c 1.918-1.562, 4.145-2.444, 6.404-2.769c 4.439-0.603, 9.126,1.067, 12.143,4.857l 28.137,35.50
			l 33.953-20.31c 1.578-0.944, 3.264-1.516, 4.965-1.732c 5.089-0.696, 10.317,1.609, 13.117,6.28C 461.28,316.918, 459.253,325.008, 452.989,328.767zM 384.34,173.125c-8.477-0.619-12.282,5.089-8.446,12.684l 32.205,63.636c 3.836,7.595, 10.982,8.105, 15.87,1.145l 41.006-58.362
			c 4.888-6.961, 1.949-13.164-6.528-13.782L 384.34,173.125z" horiz-adv-x="576.2707379514914" />
<glyph unicode="&#xe039;" d="M 490.667,416.00l-21.333,0.00 l-21.333,0.00 L 448.00,437.333 c0.00,23.467-19.20,42.667-42.667,42.667L 42.667,480.00 C 19.20,480.00,0.00,460.80,0.00,437.333l0.00-85.333 c0.00-23.467, 19.20-42.667, 42.667-42.667l 362.667,0.00 c 23.467,0.00, 42.667,19.20, 42.667,42.667L 448.00,373.333 l 21.333,0.00 l0.00-106.667 L 234.667,266.667 c0.00,0.00-21.333,0.00-21.333-21.333s0.00-21.333,0.00-21.333l0.00-21.333 
		c-11.733,0.00-21.333-9.60-21.333-21.333l0.00-192.00 c0.00-11.733, 9.60-21.333, 21.333-21.333l 42.667,0.00 c 11.733,0.00, 21.333,9.60, 21.333,21.333l0.00,192.00 c0.00,11.733-9.60,21.333-21.333,21.333l0.00,21.333 l 213.333,0.00 l 21.333,0.00 c0.00,0.00, 21.333,0.00, 21.333,21.333c0.00,6.464,0.00,128.00,0.00,149.333S 490.667,416.00, 490.667,416.00
		z" />
<glyph unicode="&#xe03a;" d="M 49.024,249.37A56.525,47.027 165.422 1,0 158.438,277.837A56.525,47.027 165.422 1,0 49.024,249.37zM 486.323,393.421c 23.245,9.139, 51.072-6.042, 62.054-33.946
			c 11.085-28.006, 1.101-58.061-22.067-67.251c-23.322-9.19-51.072,6.042-62.131,33.946C 453.12,354.176, 463.155,384.23, 486.323,393.421zM 171.853,380.262A63.386,56.499 204.917 1,0 286.822,326.822A63.386,56.499 204.917 1,0 171.853,380.25zM 333.158,405.837A41.421,41.421 180.00 1,0 416.00,405.837A41.421,41.421 180.00 1,0 333.158,405.837zM 371.968,479.974C 164.89,477.517-36.019,323.968, 5.478,126.234
			c 22.502-107.162, 83.61-43.494, 109.389,13.747c 25.395,56.755, 96.461,52.838, 88.243-17.408c-29.824-254.848, 212.019-143.36, 335.974-28.595
			C 702.234,245.069, 579.098,482.432, 371.968,479.974z M 113.613,222.336c-27.315-7.091-54.323,5.606-60.288,28.339C 47.462,273.485, 64.845,297.728, 92.262,304.819
			c 27.315,7.091, 54.323-5.658, 60.237-28.39C 158.413,253.67, 141.03,229.427, 113.613,222.336z M 206.618,306.227C 177.331,319.821, 163.379,352.026, 175.514,378.138
			c 12.109,26.112, 45.696,36.25, 74.957,22.656C 279.808,387.174, 293.683,354.97, 281.60,328.883C 269.44,302.771, 235.878,292.582, 206.618,306.227z M 365.466,58.317
			c-32.461-14.054-67.84-4.403-79.053,21.555c-11.213,25.958, 5.939,58.394, 38.40,72.448c 32.41,14.003, 67.814,4.352, 79.053-21.606
			C 415.155,104.781, 397.926,72.371, 365.466,58.317z M 373.786,366.387c-21.76,0.00-39.373,17.638-39.373,39.398s 17.613,39.398, 39.373,39.398
			S 413.184,427.52, 413.184,405.786S 395.52,366.387, 373.786,366.387z M 524.262,295.117c-21.862-8.653-48.026,5.709-58.394,32.00
			c-10.394,26.342-1.024,54.656, 20.838,63.309s 48.051-5.709, 58.394-31.949C 555.52,332.134, 546.176,303.821, 524.262,295.117z" horiz-adv-x="614.4000000000001" />
<glyph unicode="&#xe03b;" d="M 256.00,736.00L 256.00,736.00L 256.00,224.00L 256.00,224.00zM0.00,480.00L 512.00,480.00L 512.00,410.182L0.00,410.182zM0.00,410.182L0.00-32.00L 372.364-32.00L 372.364,107.636L 512.00,107.636L 512.00,410.182 		zM 395.636,84.364L 488.727,84.364L 395.636-8.727 		z" />
<glyph unicode="&#xe03c;" d="M 365.714,443.429L 365.714,480.00 l-36.571,0.00 l0.00-36.571 l-36.571,0.00 L 292.571,480.00 l-36.571,0.00 l0.00-36.571 l-36.571,0.00 L 219.429,480.00 l-36.571,0.00 l0.00-36.571 L 146.286,443.429 L 146.286,480.00 L 109.714,480.00 l0.00-36.571 L 73.143,443.429 L 73.143,480.00 L 36.571,480.00 l0.00-36.571 C 16.457,443.429,0.00,426.971,0.00,406.857l0.00-402.286 c0.00-20.114, 16.457-36.571, 36.571-36.571l 329.143,0.00 c 20.114,0.00, 36.571,16.457, 36.571,36.571L 402.286,406.857 
		C 402.286,426.971, 385.829,443.429, 365.714,443.429z M 36.553,361.143c0.00,5.047, 4.096,9.143, 9.143,9.143l 310.857,0.00 c 5.047,0.00, 9.143-4.096, 9.143-9.143S 361.60,352.00, 356.553,352.00l-310.857,0.00 
		C 40.649,352.00, 36.553,356.096, 36.553,361.143z M 356.571,59.429l-310.857,0.00 C 40.667,59.429, 36.571,63.525, 36.571,68.571S 40.667,77.714, 45.714,77.714l 310.857,0.00 c 5.047,0.00, 9.143-4.096, 9.143-9.143
		S 361.618,59.429, 356.571,59.429z M 356.571,132.571l-310.857,0.00 C 40.667,132.571, 36.571,136.667, 36.571,141.714S 40.667,150.857, 45.714,150.857l 310.857,0.00 c 5.047,0.00, 9.143-4.096, 9.143-9.143S 361.618,132.571, 356.571,132.571z
		 M 356.571,205.714l-310.857,0.00 C 40.667,205.714, 36.571,209.81, 36.571,214.857S 40.667,224.00, 45.714,224.00l 310.857,0.00 c 5.047,0.00, 9.143-4.096, 9.143-9.143S 361.618,205.714, 356.571,205.714z M 356.571,278.857l-310.857,0.00 
		C 40.667,278.857, 36.571,282.953, 36.571,288.00S 40.667,297.143, 45.714,297.143l 310.857,0.00 c 5.047,0.00, 9.143-4.096, 9.143-9.143S 361.618,278.857, 356.571,278.857z" horiz-adv-x="402.2857142857143" />
<glyph unicode="&#xe03d;" d="M0.00,480.00l0.00-512.00 l0.00,0.00 l 56.661,64.00l 56.64-64.00l 16.363,0.00 l 53.333,64.00l 53.333-64.00L 256.00-32.00 l 53.333,64.00l 53.333-64.00l0.00,0.00 L 362.667,480.00 L0.00,480.00 z M 32.00,96.00
		C 26.112,96.00, 21.333,100.779, 21.333,106.667S 26.112,117.333, 32.00,117.333S 42.667,112.555, 42.667,106.667S 37.888,96.00, 32.00,96.00z M 74.667,96.00C 68.779,96.00, 64.00,100.779, 64.00,106.667S 68.779,117.333, 74.667,117.333
		S 85.333,112.555, 85.333,106.667S 80.555,96.00, 74.667,96.00z M 117.333,96.00C 111.445,96.00, 106.667,100.779, 106.667,106.667S 111.445,117.333, 117.333,117.333S 128.00,112.555, 128.00,106.667S 123.221,96.00, 117.333,96.00z M 160.00,96.00
		C 154.112,96.00, 149.333,100.779, 149.333,106.667S 154.112,117.333, 160.00,117.333S 170.667,112.555, 170.667,106.667S 165.888,96.00, 160.00,96.00z M 202.667,96.00C 196.779,96.00, 192.00,100.779, 192.00,106.667S 196.779,117.333, 202.667,117.333
		s 10.667-4.779, 10.667-10.667S 208.555,96.00, 202.667,96.00z M 245.333,96.00c-5.888,0.00-10.667,4.779-10.667,10.667s 4.779,10.667, 10.667,10.667s 10.667-4.779, 10.667-10.667S 251.221,96.00, 245.333,96.00z
		 M 256.00,181.333L 74.667,181.333 C 68.779,181.333, 64.00,186.112, 64.00,192.00S 68.779,202.667, 74.667,202.667L 256.00,202.667 c 5.888,0.00, 10.667-4.779, 10.667-10.667S 261.888,181.333, 256.00,181.333z M 288.00,96.00
		c-5.888,0.00-10.667,4.779-10.667,10.667s 4.779,10.667, 10.667,10.667s 10.667-4.779, 10.667-10.667S 293.888,96.00, 288.00,96.00z M 288.00,224.00l-213.333,0.00 C 68.779,224.00, 64.00,228.779, 64.00,234.667
		S 68.779,245.333, 74.667,245.333l 213.333,0.00 c 5.888,0.00, 10.667-4.779, 10.667-10.667S 293.888,224.00, 288.00,224.00z M 64.00,277.333C 64.00,283.221, 68.779,288.00, 74.667,288.00L 256.00,288.00 c 5.888,0.00, 10.667-4.779, 10.667-10.667
		S 261.888,266.667, 256.00,266.667L 74.667,266.667 C 68.779,266.667, 64.00,271.445, 64.00,277.333z M 288.00,309.333l-213.333,0.00 C 68.779,309.333, 64.00,314.112, 64.00,320.00S 68.779,330.667, 74.667,330.667l 213.333,0.00 C 293.888,330.667, 298.667,325.888, 298.667,320.00
		S 293.888,309.333, 288.00,309.333z M 64.00,362.667C 64.00,368.555, 68.779,373.333, 74.667,373.333L 256.00,373.333 c 5.888,0.00, 10.667-4.779, 10.667-10.667S 261.888,352.00, 256.00,352.00L 74.667,352.00 C 68.779,352.00, 64.00,356.779, 64.00,362.667z M 288.00,394.667
		l-213.333,0.00 C 68.779,394.667, 64.00,399.445, 64.00,405.333S 68.779,416.00, 74.667,416.00l 213.333,0.00 C 293.888,416.00, 298.667,411.221, 298.667,405.333S 293.888,394.667, 288.00,394.667z M 330.667,96.00c-5.888,0.00-10.667,4.779-10.667,10.667
		s 4.779,10.667, 10.667,10.667s 10.667-4.779, 10.667-10.667S 336.555,96.00, 330.667,96.00z" horiz-adv-x="362.66666666666663" />
<glyph unicode="&#xe03e;" d="M 601.043,480.00L 66.783,480.00 C 54.539,480.00, 44.522,469.983, 44.522,457.739l0.00-22.283 L 44.522-9.739 l0.00,0.00c-22.261,0.00-22.261,22.261-22.261,22.261L 22.261,367.694 L 22.261,390.957 L 22.261,402.087 C 22.261,408.209, 17.274,413.217, 11.13,413.217S0.00,408.209,0.00,402.087L0.00,390.957 
		c0.00,0.00,0.00-8.682,0.00-23.263C0.00,285.128,0.00,9.183,0.00-9.739c0.00-22.261, 22.261-22.261, 22.261-22.261l 66.783,0.00 l 22.261,0.00 l0.00,0.00l 489.739,0.00 c 12.243,0.00, 22.261,10.017, 22.261,22.261L 623.304,457.739 C 623.304,469.983, 613.287,480.00, 601.043,480.00z M 89.043,435.478l 489.739,0.00 l0.00-89.043 L 89.043,346.435 L 89.043,435.478 z
		 M 578.783,301.891l0.00-111.304 l-133.565,0.00 l0.00,111.304 L 578.783,301.891 z M 400.696,301.891l0.00-111.304 l-133.565,0.00 l0.00,111.304 L 400.696,301.891 z M 211.478,12.522L 100.152,12.522 c-6.122,0.00-11.13,4.964-11.13,11.13c0.00,6.122, 5.009,11.13, 11.13,11.13L 211.478,34.783 
		c 6.144,0.00, 11.13-5.009, 11.13-11.13C 222.609,17.486, 217.622,12.522, 211.478,12.522z M 211.478,57.043L 100.152,57.043 c-6.122,0.00-11.13,4.964-11.13,11.13c0.00,6.122, 5.009,11.13, 11.13,11.13L 211.478,79.304 
		c 6.144,0.00, 11.13-5.009, 11.13-11.13C 222.609,62.008, 217.622,57.043, 211.478,57.043z M 211.478,101.565L 100.152,101.565 c-6.122,0.00-11.13,4.964-11.13,11.13c0.00,6.122, 5.009,11.13, 11.13,11.13L 211.478,123.826 
		c 6.144,0.00, 11.13-5.009, 11.13-11.13C 222.609,106.529, 217.622,101.565, 211.478,101.565z M 211.478,146.087L 100.152,146.087 c-6.122,0.00-11.13,4.964-11.13,11.13c0.00,6.122, 5.009,11.13, 11.13,11.13L 211.478,168.348 
		c 6.144,0.00, 11.13-5.009, 11.13-11.13C 222.609,151.051, 217.622,146.087, 211.478,146.087z M 211.478,190.609L 100.152,190.609 c-6.122,0.00-11.13,4.964-11.13,11.13c0.00,6.122, 5.009,11.13, 11.13,11.13L 211.478,212.87 
		c 6.144,0.00, 11.13-5.009, 11.13-11.13C 222.609,195.573, 217.622,190.609, 211.478,190.609z M 211.478,235.13L 100.152,235.13 c-6.122,0.00-11.13,4.964-11.13,11.13c0.00,6.122, 5.009,11.13, 11.13,11.13L 211.478,257.391 
		c 6.144,0.00, 11.13-5.009, 11.13-11.13C 222.609,240.095, 217.622,235.13, 211.478,235.13z M 211.478,279.652L 100.152,279.652 c-6.122,0.00-11.13,4.964-11.13,11.13c0.00,6.122, 5.009,11.13, 11.13,11.13L 211.478,301.913 
		C 217.622,301.913, 222.609,296.904, 222.609,290.783C 222.609,284.616, 217.622,279.652, 211.478,279.652z M 389.587,12.522L 278.261,12.522 c-6.144,0.00-11.13,4.964-11.13,11.13c0.00,6.122, 4.986,11.13, 11.13,11.13l 111.327,0.00 
		c 6.122,0.00, 11.13-5.009, 11.13-11.13C 400.718,17.486, 395.709,12.522, 389.587,12.522z M 389.587,57.043L 278.261,57.043 c-6.144,0.00-11.13,4.964-11.13,11.13
		c0.00,6.122, 4.986,11.13, 11.13,11.13l 111.327,0.00 c 6.122,0.00, 11.13-5.009, 11.13-11.13C 400.718,62.008, 395.709,57.043, 389.587,57.043z M 389.587,101.565L 278.261,101.565 
		c-6.144,0.00-11.13,4.964-11.13,11.13c0.00,6.122, 4.986,11.13, 11.13,11.13l 111.327,0.00 c 6.122,0.00, 11.13-5.009, 11.13-11.13C 400.718,106.529, 395.709,101.565, 389.587,101.565z
		 M 389.587,146.087L 278.261,146.087 c-6.144,0.00-11.13,4.964-11.13,11.13c0.00,6.122, 4.986,11.13, 11.13,11.13l 111.327,0.00 c 6.122,0.00, 11.13-5.009, 11.13-11.13
		C 400.718,151.051, 395.709,146.087, 389.587,146.087z M 567.674,12.522L 456.348,12.522 c-6.144,0.00-11.13,4.964-11.13,11.13c0.00,6.122, 4.986,11.13, 11.13,11.13l 111.327,0.00 
		c 6.122,0.00, 11.13-5.009, 11.13-11.13C 578.805,17.486, 573.796,12.522, 567.674,12.522z M 567.674,57.043L 456.348,57.043 c-6.144,0.00-11.13,4.964-11.13,11.13
		c0.00,6.122, 4.986,11.13, 11.13,11.13l 111.327,0.00 c 6.122,0.00, 11.13-5.009, 11.13-11.13C 578.805,62.008, 573.796,57.043, 567.674,57.043z M 567.674,101.565L 456.348,101.565 
		c-6.144,0.00-11.13,4.964-11.13,11.13c0.00,6.122, 4.986,11.13, 11.13,11.13l 111.327,0.00 c 6.122,0.00, 11.13-5.009, 11.13-11.13C 578.805,106.529, 573.796,101.565, 567.674,101.565z
		 M 567.674,146.087L 456.348,146.087 c-6.144,0.00-11.13,4.964-11.13,11.13c0.00,6.122, 4.986,11.13, 11.13,11.13l 111.327,0.00 c 6.122,0.00, 11.13-5.009, 11.13-11.13
		C 578.805,151.051, 573.796,146.087, 567.674,146.087zM 33.391,435.478C 27.247,435.478, 22.261,430.47, 22.261,424.348l0.00-11.153 L 22.261,402.087 l0.00-4.474 L 22.261,390.957 l0.00-23.263 L 22.261,12.522 c0.00,0.00,0.00-22.261, 22.261-22.261l0.00,0.00L 44.522,397.613 l0.00,15.583 L 44.522,424.348 
		C 44.522,430.47, 39.535,435.478, 33.391,435.478z" horiz-adv-x="623.304347826087" />
<glyph unicode="&#xe03f;" d="M 200.286,480.00l-42.587,0.00 c0.00-119.371,0.00-361.988,0.00-361.988c-66.18,30.109-143.752-10.20-156.613-70.013
			c-4.174-19.462, 4.493-40.521, 12.542-50.167c 45.312-54.085, 144.092-28.853, 189.49,29.278c 20.144,25.808, 18.461,48.336, 18.461,103.592
			c0.00,75.038,0.00,146.861,0.00,221.537c 27.916-20.761, 59.409-40.074, 70.694-77.125c 6.984-23.018-2.342-61.304-9.752-80.851
			c-2.236-5.856-8.432-10.817-5.579-16.694c 19.569-14.543, 29.193,16.332, 34.836,29.257c 6.069,13.968, 11.903,31.28, 13.926,43.204
			C 347.572,377.834, 211.742,382.689, 200.286,480.00z" horiz-adv-x="328.1101342521182" />
<glyph unicode="&#xe040;" d="M 511.978,480.00L 164.871,445.539l0.00-320.682 c-69.19,31.478-150.29-10.686-163.736-73.219
		c-4.363-20.347, 4.697-42.342, 13.112-52.427c 47.373-56.545, 150.646-30.165, 198.108,30.61c 21.06,26.959, 19.301,50.534, 19.301,108.304
		c0.00,67.921,0.00,166.541,0.00,242.498l 213.536,17.342c0.00-104.697,0.00-238.669,0.00-238.669c-69.19,31.478-150.29-10.686-163.736-73.219
		c-4.363-20.347, 4.697-42.342, 13.112-52.427c 47.373-56.545, 150.646-30.165, 198.108,30.61c 21.06,26.959, 19.301,50.534, 19.301,108.304L 511.978,480.00 z" horiz-adv-x="512.0222496081473" />
<glyph unicode="&#xe041;" d="M 188.067,305.78c0.00,67.375, 26.228,128.489, 68.771,174.173C 256.559,479.953, 256.279,480.00, 256.00,480.00
		C 114.618,480.00,0.00,365.382,0.00,224.00s 114.618-256.00, 256.00-256.00c 74.031,0.00, 140.474,31.581, 187.229,81.827C 302.243,50.269, 188.067,164.655, 188.067,305.78z" horiz-adv-x="443.22907788825756" />
<glyph unicode="&#xe042;" d="M 754.526,480.00L 53.895,480.00 C 24.253,480.00,0.00,455.747,0.00,426.105l0.00-350.316 c0.00-29.642, 24.253-53.895, 53.895-53.895l 296.421,0.00 l0.00-26.947 c-11.965,0.00-48.559,0.00-53.895,0.00c-26.947,0.00-26.947-26.947-26.947-26.947l 269.474,0.00 c0.00,26.947-26.947,26.947-26.947,26.947s-37.915,0.00-53.895,0.00l0.00,26.947 l 296.421,0.00 
		c 29.642,0.00, 53.895,24.253, 53.895,53.895L 808.421,426.105 C 808.421,455.747, 784.168,480.00, 754.526,480.00z M 781.474,75.789c0.00-14.902-12.126-26.947-26.947-26.947L 53.895,48.842 c-14.929,0.00-26.947,12.045-26.947,26.947L 26.947,426.105 c0.00,14.848, 12.019,26.947, 26.947,26.947l 700.632,0.00 
		c 14.821,0.00, 26.947-12.099, 26.947-26.947L 781.474,75.789 z" horiz-adv-x="808.421052631579" />
<glyph unicode="&#xe043;" d="M 256.00,202.667L 256.00,288.00 c0.00,11.776-9.536,21.333-21.333,21.333c-11.733,0.00-21.333-9.557-21.333-21.333l0.00-85.333 c0.00-3.477-0.96-85.333-85.333-85.333
			c-82.176,0.00-85.248,76.693-85.333,85.333L 42.667,288.00 c0.00,11.776-9.536,21.333-21.333,21.333C 9.579,309.333,0.00,299.776,0.00,288.00l0.00-85.333 c0.00-40.96, 23.083-115.605, 106.667-126.549L 106.667,10.667 L 21.333,10.667 c-11.755,0.00-21.333-9.557-21.333-21.333
			c0.00-11.797, 9.579-21.333, 21.333-21.333l 213.333,0.00 c 11.797,0.00, 21.333,9.536, 21.333,21.333c0.00,11.776-9.536,21.333-21.333,21.333L 149.333,10.667 l0.00,65.451 C 232.96,87.083, 256.00,161.728, 256.00,202.667zM 128.00,138.667C 163.371,138.667, 192.00,167.317, 192.00,202.667L 192.00,288.00 L 64.043,288.00 L 64.043,309.333 L 192.00,309.333 L 192.00,416.021 C 192.00,451.371, 163.371,480.00, 128.00,480.00
			C 92.672,480.00, 64.00,451.371, 64.00,416.021L 64.00,202.667 C 64.00,167.317, 92.672,138.667, 128.00,138.667z" horiz-adv-x="256" />
<glyph unicode="&#xe044;" d="M 563.20,326.40l-76.80,0.00 c0.00,84.71-80.435,153.60-179.20,153.60C 208.333,480.00, 128.00,411.11, 128.00,326.40L 51.20,326.40 C 22.912,326.40,0.00,303.488,0.00,275.20l0.00-307.20 l 614.40,0.00 L 614.40,275.20 C 614.40,303.488, 591.462,326.40, 563.20,326.40z M 435.20,96.00l-76.80,0.00 l0.00-76.80 l-102.40,0.00 
			l0.00,76.80 L 179.20,96.00 l0.00,102.40 l 76.80,0.00 L 256.00,275.20 l 102.40,0.00 l0.00-76.80 l 76.80,0.00 L 435.20,96.00 z M 179.20,326.40c0.00,56.448, 57.395,102.40, 128.00,102.40c 70.528,0.00, 128.00-45.952, 128.00-102.40L 179.20,326.40 z" horiz-adv-x="614.4000000000001" />
<glyph unicode="&#xe045;" d="M 209.478,61.091L 23.296-8.727L 23.296,410.135L 209.478,480.00 		zM 628.387,61.091L 442.205-8.727L 442.205,410.135L 628.387,480.00 		zM 232.751,61.091L 418.932-8.727L 418.932,410.135L 232.751,480.00 		z" horiz-adv-x="651.6363636363636" />
<glyph unicode="&#xe046;" d="M 256.00,352.00c0.00,70.707-57.318,128.00-128.00,128.00S0.00,422.707,0.00,352.00c0.00-61.952, 43.981-113.562, 102.40-125.389l0.00-258.56 L 153.60-32.00L 153.60,226.611C 212.019,238.438, 256.00,290.048, 256.00,352.00z M 51.20,390.40
			C 51.20,411.597, 68.378,428.80, 89.60,428.80S 128.00,411.597, 128.00,390.40S 110.797,352.00, 89.60,352.00S 51.20,369.203, 51.20,390.40zM 51.20-6.349A76.80,25.651 180.00 1,0 204.80-6.3489999999999895A76.80,25.651 180.00 1,0 51.20-6.3489999999999895z" horiz-adv-x="256" />
<glyph unicode="&#xe047;" d="M 426.667,330.667c0.00,94.251-76.373,170.667-170.667,170.667C 161.749,501.333, 85.333,424.917, 85.333,330.667c0.00-31.125, 8.491-60.203, 23.04-85.333L 108.16,245.333 L 256.00-53.333l 147.904,298.667l-0.235,0.00 
		C 418.261,270.464, 426.667,299.541, 426.667,330.667z M 256.064,245.355c-47.147,0.00-85.333,38.208-85.333,85.333c0.00,47.125, 38.187,85.333, 85.333,85.333c 47.104,0.00, 85.333-38.208, 85.333-85.333
		C 341.397,283.563, 303.168,245.355, 256.064,245.355z" horiz-adv-x="512.0853271484375" />
<glyph unicode="&#xe048;" d="M 256.00,216.555l 238.464,198.656C 493.227,415.467, 492.053,416.00, 490.667,416.00L 21.333,416.00 C 20.053,416.00, 18.88,415.467, 17.579,415.211L 256.00,216.555zM 512.00,394.667c0.00,2.24-0.619,4.309-1.259,6.357l-169.088-140.885l 169.344-169.344C 511.445,92.501, 512.00,94.165, 512.00,96.00L 512.00,394.667 zM 1.323,401.024C 0.683,398.997,0.00,396.928,0.00,394.667l0.00-298.667 c0.00-1.856, 0.619-3.499, 1.088-5.205l 169.344,169.344L 1.323,401.024zM 325.227,246.40l-62.40-51.947C 260.885,192.811, 258.453,192.00, 256.00,192.00c-2.411,0.00-4.843,0.811-6.763,2.475L 186.88,246.379l-170.709-170.667
			C 17.877,75.264, 19.541,74.667, 21.333,74.667l 469.333,0.00 c 1.877,0.00, 3.541,0.597, 5.248,1.067L 325.227,246.40z" horiz-adv-x="512.0853271484375" />
<glyph unicode="&#xe049;" d="M 405.35,266.658L 405.35,330.682 c0.00,0.00-0.021,149.34-149.34,149.34s-149.34-149.34-149.34-149.34L 106.671,266.658 L 42.668,266.658 l0.00-298.679 l 426.684,0.00 L 469.353,266.658 L 405.35,266.658 z M 277.345,101.894L 277.345,31.981 l-42.668,0.00 l0.00,69.912 c-12.694,7.403-21.334,20.993-21.334,36.759
			c0.00,23.553, 19.115,42.668, 42.668,42.668s 42.668-19.115, 42.668-42.668C 298.679,122.908, 290.06,109.297, 277.345,101.894z M 341.348,266.658L 170.674,266.658 L 170.674,330.66 c 0.235,17.857-0.021,85.337, 85.337,85.337s 85.102-67.757, 85.337-85.337L 341.348,266.658 z" horiz-adv-x="512.0426450050658" />
<glyph unicode="&#xe04a;" d="M 256.00,480.00C 114.611,480.00,0.00,365.338,0.00,224.00c0.00-141.389, 114.611-256.00, 256.00-256.00c 141.363,0.00, 256.00,114.611, 256.00,256.00C 512.00,365.338, 397.363,480.00, 256.00,480.00z M 281.60,20.992L 281.60,96.00 L 230.40,96.00 l0.00-75.008 
			C 137.958,32.538, 64.589,105.958, 52.966,198.40L 128.00,198.40 L 128.00,249.60 L 52.966,249.60 C 64.589,342.042, 137.958,415.411, 230.40,427.059L 230.40,352.00 l 51.20,0.00 L 281.60,427.059 c 92.442-11.648, 165.811-84.992, 177.434-177.459L 384.00,249.60 
			l0.00-51.20 l 75.034,0.00 C 447.411,105.958, 374.042,32.538, 281.60,20.992z" />
<glyph unicode="&#xe04b;" d="M 512.00,480.00L0.00,224.00L 256.00,224.00L 256.00-32.00 	z" />
<glyph unicode="&#xe04c;" d="M 117.988-13.037L 203.245,109.122L 124.037,158.521L 221.279,231.832L 221.317,231.794L 277.276,176.005L 235.994,158.521L 315.164,109.16L 117.988-13.037L 117.988-13.037 		zM 375.201,341.969l-1.783,0.00 c 1.081,6.409, 1.783,12.99, 1.783,19.703c0.00,65.346-53.153,118.329-118.727,118.329
			c-53.779,0.00-99.176-35.688-113.759-84.594C 131.812,399.047, 120.206,401.114, 108.07,401.114c-60.094,0.00-108.828-48.564-108.828-108.468l0.00-29.563 
			c0.00-43.558, 35.442-78.886, 79.151-78.886l 29.279,0.00 c 0.133,0.00, 0.247-0.019, 0.398-0.019c 0.133,0.00, 0.247,0.019, 0.379,0.019l 10.79,0.00 l 81.427,61.383
			c 11.795,8.894, 28.407,7.737, 38.874-2.693l 55.998-55.808c 0.853-0.853, 1.498-1.915, 2.238-2.863l 77.407,0.00 c 43.71,0.00, 79.151,35.328, 79.151,78.886
			C 454.334,306.641, 418.892,341.969, 375.201,341.969z" horiz-adv-x="455.1300636574074" />
<glyph unicode="&#xe04d;" d="M 146.286-7.619L 195.048-7.619L 195.048-32.00L 146.286-32.00zM 97.524,89.905L 243.834,89.905L 243.834,65.524L 97.524,65.524zM 97.524,41.143L 243.834,41.143L 243.834,16.762L 97.524,16.762zM 341.333,309.333c0.00,94.281-76.41,170.667-170.667,170.667C 76.41,480.00,0.00,403.614,0.00,309.333c0.00-68.047, 39.936-126.562, 97.548-153.99L 97.548,114.286 l 146.286,0.00 l0.00,41.106 C 301.422,182.821, 341.333,241.286, 341.333,309.333
			z" horiz-adv-x="341.3333333333333" />
<glyph unicode="&#xe04e;" d="M 576.561,480.00l-487.619,0.00 c-40.229,0.00-73.143-32.914-73.143-73.143l0.00-292.571 c0.00-40.229, 32.914-73.143, 73.143-73.143l 487.619,0.00 c 40.229,0.00, 73.143,32.914, 73.143,73.143L 649.704,406.857 C 649.704,447.086, 616.789,480.00, 576.561,480.00z
			 M 600.942,89.905l-536.381,0.00 L 64.561,431.238 l 536.381,0.00 L 600.942,89.905 zM 660.602-10.179C 654.604-22.199, 638.732-32.00, 625.323-32.00l-585.143,0.00 c-13.41,0.00-29.282,9.801-35.279,21.821l-2.56,5.144
			C-3.682,6.961, 2.389,16.762, 15.799,16.762l 633.905,0.00 c 13.41,0.00, 19.48-9.801, 13.483-21.821L 660.602-10.179zM 64.561,431.238L 600.942,431.238L 600.942,89.905L 64.561,89.905z" horiz-adv-x="665.4780970982142" />
<glyph unicode="&#xe04f;" d="M 360.296,119.704l0.00,37.926 c0.00,0.00-37.926,0.00-56.889,0.00s-18.963-18.963-18.963-18.963l-37.926,0.00 L 246.519,295.566 c 33.109,11.757, 56.889,43.008, 56.889,80.119C 303.407,422.827, 265.216,461.037, 218.15,461.037C 170.97,461.037, 132.741,422.827, 132.741,375.704
			c0.00-37.111, 23.855-68.343, 56.946-80.10L 189.687-3.556 c0.00-15.644, 12.80-28.444, 28.388-28.444c 15.701,0.00, 28.444,12.80, 28.444,28.444L 246.519,43.852 l 37.926,0.00 c0.00,0.00,0.00-18.963, 18.963-18.963s 56.889,0.00, 56.889,0.00l0.00,37.926 l-37.926,0.00 l0.00,56.889 
			L 360.296,119.704 z M 218.074,404.148C 233.775,404.148, 246.519,391.424, 246.519,375.704S 233.775,347.259, 218.074,347.259C 202.411,347.259, 189.63,359.983, 189.63,375.704S 202.411,404.148, 218.074,404.148z" horiz-adv-x="455.18695746527777" />
<glyph unicode="&#xe050;" d="M 170.673,126.897A41.19,41.19 180.00 1,0 253.052,126.89699999999999A41.19,41.19 180.00 1,0 170.673,126.89699999999999zM 318.976,480.00L 104.73,480.00 C 85.981,480.00, 70.621,464.64, 70.621,445.89l0.00-426.108 C 70.621,0.998, 85.981-14.345, 104.73-14.345l 214.246,0.00 C 337.761-14.345, 353.103,0.998, 353.103,19.783L 353.103,445.89 
			C 353.103,464.64, 337.761,480.00, 318.976,480.00z M 211.862,20.966c-58.492,0.00-105.931,47.439-105.931,105.931s 47.439,105.931, 105.931,105.931s 105.931-47.439, 105.931-105.931S 270.354,20.966, 211.862,20.966z M 317.793,293.102
			C 317.793,279.367, 306.547,268.138, 292.829,268.138L 130.895,268.138 C 117.16,268.138, 105.931,279.367, 105.931,293.102L 105.931,419.708 C 105.931,433.443, 117.16,444.69, 130.895,444.69l 161.933,0.00 
			C 306.547,444.69, 317.793,433.443, 317.793,419.708L 317.793,293.102 z" horiz-adv-x="423.7417834051724" />
<glyph unicode="&#xe051;" d="M 298.667,480.00L 110.933,480.00 C 87.467,480.00, 68.267,460.80, 68.267,437.333l0.00-426.667 C 68.267-12.80, 87.467-32.00, 110.933-32.00L 298.667-32.00 c 23.467,0.00, 42.667,19.20, 42.667,42.667l0.00,426.667 
			C 341.333,460.80, 322.133,480.00, 298.667,480.00z M 179.217,445.867L 230.40,445.867 C 235.127,445.867, 238.933,442.044, 238.933,437.333S 235.127,428.80, 230.40,428.80l-51.183,0.00 c-4.71,0.00-8.533,3.823-8.533,8.533
			S 174.507,445.867, 179.217,445.867z M 204.80-14.933c-14.148,0.00-25.60,11.452-25.60,25.60S 190.652,36.267, 204.80,36.267c 14.165,0.00, 25.60-11.452, 25.60-25.60S 218.965-14.933, 204.80-14.933z M 324.267,53.333L 85.35,53.333 L 85.35,394.667 
			L 324.267,394.667 L 324.267,53.333 z" horiz-adv-x="409.61705729166664" />
<glyph unicode="&#xe052;" d="M 36.553,443.429L 365.714,443.429L 365.714,22.857L 36.553,22.857zM 347.429,480.00L 54.857,480.00 C 24.704,480.00,0.00,455.314,0.00,425.143l0.00-402.286 c0.00-30.171, 24.704-54.857, 54.857-54.857l 292.571,0.00 c 30.171,0.00, 54.857,24.686, 54.857,54.857L 402.286,425.143 C 402.286,455.314, 377.60,480.00, 347.429,480.00z M 201.143-13.714
			c-10.112,0.00-18.286,8.174-18.286,18.286s 8.174,18.286, 18.286,18.286s 18.286-8.174, 18.286-18.286S 211.255-13.714, 201.143-13.714z M 347.429,41.143L 54.839,41.143 L 54.839,425.143 L 347.429,425.143 L 347.429,41.143 z" horiz-adv-x="402.2857142857143" />
<glyph unicode="&#xe053;" d="M 682.667,480.00L 56.889,480.00 C 25.486,480.00,0.00,454.514,0.00,423.111l0.00-398.222 c0.00-31.403, 25.486-56.889, 56.889-56.889l 44.231,0.00 C 120.86,1.849, 157.127,24.889, 199.111,24.889s 78.279-23.04, 97.991-56.889l 145.323,0.00 
		c 19.712,33.849, 56.007,56.889, 97.991,56.889s 78.279-23.04, 97.991-56.889L 682.667-32.00 c 31.403,0.00, 56.889,25.486, 56.889,56.889L 739.556,423.111 C 739.556,454.514, 714.069,480.00, 682.667,480.00z M 355.556,195.556l-256.00,0.00 
		C 91.705,195.556, 85.333,201.927, 85.333,209.778S 91.705,224.00, 99.556,224.00l 256.00,0.00 C 363.435,224.00, 369.778,217.628, 369.778,209.778S 363.435,195.556, 355.556,195.556z M 640.028,280.889l-540.444,0.00 c-7.851,0.00-14.222,6.372-14.222,14.222
		S 91.733,309.333, 99.584,309.333l 540.444,0.00 c 7.851,0.00, 14.222-6.372, 14.222-14.222S 647.879,280.889, 640.028,280.889z M 640.028,366.222l-540.444,0.00 c-7.851,0.00-14.222,6.40-14.222,14.222
		c0.00,7.879, 6.372,14.222, 14.222,14.222l 540.444,0.00 c 7.851,0.00, 14.222-6.343, 14.222-14.222C 654.251,372.622, 647.879,366.222, 640.028,366.222z" horiz-adv-x="739.5555555555555" />
<glyph unicode="&#xe054;" d="M 405.333,266.667L 106.667,266.667L 85.333,266.667L 85.333,202.667L 106.667,202.667L 106.667,245.333L 405.333,245.333L 405.333,202.667L 426.667,202.667L 426.667,245.333L 426.667,266.667 		zM 384.00,330.667L 128.00,330.667L 106.667,330.667L 106.667,309.333L 106.667,288.00L 128.00,288.00L 128.00,309.333L 384.00,309.333L 384.00,288.00L 405.333,288.00L 405.333,309.333L 405.333,330.667 		zM 362.667,394.667L 149.333,394.667L 128.00,394.667L 128.00,352.00L 149.333,352.00L 149.333,373.333L 362.667,373.333L 362.667,352.00L 384.00,352.00L 384.00,373.333L 384.00,394.667 		zM 149.333,373.333L 362.667,373.333L 362.667,352.00L 149.333,352.00zM 128.00,309.333L 384.00,309.333L 384.00,288.00L 128.00,288.00zM 106.667,245.333L 405.355,245.333L 405.355,117.333L 106.667,117.333zM 442.965,458.667L 405.333,458.667 l-21.333,0.00 L 128.00,458.667 L 106.667,458.667 L 69.056,458.667 L 0.768,208.299L0.00-10.667l 512.00,0.00 L 512.00,202.667 L 442.965,458.667z M 101.632,416.00L 106.667,416.00 l 21.333,0.00 l 256.00,0.00 l 21.333,0.00 l 5.035,0.00 l 58.197-213.333l-117.312,0.00 l-42.667-64.00l-105.173,0.00 l-42.667,64.00
		L 43.456,202.667 L 101.632,416.00z" />
<glyph unicode="&#xe055;" d="M 711.111,224.00c0.00,47.104, 38.201,85.333, 85.333,85.333L 796.444,480.00 L0.00,480.00 l0.00-170.667 c 47.132,0.00, 85.333-38.229, 85.333-85.333s-38.201-85.333-85.333-85.333l0.00-170.667 l 796.444,0.00 l0.00,170.667 C 749.312,138.667, 711.111,176.896, 711.111,224.00z M 682.667,81.778
			c0.00-31.403-25.486-56.889-56.889-56.889L 170.667,24.889 c-31.403,0.00-56.889,25.486-56.889,56.889L 113.778,366.222 c0.00,31.403, 25.486,56.889, 56.889,56.889l 455.111,0.00 c 31.403,0.00, 56.889-25.486, 56.889-56.889L 682.667,81.778 zM 625.778,394.667l-85.333,0.00 l0.00-341.333 l 85.333,0.00 c 15.701,0.00, 28.444,12.743, 28.444,28.444L 654.222,366.222 C 654.222,381.924, 641.479,394.667, 625.778,394.667zM 170.667,394.667C 154.965,394.667, 142.222,381.924, 142.222,366.222l0.00-284.444 c0.00-15.701, 12.743-28.444, 28.444-28.444l 341.333,0.00 L 512.00,394.667 L 170.667,394.667 z M 413.582,94.066l-86.443,62.037l-86.471-62.037l 30.464,103.936
			L 187.25,263.623l 105.273,2.219l 34.617,102.542l 34.588-102.542l 105.244-2.219l-83.883-65.621L 413.582,94.066z" horiz-adv-x="796.4444444444443" />
<glyph unicode="&#xe056;" d="M 256.00,480.00C 114.618,480.00,0.00,365.359,0.00,224.00s 114.618-256.00, 256.00-256.00s 256.00,114.641, 256.00,256.00S 397.382,480.00, 256.00,480.00z M 256.00,26.182c-109.079,0.00-197.818,88.739-197.818,197.818
			S 146.921,421.818, 256.00,421.818s 197.818-88.739, 197.818-197.818S 365.079,26.182, 256.00,26.182zM 346.391,314.391c-11.357,11.357-29.766,11.357-41.146,0.00L 256.00,265.146L 206.755,314.391c-11.357,11.357-29.766,11.357-41.146,0.00
			s-11.357-29.766,0.00-41.146L 214.854,224.00l-49.245-49.245c-11.357-11.357-11.357-29.766,0.00-41.146C 171.287,127.93, 178.735,125.091, 186.182,125.091
			s 14.895,2.839, 20.573,8.518L 256.00,182.854l 49.245-49.245C 310.924,127.93, 318.371,125.091, 325.818,125.091s 14.895,2.839, 20.573,8.518
			c 11.357,11.357, 11.357,29.766,0.00,41.146L 297.146,224.00l 49.245,49.245C 357.748,284.602, 357.748,303.034, 346.391,314.391z" />
<glyph unicode="&#xe057;" d="M 315.077,480.00L 39.385,480.00 C 17.644,480.00,0.00,462.356,0.00,440.615l0.00-433.231 c0.00-21.74, 17.644-39.385, 39.385-39.385l 275.692,0.00 c 21.74,0.00, 39.385,17.644, 39.385,39.385L 354.462,440.615 C 354.462,462.356, 336.817,480.00, 315.077,480.00z M 177.231,420.923
			c 32.63,0.00, 59.077-26.447, 59.077-59.077s-26.447-59.077-59.077-59.077S 118.154,329.216, 118.154,361.846S 144.601,420.923, 177.231,420.923z M 177.231,7.385c-76.17,0.00-137.846,61.696-137.846,137.846s 61.676,137.846, 137.846,137.846s 137.846-61.696, 137.846-137.846S 253.401,7.385, 177.231,7.385z
			M 131.289,145.231A45.942,45.942 180.00 1,0 223.173,145.231A45.942,45.942 180.00 1,0 131.289,145.231zM 157.538,361.846A19.692,19.692 180.00 1,0 196.923,361.846A19.692,19.692 180.00 1,0 157.538,361.846z" horiz-adv-x="354.46153846153845" />
<glyph unicode="&#xe058;" d="M 236.308,411.077c 103.385,0.00, 173.233-32.729, 210.708-56.793L 472.615,401.231c0.00,0.00-78.769,78.769-236.308,78.769S0.00,401.231,0.00,401.231l 25.60-46.946C 63.074,378.348, 132.923,411.077, 236.308,411.077zM 236.308,391.385c-99.033,0.00-166.203-32.197-201.118-54.646L 236.308-32.00L 437.445,336.738C 402.511,359.188, 335.34,391.385, 236.308,391.385z M 137.846,302.769c0.00,21.74, 17.644,39.385, 39.385,39.385
			s 39.385-17.644, 39.385-39.385s-17.644-39.385-39.385-39.385S 137.846,281.029, 137.846,302.769z M 196.923,184.615c-10.87,0.00-19.692,8.802-19.692,19.692s 8.822,19.692, 19.692,19.692c 10.87,0.00, 19.692-8.802, 19.692-19.692S 207.793,184.615, 196.923,184.615z M 246.154,86.154
			c-16.305,0.00-29.538,13.214-29.538,29.538s 13.233,29.538, 29.538,29.538s 29.538-13.214, 29.538-29.538S 262.459,86.154, 246.154,86.154z M 305.231,224.00c-16.305,0.00-29.538,13.214-29.538,29.538
			s 13.233,29.538, 29.538,29.538s 29.538-13.214, 29.538-29.538S 321.536,224.00, 305.231,224.00z" horiz-adv-x="472.61538461538464" />
<glyph unicode="&#xe059;" d="M 229.786,480.00l-9.011,0.00 C 169.636,435.026, 88.269,420.28,0.00,412.416L0.00,254.72 c0.00-49.684, 13.844-89.825, 35.963-124.334L 335.647,430.07
			C 294.052,440.392, 257.413,455.69, 229.786,480.00zM 119.255,42.793c 32.522-25.907, 68.198-49.766, 102.482-74.793l 7.045,0.00 C 332.943,44.063, 450.56,108.882, 450.56,254.72L 450.56,374.077 L 119.255,42.793zM 450.56,412.416c-40.571,3.625-79.524,8.868-114.913,17.654L 35.963,130.386c 21.422-33.464, 50.688-61.624, 83.292-87.572
			L 450.56,374.077L 450.56,412.416 z" horiz-adv-x="450.56" />
<glyph unicode="&#xe05a;" d="M0.00,224.00c0.00-13.962,0.00-118.154,0.00-118.154c0.00-88.93, 68.647-137.846, 157.538-137.846c 12.879,0.00, 59.077,0.00, 59.077,0.00l0.00,78.769 c0.00,0.00-169.452,168.645-177.231,177.231C 19.692,243.692,0.00,243.692,0.00,224.00zM 472.615,224.00c-7.778-8.586-177.231-177.231-177.231-177.231l0.00-78.769 c0.00,0.00, 46.198,0.00, 59.077,0.00c 88.891,0.00, 157.538,48.916, 157.538,137.846c0.00,0.00,0.00,104.192,0.00,118.154C 512.00,243.692, 492.308,243.692, 472.615,224.00zM 295.385,401.231l-39.385,78.769l-39.385-78.769L 157.538,480.00c0.00,0.00-39.385-118.154-39.385-157.538s 19.673-118.154, 137.846-118.154s 137.846,78.769, 137.846,118.154s-39.385,157.538-39.385,157.538L 295.385,401.231zM 236.308,322.462L 295.385,322.462L 295.385-32.00L 236.308-32.00z" />
</font>
</defs>
</svg>
